<?xml version="1.0" standalone="no"?>
<!DOCTYPE svg PUBLIC "-//W3C//DTD SVG 1.1//EN" "http://www.w3.org/Graphics/SVG/1.1/DTD/svg11.dtd" >
<svg>
<metadata>
Created by FontForge 20110222 at Tue Nov 12 16:16:49 2013
 By Orthosie Webhosting
Copyright (c) The Font Bureau, Inc., 2008. All rights reserved.
</metadata>
<defs>
<font id="BentonSans-Thin" horiz-adv-x="0" >
  <font-face 
    font-family="BentonSans-Thin"
    font-weight="140"
    font-stretch="normal"
    units-per-em="2048"
    panose-1="0 0 0 0 0 0 0 0 0 0"
    ascent="1612"
    descent="-436"
    x-height="1075"
    cap-height="1516"
    bbox="-150 -428 2578 1970"
    underline-thickness="50"
    underline-position="-50"
    unicode-range="U+0020-FB04"
  />
<missing-glyph horiz-adv-x="1024" 
d="M0 1434h1024v-1434h-1024v1434zM102 102h820v1229h-820v-1229z" />
    <glyph glyph-name="uniFB00" unicode="ff" horiz-adv-x="1182" 
d="M262 1030h-188v45h188v211q0 61 18.5 105t56.5 72.5t97.5 42t140.5 14.5v-45q-71 0 -121 -10t-82.5 -32t-47.5 -57t-15 -86v-215h510v211q0 61 18.5 105t57 72.5t97.5 42t141 14.5v-45q-71 0 -121.5 -10t-83 -32t-47.5 -57t-15 -86v-215h258v-45h-258v-1030h-47v1030
h-510v-1030h-47v1030z" />
    <glyph glyph-name="uniFB01" unicode="fi" horiz-adv-x="1063" 
d="M262 1030h-188v45h188v211q0 61 18.5 105t56.5 72.5t97.5 42t140.5 14.5v-45q-71 0 -121 -10t-82.5 -32t-47.5 -57t-15 -86v-215h258v-45h-258v-1030h-47v1030zM819 1075h47v-1075h-47v1075zM811 1442h66v-86h-66v86z" />
    <glyph glyph-name="uniFB02" unicode="fl" horiz-adv-x="1053" 
d="M262 1030h-188v45h188v211q0 61 18.5 105t56.5 72.5t97.5 42t140.5 14.5v-45q-71 0 -121 -10t-82.5 -32t-47.5 -57t-15 -86v-215h258v-45h-258v-1030h-47v1030zM819 1516h47v-1516h-47v1516z" />
    <glyph glyph-name="uniFB03" unicode="ffi" horiz-adv-x="1620" 
d="M262 1030h-188v45h188v211q0 61 18.5 105t56.5 72.5t97.5 42t140.5 14.5v-45q-71 0 -121 -10t-82.5 -32t-47.5 -57t-15 -86v-215h510v211q0 61 18.5 105t57 72.5t97.5 42t141 14.5v-45q-71 0 -121.5 -10t-83 -32t-47.5 -57t-15 -86v-215h258v-45h-258v-1030h-47v1030
h-510v-1030h-47v1030zM1376 1075h47v-1075h-47v1075zM1368 1442h66v-86h-66v86z" />
    <glyph glyph-name="uniFB04" unicode="ffl" horiz-adv-x="1620" 
d="M262 1030h-188v45h188v211q0 61 18.5 105t56.5 72.5t97.5 42t140.5 14.5v-45q-71 0 -121 -10t-82.5 -32t-47.5 -57t-15 -86v-215h510v211q0 61 18.5 105t57 72.5t97.5 42t141 14.5v-45q-71 0 -121.5 -10t-83 -32t-47.5 -57t-15 -86v-215h258v-45h-258v-1030h-47v1030
h-510v-1030h-47v1030zM1376 1516h47v-1516h-47v1516z" />
    <glyph glyph-name="f_j.liga" unicode="fj" horiz-adv-x="1063" 
d="M262 1030h-188v45h188v211q0 61 18.5 105t56.5 72.5t97.5 42t140.5 14.5v-45q-71 0 -121 -10t-82.5 -32t-47.5 -57t-15 -86v-215h258v-45h-258v-1030h-47v1030zM727 -412q-19 0 -34.5 2t-24.5 4v46q12 -4 26.5 -6.5t28.5 -2.5q19 0 36.5 5t30.5 17.5t21 34.5t8 56v1331
h47v-1321q0 -51 -13 -83.5t-33.5 -51t-45 -25t-47.5 -6.5zM811 1442h66v-86h-66v86z" />
    <glyph glyph-name=".notdef" horiz-adv-x="1024" 
d="M0 1434h1024v-1434h-1024v1434zM102 102h820v1229h-820v-1229z" />
    <glyph glyph-name=".null" 
 />
    <glyph glyph-name="nonmarkingreturn" horiz-adv-x="682" 
 />
    <glyph glyph-name="space" unicode=" " horiz-adv-x="412" 
 />
    <glyph glyph-name="exclam" unicode="!" horiz-adv-x="604" 
d="M274 1516h56l-11 -1203h-34zM258 106h88v-106h-88v106z" />
    <glyph glyph-name="quotedbl" unicode="&#x22;" horiz-adv-x="772" 
d="M197 1411v105h49v-105l-15 -401h-20zM526 1411v105h49v-105l-14 -401h-20z" />
    <glyph glyph-name="numbersign" unicode="#" horiz-adv-x="1411" 
d="M360 479h-256v47h267l98 469h-272v47h282l99 474h47l-99 -474h475l99 474h47l-98 -474h260v-47h-271l-98 -469h277v-47h-287l-101 -479h-47l101 479h-475l-101 -479h-47zM893 526l98 469h-475l-98 -469h475z" />
    <glyph glyph-name="dollar" unicode="$" horiz-adv-x="1296" 
d="M625 -29q-100 4 -175 28t-130.5 64t-94 93.5t-65.5 117.5l47 21q28 -62 63 -111.5t84.5 -85t115.5 -56.5t155 -26v770q-120 39 -199.5 77.5t-127.5 85.5t-67.5 107t-19.5 144q0 66 27.5 127t80.5 109t130 77.5t176 32.5v131h51v-131q74 -4 135 -23t110 -50.5t87 -73.5
t67 -90l-43 -27q-54 90 -141 149.5t-215 67.5v-678q127 -41 218.5 -81.5t150.5 -92t86.5 -121.5t27.5 -170q0 -88 -36 -159.5t-100.5 -121.5t-153 -77.5t-193.5 -28.5v-159h-51v161zM676 16q98 1 178 25.5t136.5 69t87 106.5t30.5 139q0 81 -22 141t-73 107.5t-133.5 86
t-203.5 77.5v-752zM625 1499q-87 -3 -154.5 -28.5t-114 -66.5t-70.5 -93.5t-24 -110.5q0 -75 18.5 -127.5t61 -93t112 -73t171.5 -66.5v659z" />
    <glyph glyph-name="percent" unicode="%" horiz-adv-x="1915" 
d="M1438 -12q-72 0 -130.5 30.5t-100 87.5t-63.5 139.5t-22 186.5q0 105 23 187.5t65 140.5t101 88.5t131 30.5t131 -30.5t101.5 -88.5t65.5 -140.5t23 -187.5q0 -104 -24 -186.5t-66.5 -139.5t-102.5 -87.5t-132 -30.5zM467 637q-72 0 -130.5 30.5t-99.5 87.5t-63 139.5
t-22 186.5q0 105 23 187.5t64.5 140.5t100.5 88.5t131 30.5t131.5 -30.5t102 -88.5t65.5 -140.5t23 -187.5q0 -104 -24 -186.5t-67 -139.5t-103 -87.5t-132 -30.5zM467 684q63 0 113.5 28t86.5 80t55 125.5t19 163.5q0 91 -18.5 164.5t-53.5 126t-85 81t-113 28.5
t-113 -28.5t-84.5 -81t-52.5 -126t-18 -164.5q0 -90 17.5 -163.5t51.5 -125.5t83 -80t112 -28zM1438 35q63 0 113.5 28t86.5 79.5t55 125t19 164.5t-18.5 164.5t-53.5 125.5t-85 80.5t-113 28.5t-113 -28.5t-84.5 -80.5t-52.5 -125.5t-18 -164.5t17.5 -164.5t51.5 -125
t83 -79.5t112 -28zM1378 1516h52l-904 -1516h-51z" />
    <glyph glyph-name="ampersand" unicode="&#x26;" horiz-adv-x="1456" 
d="M561 -23q-94 0 -176.5 23.5t-144.5 71.5t-98 121t-36 172q0 87 32 157.5t84 127.5t117.5 102t133.5 82q-30 51 -52.5 98t-37 93t-22 92t-7.5 95q0 78 28 139.5t74 105t105.5 66.5t122.5 23t116 -18t91.5 -53.5t60 -89t21.5 -123.5q0 -86 -36.5 -149.5t-97.5 -113.5
t-139 -92t-161 -86q15 -26 32 -52.5t37 -55.5q44 -65 94 -129.5t104.5 -125.5t113.5 -116.5t120 -103.5q68 85 115 209t66 298h51q-20 -183 -70 -314t-123 -222q78 -57 155.5 -97.5t158.5 -60.5v-53q-87 22 -174 66.5t-172 107.5q-51 -54 -109 -91t-120.5 -60t-127.5 -33.5
t-129 -10.5zM561 25q62 0 123 9.5t118.5 30.5t110 54.5t97.5 81.5q-64 49 -124.5 106t-117 119t-107 127.5t-94.5 130.5q-20 31 -38 59t-33 54q-62 -34 -122.5 -75.5t-108.5 -94t-77.5 -117t-29.5 -145.5q0 -87 32 -151t86.5 -106t128 -62.5t156.5 -20.5zM516 858
q75 39 148 78t130.5 85t92.5 104.5t35 136.5q0 58 -17.5 102.5t-49 74.5t-75.5 45t-96 15q-54 0 -104.5 -20.5t-89 -58t-61.5 -90.5t-23 -118q0 -84 26.5 -169t83.5 -185z" />
    <glyph glyph-name="quotesingle" unicode="'" horiz-adv-x="442" 
d="M197 1411v105h49v-105l-15 -401h-20z" />
    <glyph glyph-name="parenleft" unicode="(" horiz-adv-x="801" 
d="M666 -418q-123 96 -218 208t-160 235.5t-98.5 256.5t-33.5 271t33.5 270.5t98.5 255.5t160 235t218 210l24 -33q-113 -90 -202.5 -198.5t-152 -228.5t-95.5 -249.5t-33 -261.5t33 -262.5t95.5 -252t152 -229t202.5 -194.5l-24 -33v0z" />
    <glyph glyph-name="parenright" unicode=")" horiz-adv-x="801" 
d="M111 -385q113 90 202.5 198.5t152 228.5t95.5 249.5t33 261.5t-33 262.5t-95.5 252t-152 229t-202.5 194.5l24 33q123 -96 218 -208t160 -235.5t98.5 -256.5t33.5 -271t-33.5 -270.5t-98.5 -255.5t-160 -235t-218 -210z" />
    <glyph glyph-name="asterisk" unicode="*" horiz-adv-x="1036" 
d="M299 809l197 328l-381 -9v41l381 -8l-197 328l35 20l184 -333l184 333l35 -20l-196 -328l381 8v-41l-381 9l196 -328l-35 -21l-184 334l-184 -334z" />
    <glyph glyph-name="plus" unicode="+" horiz-adv-x="1278" 
d="M614 641h-481v47h481v483h52v-483h479v-47h-479v-485h-52v485z" />
    <glyph glyph-name="comma" unicode="," horiz-adv-x="522" 
d="M256 0h-39v106h88v-94l-49 -182h-33z" />
    <glyph glyph-name="hyphen" unicode="-" horiz-adv-x="717" 
d="M152 670h413v-47h-413v47z" />
    <glyph glyph-name="period" unicode="." horiz-adv-x="522" 
d="M217 106h88v-106h-88v106z" />
    <glyph glyph-name="slash" unicode="/" horiz-adv-x="1063" 
d="M932 1516h51l-852 -1516h-51z" />
    <glyph glyph-name="zero" unicode="0" horiz-adv-x="1313" 
d="M657 -31q-130 0 -229 59t-166 164t-101 250t-34 316t34 315.5t101 249.5t166 164t229 59t229 -59t165.5 -164t100.5 -249.5t34 -315.5t-34 -316t-100.5 -250t-165.5 -164t-229 -59zM657 18q121 0 210.5 56t149 155t89 234.5t29.5 294.5t-29.5 294.5t-89 235t-149 155.5
t-210.5 56q-120 0 -210 -56t-150 -155.5t-89.5 -235t-29.5 -294.5t29.5 -294.5t89.5 -234.5t150 -155t210 -56z" />
    <glyph glyph-name="one" unicode="1" horiz-adv-x="862" 
d="M139 49h305v1403q-58 -43 -138 -63.5t-159 -20.5v51q75 0 151.5 20t152.5 77h45v-1467h268v-49h-625v49z" />
    <glyph glyph-name="two" unicode="2" horiz-adv-x="1180" 
d="M119 0v12.5t1 17.5q0 11 1 23q2 65 11.5 119t31 102.5t58.5 94t95.5 95t140.5 105.5t195 125q90 55 154.5 107t105.5 104.5t60.5 108.5t19.5 121q0 84 -26.5 151t-76 114.5t-120 73t-158.5 25.5q-84 0 -151 -24t-119 -63.5t-90.5 -90t-63.5 -104.5l-45 20q27 60 71 116
t103 98.5t133.5 68.5t161.5 26q100 0 180 -28t136 -81.5t86 -129.5t30 -172q0 -73 -22 -136t-67.5 -120.5t-115.5 -112.5t-165 -113q-109 -67 -188 -120.5t-134 -100t-89.5 -89.5t-54 -88t-27 -95t-9.5 -111h868v-49h-921v0z" />
    <glyph glyph-name="three" unicode="3" horiz-adv-x="1190" 
d="M573 -31q-102 0 -182 25t-141 66t-104.5 92.5t-71.5 105.5l41 27q24 -48 63 -96t94.5 -86.5t130 -62.5t170.5 -24q92 0 169.5 28t133.5 78.5t87.5 120.5t31.5 154q0 88 -28 160t-86.5 123.5t-149 79.5t-215.5 28h-96v48h92q91 0 173.5 17.5t144.5 56.5t98.5 100.5
t36.5 148.5q0 78 -24 140.5t-71.5 107t-119 68.5t-166.5 24q-74 0 -134 -19t-108 -49.5t-84 -69.5t-61 -79l-41 27q26 43 66.5 85t94.5 76t121 55t146 21q109 0 190 -27.5t135 -78t80.5 -122t26.5 -159.5q0 -71 -26.5 -131t-74 -105t-114 -73.5t-146.5 -36.5
q95 -10 168.5 -43t123 -86t75 -125.5t25.5 -161.5q0 -95 -35 -173.5t-97.5 -135t-149.5 -88t-192 -31.5z" />
    <glyph glyph-name="four" unicode="4" horiz-adv-x="1196" 
d="M823 416h-731v47l731 1053h51v-1053h269v-47h-269v-416h-51v416zM823 463v975l-676 -975h676z" />
    <glyph glyph-name="five" unicode="5" horiz-adv-x="1169" 
d="M563 -31q-104 0 -185 31.5t-139.5 76.5t-95 94.5t-51.5 84.5l47 23q13 -32 46 -76.5t86 -85.5t126 -70t166 -29q114 0 199.5 39t141.5 105t84 153t28 183q0 105 -31.5 186t-86.5 136.5t-129 84.5t-159 29q-68 0 -127 -18t-108 -47.5t-87 -68.5t-63 -81l-47 14l64 783h733
v-50h-688l-56 -671q19 30 54 62.5t83.5 60t109.5 45.5t132 18q95 0 178.5 -31.5t145.5 -92.5t97.5 -151.5t35.5 -207.5q0 -107 -31 -203t-94 -168.5t-157.5 -115t-221.5 -42.5z" />
    <glyph glyph-name="six" unicode="6" horiz-adv-x="1221" 
d="M647 -31q-62 0 -125 17t-120.5 55t-107.5 97.5t-86.5 144t-57.5 196t-21 252.5q0 180 36.5 329.5t107 257.5t174.5 168t239 60q52 0 99 -7.5t92 -24t89 -43.5t91 -66l-33 -39q-44 37 -84.5 62.5t-81.5 41.5t-83 22.5t-89 6.5q-122 0 -217 -55t-159.5 -155.5t-98 -242
t-33.5 -315.5v-37q31 37 80.5 79.5t111.5 78.5t133 60t146 24q130 0 221 -39.5t149 -105t84.5 -149.5t26.5 -173q0 -101 -33 -191.5t-95.5 -159t-152 -109t-202.5 -40.5zM647 16q102 0 182.5 37t136 99.5t84.5 144.5t29 172q0 80 -23.5 155.5t-75.5 134.5t-133.5 94.5
t-197.5 35.5q-81 0 -154 -26t-133.5 -65t-107 -84t-74.5 -83q12 -168 57.5 -285t111 -190.5t143.5 -106.5t155 -33z" />
    <glyph glyph-name="seven" unicode="7" horiz-adv-x="1118" 
d="M977 1468h-846v48h897v-48l-686 -1468h-53z" />
    <glyph glyph-name="eight" unicode="8" horiz-adv-x="1221" 
d="M618 -31q-112 0 -208 27.5t-166 78.5t-110 125t-40 167q0 90 40 158t105 119.5t147.5 90.5t168.5 72q-75 28 -142.5 60t-119.5 74.5t-82.5 99.5t-30.5 135q0 84 34.5 152t93.5 116.5t139 75t171 26.5t171.5 -26.5t140.5 -75t94.5 -116.5t34.5 -152q0 -76 -31.5 -132
t-84.5 -98.5t-122.5 -75t-144.5 -61.5q85 -33 166.5 -72.5t145.5 -91.5t103 -120t39 -158q0 -93 -38 -167t-105.5 -125t-162 -78.5t-206.5 -27.5zM618 18q100 0 184.5 23.5t146 68.5t96 109.5t34.5 147.5q0 86 -40.5 149.5t-106.5 112t-150 85.5t-170 70
q-87 -33 -170.5 -70.5t-149.5 -86t-106.5 -112t-40.5 -148.5q0 -83 36.5 -147.5t100 -109.5t150 -68.5t186.5 -23.5zM621 831q76 29 146 59.5t123.5 69.5t85.5 91t32 125t-30.5 132.5t-83.5 102t-124 65.5t-152 23t-151.5 -23t-123 -65.5t-82.5 -102t-30 -132.5
q0 -72 32.5 -124t86.5 -91t124.5 -69.5t146.5 -60.5z" />
    <glyph glyph-name="nine" unicode="9" horiz-adv-x="1221" 
d="M535 -31q-53 0 -99.5 7.5t-91.5 24t-89 44t-91 66.5l33 39q43 -38 84 -63.5t81.5 -41.5t83 -22.5t89.5 -6.5q122 0 216.5 55t159 155.5t98 242.5t33.5 315v37q-32 -37 -81 -79t-110.5 -78t-133 -60t-146.5 -24q-130 0 -221.5 39.5t-149 104.5t-84 149.5t-26.5 173.5
q0 100 33 191t95.5 159t152 108.5t202.5 40.5q62 0 125 -17t120.5 -54.5t107.5 -97t87 -144.5t58 -196.5t21 -252.5q0 -180 -36.5 -329.5t-107 -257.5t-174.5 -168t-239 -60zM571 627q81 0 154 26t133.5 64.5t107 83.5t74.5 84q-7 111 -30.5 200t-58.5 157.5t-79 117
t-93.5 79.5t-102 45.5t-103.5 14.5q-102 0 -182.5 -37t-136 -99.5t-84.5 -144t-29 -171.5q0 -80 23.5 -155.5t75.5 -134.5t133.5 -94.5t197.5 -35.5z" />
    <glyph glyph-name="colon" unicode=":" horiz-adv-x="522" 
d="M217 106h88v-106h-88v106zM217 1075h88v-106h-88v106z" />
    <glyph glyph-name="semicolon" unicode=";" horiz-adv-x="522" 
d="M256 0h-39v106h88v-94l-49 -182h-33zM217 1075h88v-106h-88v106z" />
    <glyph glyph-name="less" unicode="&#x3c;" horiz-adv-x="1366" 
d="M141 643v47l1043 449v-49l-991 -424l991 -428v-50z" />
    <glyph glyph-name="equal" unicode="=" horiz-adv-x="1370" 
d="M199 461h972v-47h-972v47zM199 922h972v-48h-972v48z" />
    <glyph glyph-name="greater" unicode="&#x3e;" horiz-adv-x="1366" 
d="M182 238l992 424l-992 428v49l1043 -455v-47l-1043 -449v50z" />
    <glyph glyph-name="question" unicode="?" horiz-adv-x="1067" 
d="M426 332q0 77 2 135.5t9 104.5t21.5 81.5t38.5 66.5t60.5 59.5t87.5 60.5q57 35 103 67.5t79 70.5t50.5 86t17.5 114q0 74 -26.5 133.5t-74.5 101t-115 64t-149 22.5q-71 0 -133 -21.5t-112 -55t-87 -74.5t-59 -80l-43 24q25 44 66 89t96.5 82t124 60t147.5 23
q95 0 172 -25.5t131 -73.5t83.5 -116t29.5 -153q0 -74 -19.5 -127t-55.5 -95t-86.5 -78t-112.5 -75q-70 -44 -109.5 -84t-58.5 -91t-23 -121.5t-4 -174.5h-51zM408 106h88v-106h-88v106z" />
    <glyph glyph-name="at" unicode="@" horiz-adv-x="1778" 
d="M881 -25q-127 0 -233 29t-191 81t-149.5 124t-107 159t-64 184.5t-21.5 201.5q0 178 59.5 323.5t164.5 248.5t247 159.5t307 56.5t307 -55.5t247 -156t164.5 -241t59.5 -311.5q0 -119 -27 -203.5t-72 -138.5t-103 -79t-119 -25q-94 0 -154.5 39.5t-79.5 107.5
q-71 -66 -161 -109.5t-193 -43.5q-62 0 -116 20t-94 61.5t-63.5 105.5t-23.5 153q0 111 28 210t80.5 172.5t127 116.5t167.5 43q55 0 102.5 -10t87.5 -27t72 -39t58 -45l14 105h51l-90 -617q-14 -92 36.5 -144t150.5 -52q54 0 103 23.5t86 72.5t59 124t22 179q0 106 -25 201
t-71.5 174.5t-112.5 143t-146.5 107.5t-174.5 67.5t-197 23.5q-155 0 -287.5 -53.5t-230.5 -151t-153.5 -234t-55.5 -302.5q0 -153 47.5 -286t139 -231.5t224.5 -155t304 -56.5q67 0 126 6t113 18.5t105.5 31t103.5 44.5l21 -41q-57 -27 -110.5 -47.5t-109.5 -34t-117 -20.5
t-132 -7zM762 373q99 0 181.5 40t166.5 117v24t2 24l68 456q-22 23 -52 46t-69 41t-86.5 29t-104.5 11q-85 0 -150.5 -42.5t-110.5 -112t-68 -158.5t-23 -182q0 -75 19 -130.5t52.5 -91.5t78.5 -53.5t96 -17.5z" />
    <glyph glyph-name="A" unicode="A" horiz-adv-x="1325" 
d="M635 1524h55l551 -1524h-55l-197 545h-655l-197 -545h-53zM973 592l-311 862l-312 -862h623z" />
    <glyph glyph-name="B" unicode="B" horiz-adv-x="1364" 
d="M215 1516h416q132 0 233.5 -19.5t170 -64.5t104 -118.5t35.5 -180.5q0 -89 -32 -151.5t-80 -104t-104.5 -65t-105.5 -32.5q36 -5 79 -15t86.5 -28.5t84.5 -47.5t73 -71t51 -98.5t19 -130.5q0 -90 -32.5 -162t-97 -122.5t-159.5 -77.5t-219 -27h-522v1516zM741 45
q112 0 197 24t142 69t85.5 108.5t28.5 142.5q0 180 -132.5 272.5t-375.5 92.5h-420v-709h475zM686 801q94 0 174 20.5t138.5 61.5t91 103.5t32.5 146.5q0 95 -31 159t-92.5 103t-152.5 56t-211 17h-369v-667h420z" />
    <glyph glyph-name="C" unicode="C" horiz-adv-x="1417" 
d="M754 -31q-138 0 -251.5 60.5t-194.5 168t-126 254t-45 318.5q0 169 45.5 311.5t126.5 245.5t191.5 161t240.5 58q118 0 204.5 -38t148.5 -101.5t103 -146t69 -170.5l-49 -17q-26 81 -62.5 158t-92.5 136.5t-134.5 95.5t-186.5 36q-120 0 -221.5 -55t-175 -152.5
t-115 -231t-41.5 -290.5q0 -160 41 -297.5t115.5 -239t178.5 -159.5t231 -58q78 0 141 19t112.5 52t87 76.5t66 93t48.5 101.5t34 101l49 -13q-11 -42 -30.5 -93.5t-49 -104.5t-71 -103t-98 -89.5t-128 -63t-161.5 -23.5z" />
    <glyph glyph-name="D" unicode="D" horiz-adv-x="1395" 
d="M213 1516h276q388 0 583.5 -188.5t195.5 -569.5t-195.5 -569.5t-583.5 -188.5h-276v1516zM494 47q362 0 542.5 176t180.5 535t-180.5 534.5t-542.5 175.5h-230v-1421h230z" />
    <glyph glyph-name="E" unicode="E" horiz-adv-x="1188" 
d="M213 1516h856v-48h-805v-639h610v-47h-610v-735h819v-47h-870v1516z" />
    <glyph glyph-name="F" unicode="F" horiz-adv-x="1145" 
d="M213 1516h838v-48h-787v-641h592v-47h-592v-780h-51v1516z" />
    <glyph glyph-name="G" unicode="G" horiz-adv-x="1448" 
d="M741 -31q-117 0 -226.5 50t-195 150.5t-137 251.5t-51.5 353q0 100 18 196.5t53 182.5t86.5 158t118.5 124t148.5 81.5t177.5 29.5q113 0 198 -36.5t148.5 -99.5t107.5 -147.5t75 -179.5l-50 -16q-32 93 -72 172t-96.5 137t-132.5 90.5t-178 32.5q-88 0 -163.5 -28
t-136.5 -77.5t-108 -117.5t-79 -148.5t-48 -170.5t-16 -183q0 -188 46.5 -330t124 -237t178.5 -143t210 -48q107 0 195.5 44t151.5 123.5t96 191.5t28 248h-403v47h455v-670h-52v334q-18 -67 -58.5 -132.5t-101 -117t-139 -83.5t-172.5 -32z" />
    <glyph glyph-name="H" unicode="H" horiz-adv-x="1479" 
d="M213 1516h51v-687h950v687h52v-1516h-52v782h-950v-782h-51v1516z" />
    <glyph glyph-name="I" unicode="I" horiz-adv-x="502" 
d="M225 1516h51v-1516h-51v1516z" />
    <glyph glyph-name="J" unicode="J" horiz-adv-x="995" 
d="M428 -31q-70 0 -126 20.5t-99.5 53t-74.5 73t-52 81.5l45 22q21 -41 49.5 -77.5t65.5 -64.5t84.5 -44.5t107.5 -16.5q156 0 235.5 90t79.5 271v1139h52v-1139q0 -104 -25.5 -180.5t-73 -127t-115.5 -75.5t-153 -25z" />
    <glyph glyph-name="K" unicode="K" horiz-adv-x="1311" 
d="M213 1516h51v-922l850 922h62l-529 -574l610 -942h-59l-584 905l-350 -379v-526h-51v1516z" />
    <glyph glyph-name="L" unicode="L" horiz-adv-x="1145" 
d="M213 1516h51v-1469h789v-47h-840v1516z" />
    <glyph glyph-name="M" unicode="M" horiz-adv-x="1757" 
d="M213 1516h47l619 -1453l618 1453h47v-1516h-51v1386l-590 -1386h-51l-590 1386v-1386h-49v1516z" />
    <glyph glyph-name="N" unicode="N" horiz-adv-x="1495" 
d="M213 1516h55l965 -1422v1422h49v-1516h-49l-971 1434v-1434h-49v1516z" />
    <glyph glyph-name="O" unicode="O" horiz-adv-x="1497" 
d="M748 -31q-133 0 -245 58t-193.5 162t-127 249.5t-45.5 319.5t45.5 319t127 249.5t193.5 162t245 57.5q131 0 243 -57.5t194 -162t128.5 -249.5t46.5 -319t-46.5 -319.5t-128.5 -249.5t-194 -162t-243 -58zM748 16q122 0 225 55t177.5 154t116.5 235t42 298t-42 298
t-116.5 234.5t-177.5 153.5t-225 55q-124 0 -227 -55t-177 -153.5t-115 -234.5t-41 -298t41 -298t115 -235t177 -154t227 -55z" />
    <glyph glyph-name="P" unicode="P" horiz-adv-x="1260" 
d="M213 1516h449q127 0 222 -29.5t158.5 -82t95 -124t31.5 -156.5q0 -84 -32 -155t-95.5 -122t-158.5 -79.5t-221 -28.5h-398v-739h-51v1516zM664 786q113 0 198 24.5t142 69.5t85.5 107t28.5 137t-28.5 138.5t-85.5 109t-142 71t-198 25.5h-400v-682h400z" />
    <glyph glyph-name="Q" unicode="Q" horiz-adv-x="1497" 
d="M1124 -352q-95 0 -170 18.5t-127 57.5t-79.5 100t-28.5 147q-128 6 -234.5 66t-184 163.5t-120.5 245.5t-43 312q0 174 45.5 319t127 249.5t193.5 162t245 57.5q131 0 243 -57.5t194 -162t128.5 -249.5t46.5 -319q0 -171 -44.5 -313t-123 -245.5t-187 -163t-235.5 -65.5
q1 -74 24.5 -126t68.5 -85.5t110.5 -49t150.5 -15.5h95v-47h-95zM748 16q122 0 225 55t177.5 154t116.5 235t42 298t-42 298t-116.5 234.5t-177.5 153.5t-225 55q-124 0 -227 -55t-177 -153.5t-115 -234.5t-41 -298t41 -298t115 -235t177 -154t227 -55z" />
    <glyph glyph-name="R" unicode="R" horiz-adv-x="1341" 
d="M213 1516h449q126 0 221 -29.5t158.5 -82t95.5 -124t32 -156.5q0 -77 -27 -142t-80.5 -114.5t-133.5 -81.5t-185 -41l431 -745h-60l-428 741h-422v-741h-51v1516zM664 786q113 0 198 24.5t142 69.5t85.5 107t28.5 137t-28.5 138.5t-85.5 109t-142 71t-198 25.5h-400v-682
h400z" />
    <glyph glyph-name="S" unicode="S" horiz-adv-x="1296" 
d="M670 -31q-131 0 -223 31.5t-156 86.5t-104 129.5t-66 160.5l49 16q26 -84 65 -153.5t97.5 -119t141 -77t196.5 -27.5q100 0 181 24t138 68.5t88 107.5t31 140q0 82 -22 142t-74 107.5t-136.5 86.5t-209.5 80q-130 42 -217.5 81t-140 86.5t-75 109.5t-22.5 151
q0 68 29 130.5t84.5 110.5t136 76.5t182.5 28.5q103 0 182.5 -28.5t138 -76.5t98.5 -111.5t64 -133.5l-49 -16q-25 70 -62.5 128.5t-90.5 101t-122.5 66t-158.5 23.5q-92 0 -162.5 -24.5t-119.5 -66t-74 -95.5t-25 -113q0 -78 21.5 -132.5t71 -97t130.5 -77.5t199 -74
q119 -38 208 -77t148.5 -90.5t89 -122.5t29.5 -173q0 -90 -36.5 -161.5t-101.5 -121.5t-155 -77t-196 -27z" />
    <glyph glyph-name="T" unicode="T" horiz-adv-x="1245" 
d="M598 1468h-518v48h1085v-48h-516v-1468h-51v1468z" />
    <glyph glyph-name="U" unicode="U" horiz-adv-x="1454" 
d="M725 -31q-124 0 -221 40.5t-164 111t-102 164t-35 200.5v1031h51v-1031q0 -96 32 -181.5t92.5 -149t148 -101t198.5 -37.5q109 0 197 36.5t149.5 99t95 144.5t33.5 173v1047h51v-1047q0 -101 -37.5 -192t-106 -159.5t-165.5 -108.5t-217 -40z" />
    <glyph glyph-name="V" unicode="V" horiz-adv-x="1337" 
d="M86 1516h55l529 -1455l528 1455h53l-555 -1524h-55z" />
    <glyph glyph-name="W" unicode="W" horiz-adv-x="1860" 
d="M94 1516h56l395 -1424l360 1424h53l396 -1424l360 1424h51l-385 -1516h-55l-393 1415l-361 -1415h-55z" />
    <glyph glyph-name="X" unicode="X" horiz-adv-x="1309" 
d="M623 815l-473 701h57l446 -660l445 660h55l-473 -699l553 -817h-57l-527 776l-524 -776h-55z" />
    <glyph glyph-name="Y" unicode="Y" horiz-adv-x="1223" 
d="M586 690l-516 826h55l487 -779l490 779h53l-518 -826v-690h-51v690z" />
    <glyph glyph-name="Z" unicode="Z" horiz-adv-x="1255" 
d="M96 47l991 1423h-937v46h995v-48l-987 -1423h981v-45h-1043v47z" />
    <glyph glyph-name="bracketleft" unicode="[" horiz-adv-x="760" 
d="M205 1516h432v-48h-381v-1830h381v-48h-432v1926z" />
    <glyph glyph-name="backslash" unicode="\" horiz-adv-x="1063" 
d="M80 1516h51l852 -1516h-51z" />
    <glyph glyph-name="bracketright" unicode="]" horiz-adv-x="760" 
d="M123 -362h381v1830h-381v48h432v-1926h-432v48z" />
    <glyph glyph-name="asciicircum" unicode="^" horiz-adv-x="1278" 
d="M614 1516h52l448 -756h-49l-426 719l-424 -719h-49z" />
    <glyph glyph-name="underscore" unicode="_" horiz-adv-x="1024" 
d="M0 -154h1024v-51h-1024v51z" />
    <glyph glyph-name="grave" unicode="`" horiz-adv-x="1024" 
d="M279 1501h88l217 -309h-33z" />
    <glyph glyph-name="a" unicode="a" horiz-adv-x="1081" 
d="M414 -27q-143 0 -221 67.5t-78 195.5q0 94 49.5 166.5t146 127.5t238 94.5t325.5 67.5v88q0 62 -15 112.5t-47 86t-81 55t-117 19.5q-76 0 -141 -17.5t-119 -44t-96 -59t-72 -62.5l-30 31q31 33 76 68t103 63.5t128 47t151 18.5q80 0 138 -22t96 -62.5t56 -99t18 -130.5
v-551q0 -51 1 -85.5t4 -60t7.5 -45.5t11.5 -42h-47q-7 19 -11 37t-7 39.5t-4.5 48.5t-2.5 65q-34 -35 -82.5 -73.5t-108 -70.5t-128 -52.5t-141.5 -20.5zM414 18q73 0 143 22.5t130.5 57t108.5 74t78 74.5v405q-203 -31 -339.5 -73.5t-219 -95t-118 -114.5t-35.5 -132
q0 -107 66.5 -162.5t185.5 -55.5z" />
    <glyph glyph-name="b" unicode="b" horiz-adv-x="1180" 
d="M610 -23q-65 0 -121 17.5t-103.5 46t-88 65.5t-74.5 76v-182h-47v1516h47v-619q26 31 65 66t88 65t108 50t126 20q97 0 179.5 -34.5t141.5 -104t92.5 -174.5t33.5 -246t-33 -246.5t-92.5 -175.5t-141.5 -105t-180 -35zM610 23q85 0 158.5 30.5t127 94t84 161t30.5 230.5
t-31.5 230t-86 160t-128.5 93.5t-158 30.5q-67 0 -126 -21.5t-107.5 -54t-86.5 -69t-63 -66.5v-602q49 -54 94.5 -94.5t91.5 -68t95 -41t106 -13.5z" />
    <glyph glyph-name="c" unicode="c" horiz-adv-x="1077" 
d="M561 -23q-100 0 -181 44.5t-138.5 121t-89 178t-31.5 216.5q0 145 39 251t102.5 175t145 102t165.5 33q76 0 134 -20t103 -58t79.5 -92.5t62.5 -122.5l-41 -21q-26 61 -56 111t-69.5 85t-91.5 54t-121 19q-77 0 -149.5 -31t-129.5 -94.5t-91.5 -160.5t-34.5 -230
q0 -104 27.5 -197t78.5 -163.5t123.5 -112t163.5 -41.5q68 0 121 18.5t95.5 54t77.5 87t67 118.5l41 -20q-36 -73 -75 -129.5t-86.5 -95.5t-106.5 -59t-134 -20z" />
    <glyph glyph-name="d" unicode="d" horiz-adv-x="1180" 
d="M571 -23q-98 0 -179.5 34.5t-141 104t-92.5 175t-33 246.5t33 246.5t92.5 175t141 104.5t179.5 35q65 0 121 -17.5t103.5 -46t87.5 -65.5t75 -76v623h48v-1283q0 -51 1 -85.5t4 -60t7.5 -45.5t11.5 -42h-47q-15 43 -20 89t-5 89q-26 -31 -64.5 -66t-88 -65t-108.5 -50
t-126 -20zM575 23q67 0 126 21.5t108 53.5t87 68.5t62 66.5v603q-49 54 -94.5 94.5t-91.5 67.5t-95 41t-106 14q-85 0 -158 -31t-126.5 -94.5t-84 -160.5t-30.5 -230t31.5 -230t86 -160t128 -93.5t157.5 -30.5z" />
    <glyph glyph-name="e" unicode="e" horiz-adv-x="1094" 
d="M557 -23q-108 0 -189.5 47.5t-137 126t-83.5 179t-28 205.5q0 145 39 251.5t102 176t142.5 103.5t160.5 34q84 0 159 -34.5t131.5 -103t89 -170.5t32.5 -237v-6h-809v-14q0 -96 25 -188t74 -164t122 -116t170 -44q64 0 119 20.5t102 55t86.5 79t73.5 92.5l37 -26
q-34 -48 -76 -95.5t-93.5 -85.5t-113.5 -62t-135 -24zM926 592q-5 113 -34.5 199.5t-78 145t-112.5 88.5t-138 30q-70 0 -137.5 -28.5t-122.5 -86.5t-91.5 -144.5t-43.5 -203.5h758z" />
    <glyph glyph-name="f" unicode="f" horiz-adv-x="625" 
d="M262 1030h-188v45h188v211q0 61 18.5 105t56.5 72.5t97.5 42t140.5 14.5v-45q-71 0 -121 -10t-82.5 -32t-47.5 -57t-15 -86v-215h258v-45h-258v-1030h-47v1030z" />
    <glyph glyph-name="g" unicode="g" horiz-adv-x="1135" 
d="M532 -410q-109 0 -197 15t-150.5 46.5t-96 79.5t-33.5 115q0 52 23.5 95.5t58.5 78t75 59.5t73 40q-59 15 -87 45t-28 86q0 46 37 88.5t96 73.5q-78 51 -122 131.5t-44 177.5q0 77 28 145.5t79.5 120t124.5 81.5t163 30q78 0 141.5 -22t112.5 -60q29 18 62.5 35t68 32
t68.5 26.5t66 16.5v-49q-30 -5 -62 -14.5t-62 -22t-57 -27t-47 -28.5q53 -51 81 -119t28 -145t-28.5 -144.5t-81 -118t-126 -79.5t-164.5 -29q-54 0 -102 10.5t-88 30.5q-62 -31 -93.5 -67.5t-31.5 -73.5q0 -32 15 -52.5t53.5 -33.5t104.5 -20t169 -13q104 -6 188.5 -20.5
t144 -43t92 -75.5t32.5 -117q0 -57 -31 -108.5t-92 -90.5t-151.5 -62.5t-209.5 -23.5zM532 -365q108 0 189.5 19t136.5 52t83 76.5t28 92.5q0 62 -34 101.5t-91.5 62.5t-132.5 33.5t-156 15.5q-65 3 -118 6.5t-95 11.5q-42 -16 -85 -41t-77.5 -58t-56 -73.5t-21.5 -87.5
q0 -57 32.5 -97.5t90 -65.5t136 -36.5t171.5 -11.5zM532 395q80 0 145 25.5t111.5 70t71.5 103.5t25 127q0 67 -25 127.5t-71.5 106t-111.5 72t-145 26.5t-144.5 -26.5t-109.5 -72t-69.5 -106t-24.5 -127.5q0 -68 24.5 -127t69.5 -103.5t109.5 -70t144.5 -25.5z" />
    <glyph glyph-name="h" unicode="h" horiz-adv-x="1153" 
d="M176 1516h47v-629q29 26 73.5 62t101.5 69t125 56.5t143 23.5q88 0 150.5 -23t102 -66.5t58 -106.5t18.5 -144v-758h-47v758q0 148 -68 221.5t-214 73.5q-63 0 -123 -18t-115.5 -48t-107 -70t-97.5 -83v-834h-47v1516z" />
    <glyph glyph-name="i" unicode="i" horiz-adv-x="420" 
d="M186 1075h47v-1075h-47v1075zM178 1442h66v-86h-66v86z" />
    <glyph glyph-name="j" unicode="j" horiz-adv-x="420" 
d="M94 -412q-18 0 -34 2t-25 4v46q12 -4 26.5 -6.5t28.5 -2.5q19 0 36.5 5t30.5 17.5t21 34.5t8 56v1331h47v-1321q0 -51 -13 -83.5t-33.5 -51t-45 -25t-47.5 -6.5zM178 1442h66v-86h-66v86z" />
    <glyph glyph-name="k" unicode="k" horiz-adv-x="1049" 
d="M176 1516h47v-1127l635 686h53l-356 -385l408 -690h-52l-387 655q-63 -67 -120 -129q-24 -26 -50 -53.5t-50 -53.5t-45 -49t-36 -40v-330h-47v1516z" />
    <glyph glyph-name="l" unicode="l" horiz-adv-x="420" 
d="M186 1516h47v-1516h-47v1516z" />
    <glyph glyph-name="m" unicode="m" horiz-adv-x="1860" 
d="M176 1075h47v-188q29 26 74 62t100.5 69t119.5 56.5t132 23.5q128 0 202.5 -58.5t98.5 -165.5q45 40 96.5 80t107 72t114.5 52t121 20q160 0 236.5 -89.5t76.5 -250.5v-758h-47v758q0 295 -266 295q-56 0 -112.5 -18t-111.5 -48.5t-107.5 -71.5t-99.5 -86q2 -17 3.5 -35
t1.5 -36v-758h-48v758q0 295 -266 295q-57 0 -113 -18t-110.5 -48t-105.5 -70t-97 -83v-834h-47v1075z" />
    <glyph glyph-name="n" unicode="n" horiz-adv-x="1153" 
d="M176 1075h47v-188q29 26 73.5 62t101.5 69t125 56.5t143 23.5q88 0 150.5 -23t102 -66.5t58 -106.5t18.5 -144v-758h-47v758q0 148 -68 221.5t-214 73.5q-63 0 -123 -18t-115.5 -48t-107 -70t-97.5 -83v-834h-47v1075z" />
    <glyph glyph-name="o" unicode="o" horiz-adv-x="1161" 
d="M580 -23q-93 0 -176.5 41.5t-146 115.5t-99.5 177t-37 226q0 126 36.5 229.5t99 177t146 114t177.5 40.5q91 0 174.5 -40.5t147 -114t101 -177t37.5 -229.5q0 -123 -37.5 -226t-101 -177t-147 -115.5t-174.5 -41.5zM580 23q84 0 159.5 38.5t131.5 106.5t89 162.5
t33 206.5q0 114 -33 209t-89 163.5t-131.5 106t-159.5 37.5q-86 0 -161 -37.5t-130.5 -106t-88 -163.5t-32.5 -209q0 -112 32.5 -206.5t88.5 -162.5t131 -106.5t160 -38.5z" />
    <glyph glyph-name="p" unicode="p" horiz-adv-x="1180" 
d="M176 1075h47v-178q26 31 65 66t88 65t108 50t126 20q97 0 179.5 -34.5t141.5 -104t92.5 -174.5t33.5 -246t-33 -246.5t-92.5 -175.5t-141.5 -105t-180 -35q-65 0 -121 17.5t-103.5 46t-88 65.5t-74.5 76v-592h-47v1485zM610 23q85 0 158.5 30.5t127 94t84 161t30.5 230.5
t-31.5 230t-86 160t-128.5 93.5t-158 30.5q-67 0 -126 -21.5t-107.5 -54t-86.5 -69t-63 -66.5v-602q49 -54 94.5 -94.5t91.5 -68t95 -41t106 -13.5z" />
    <glyph glyph-name="q" unicode="q" horiz-adv-x="1180" 
d="M956 178q-26 -31 -64.5 -66t-88 -65t-108.5 -50t-126 -20q-98 0 -179.5 34.5t-141 104t-92.5 175t-33 246.5t33 246.5t92 175t141 104.5t180 35q65 0 121 -17.5t103.5 -46t87.5 -65.5t75 -76v182h48v-1485h-48v588zM573 23q67 0 126 21.5t108 53.5t87 68.5t62 66.5v603
q-49 54 -94.5 94.5t-91.5 67.5t-95 41t-106 14q-85 0 -158 -31t-126.5 -94.5t-84 -160.5t-30.5 -230t31.5 -230t86 -160t128 -93.5t157.5 -30.5z" />
    <glyph glyph-name="r" unicode="r" horiz-adv-x="788" 
d="M176 1075h47v-246q42 64 91.5 116t106.5 87.5t122 52t139 9.5l39 -4l-8 -41l-39 4q-73 7 -137.5 -12.5t-121 -59t-104.5 -97t-88 -124.5v-760h-47v1075z" />
    <glyph glyph-name="s" unicode="s" horiz-adv-x="1024" 
d="M506 -23q-68 0 -126 15.5t-107 42.5t-88 62.5t-70 76.5l37 29q29 -37 65 -70t79.5 -57.5t95.5 -38.5t114 -14q78 0 141.5 17t108.5 49.5t69.5 79t24.5 105.5q0 62 -23.5 105.5t-69 75t-111.5 54.5t-150 44q-85 21 -150 44.5t-109.5 56.5t-67 79t-22.5 113q0 52 21.5 98
t64 80t105 54t143.5 20q72 0 129 -14t103 -36.5t81 -51.5t62 -60l-37 -29q-25 29 -57.5 55.5t-74 46.5t-93 32t-113.5 12q-76 0 -130 -17.5t-88.5 -46.5t-51 -66t-16.5 -77q0 -58 21 -97t61.5 -66.5t99 -47.5t133.5 -39q85 -21 156 -45.5t122.5 -60t80 -87.5t28.5 -129
q0 -68 -28.5 -123t-80 -93.5t-123.5 -59.5t-159 -21z" />
    <glyph glyph-name="t" unicode="t" horiz-adv-x="717" 
d="M485 -12q-65 0 -108 16t-68.5 47.5t-36 77t-10.5 104.5v797h-188v45h188v391h47v-391h301v-45h-301v-803q0 -47 8 -83t29 -61t56.5 -37.5t91.5 -12.5q32 0 59 3t61 9v-45q-26 -5 -63.5 -8.5t-65.5 -3.5z" />
    <glyph glyph-name="u" unicode="u" horiz-adv-x="1153" 
d="M487 -23q-88 0 -150.5 23t-102 66.5t-58 106.5t-18.5 144v758h47v-758q0 -148 68 -221t214 -73q63 0 123 18t115.5 48t107 69.5t97.5 83.5v833h47v-1075h-47v188q-29 -26 -73.5 -62t-101.5 -69t-125 -56.5t-143 -23.5z" />
    <glyph glyph-name="v" unicode="v" horiz-adv-x="1026" 
d="M76 1075h49l389 -1024l389 1024h47l-411 -1083h-52z" />
    <glyph glyph-name="w" unicode="w" horiz-adv-x="1524" 
d="M76 1075h47l326 -1009l290 1009h47l326 -1009l291 1009h45l-313 -1083h-45l-326 1009l-293 -1009h-45z" />
    <glyph glyph-name="x" unicode="x" horiz-adv-x="1022" 
d="M485 549l-368 526h51l342 -487l342 487h49l-369 -520l390 -555h-52l-362 516l-363 -516h-49z" />
    <glyph glyph-name="y" unicode="y" horiz-adv-x="1022" 
d="M160 -416q-78 0 -174 25l12 45q46 -12 86.5 -18.5t75.5 -6.5q106 0 167.5 48.5t98.5 146.5l63 166l-413 1085h49l389 -1020l385 1020h47l-479 -1268q-21 -57 -49 -98.5t-65 -69.5t-84.5 -41.5t-108.5 -13.5z" />
    <glyph glyph-name="z" unicode="z" horiz-adv-x="1022" 
d="M121 41l706 991h-669v43h725v-41l-707 -991h731v-43h-786v41z" />
    <glyph glyph-name="braceleft" unicode="{" horiz-adv-x="739" 
d="M555 -410q-61 0 -103 14.5t-68.5 42.5t-38 68.5t-11.5 91.5v533q0 51 -6.5 86.5t-30 58t-67.5 33t-119 10.5v50q76 0 120.5 10.5t67.5 33t29 58t6 86.5v532q0 52 11.5 92.5t38 68.5t68.5 42.5t103 14.5h84v-48h-84q-47 0 -79.5 -12t-52.5 -34t-29 -53.5t-9 -70.5v-532
q0 -48 -6 -84t-20.5 -62t-39 -42.5t-61.5 -24.5q37 -10 61.5 -26t39 -41.5t20.5 -61t6 -84.5v-533q0 -39 9 -70.5t29 -53t52.5 -33.5t79.5 -12h84v-48h-84v0z" />
    <glyph glyph-name="bar" unicode="|" horiz-adv-x="678" 
d="M313 1516h52v-1926h-52v1926z" />
    <glyph glyph-name="braceright" unicode="}" horiz-adv-x="739" 
d="M100 -362h84q47 0 79.5 12t52.5 33.5t29 53t9 70.5v533q0 48 6 84t20.5 61.5t39 42t61.5 25.5q-37 10 -61.5 26t-39 41.5t-20.5 61t-6 84.5v532q0 39 -9 70.5t-29 53.5t-52.5 34t-79.5 12h-84v48h84q61 0 103 -14.5t68.5 -42.5t38.5 -68.5t12 -92.5v-532q0 -51 6.5 -86.5
t29.5 -58t67.5 -33t119.5 -10.5v-50q-77 0 -121.5 -10.5t-67 -33t-28.5 -58t-6 -86.5v-533q0 -51 -12 -91.5t-38.5 -68.5t-68.5 -42.5t-103 -14.5h-84v48z" />
    <glyph glyph-name="asciitilde" unicode="~" horiz-adv-x="1278" 
d="M918 580q-30 0 -75.5 11t-98 28t-108.5 36.5t-107.5 36.5t-94.5 28t-69 11q-47 0 -78 -28t-37 -85l-47 3q5 81 52.5 119t119.5 38q28 0 72 -11t95.5 -28t106.5 -36.5t106 -36.5t92.5 -28t67.5 -11q48 0 78 21t33 77l49 -2q-6 -77 -47.5 -110t-109.5 -33z" />
    <glyph glyph-name="uni00A0" unicode="&#xa0;" horiz-adv-x="412" 
 />
    <glyph glyph-name="exclamdown" unicode="&#xa1;" horiz-adv-x="604" 
d="M285 1202h34l11 -1202h-56zM258 1516h88v-107h-88v107z" />
    <glyph glyph-name="cent" unicode="&#xa2;" horiz-adv-x="1077" 
d="M365 31q-57 33 -102.5 85t-77 118t-48 143t-16.5 160q0 145 39 251t102.5 175t145 102t165.5 33q19 0 36 -1t34 -3l55 213h43l-57 -222q49 -13 88.5 -38t71.5 -60.5t58.5 -81.5t49.5 -100l-41 -21q-21 49 -44 91t-51.5 75t-63.5 56t-80 34l-258 -985q34 -15 70.5 -23.5
t76.5 -8.5q68 0 121 18.5t95.5 54t77.5 87t67 118.5l41 -20q-36 -73 -75 -129.5t-86.5 -95.5t-106.5 -59t-134 -20q-43 0 -82.5 9t-77.5 24l-69 -272h-43zM631 1049q-13 2 -27.5 3t-30.5 1q-77 0 -149.5 -31t-129.5 -94.5t-91.5 -160.5t-34.5 -230q0 -74 14 -143t41 -129
t66 -108.5t88 -80.5z" />
    <glyph glyph-name="sterling" unicode="&#xa3;" horiz-adv-x="1200" 
d="M303 -31q-48 0 -87.5 14t-68 40t-44 62t-15.5 81q0 52 15.5 92t43.5 67t66.5 40.5t83.5 13.5q38 0 71 -10.5t62.5 -28.5t55.5 -42.5t51 -51.5q8 29 11 62t3 67q0 93 -28.5 196t-90.5 211h-254v47h228q-65 114 -92 208.5t-27 172.5q0 86 30 149.5t80 105t114.5 61.5
t133.5 20q64 0 116 -16t92.5 -43.5t69.5 -64.5t48.5 -79t29 -86.5t11.5 -87.5h-49q-3 55 -21 113.5t-56 106.5t-97.5 79t-143.5 31q-60 0 -115.5 -17t-98 -52.5t-68 -90t-25.5 -129.5t29.5 -169t95.5 -212h360v-47h-334q60 -108 86.5 -211t26.5 -196q0 -48 -6.5 -92
t-20.5 -84q28 -34 58.5 -66.5t65.5 -58t77 -41t94 -15.5q57 0 97 24.5t65 69.5t37 108.5t14 141.5h50q-2 -92 -18.5 -164.5t-48.5 -123t-81 -77t-115 -26.5q-54 0 -98.5 15t-82 39.5t-70 57t-62.5 67.5q-40 -85 -105 -133t-149 -48zM303 16q75 0 130.5 47t86.5 127l-6 7
q-23 26 -46.5 50.5t-49.5 43t-56 30t-65 11.5q-69 0 -113.5 -43t-44.5 -123q0 -68 45 -109t119 -41z" />
    <glyph glyph-name="yen" unicode="&#xa5;" horiz-adv-x="1223" 
d="M586 285h-416v47h416v260h-416v47h416v51l-516 826h55l487 -779l490 779h53l-518 -826v-51h420v-47h-420v-260h420v-47h-420v-285h-51v285z" />
    <glyph glyph-name="brokenbar" unicode="&#xa6;" horiz-adv-x="678" 
d="M313 352h52v-762h-52v762zM313 1516h52v-762h-52v762z" />
    <glyph glyph-name="section" unicode="&#xa7;" horiz-adv-x="1049" 
d="M522 -410q-88 0 -153.5 24t-112 65.5t-74.5 96t-41 115.5l49 13q12 -54 36 -102.5t64 -84.5t97 -57.5t135 -21.5q71 0 126 18t92.5 49t57 72.5t19.5 87.5q0 69 -23 119t-67.5 92t-109 81t-148.5 85q-75 41 -138 79t-108.5 78.5t-70.5 88t-25 108.5q0 63 24.5 115.5
t64 94.5t89.5 74.5t101 55.5q-55 34 -97 67.5t-70.5 72.5t-43.5 86t-15 108q0 55 23.5 105t67.5 87.5t108.5 59.5t146.5 22q88 0 154 -24t112 -65t74 -96t41 -116l-49 -12q-12 54 -36 102t-64 84.5t-97 58t-135 21.5q-71 0 -125.5 -18t-92.5 -49t-57.5 -72.5t-19.5 -87.5
q0 -69 23 -119.5t67.5 -92.5t109.5 -80.5t149 -84.5q75 -42 138 -79.5t108 -78.5t70.5 -88.5t25.5 -107.5q0 -63 -24.5 -115.5t-64.5 -94.5t-89.5 -74.5t-100.5 -55.5q54 -34 96 -67.5t70.5 -72.5t43.5 -86t15 -108q0 -56 -23.5 -105.5t-67.5 -87.5t-108.5 -60t-146.5 -22z
M594 227q54 22 104 52.5t88.5 69t61 86t22.5 104.5q0 54 -26 96.5t-69.5 78.5t-100.5 68.5t-119 67.5q-28 15 -52.5 29t-47.5 28q-55 -22 -105 -53t-88.5 -70t-61 -86t-22.5 -102q0 -54 26 -96.5t69.5 -78.5t101 -69t119.5 -67q27 -16 52 -30t48 -28z" />
    <glyph glyph-name="dieresis" unicode="&#xa8;" horiz-adv-x="1024" 
d="M328 1292h67v-100h-67v100zM629 1292h67v-100h-67v100z" />
    <glyph glyph-name="copyright" unicode="&#xa9;" horiz-adv-x="1765" 
d="M879 319q-81 0 -147 33.5t-112 93.5t-71 143.5t-25 184.5q0 94 25 176t71 142t112 94.5t147 34.5q127 0 203.5 -72.5t111.5 -202.5l-45 -12q-29 115 -93.5 178.5t-176.5 63.5q-72 0 -129.5 -31.5t-97.5 -86t-61.5 -127.5t-21.5 -157q0 -90 21.5 -165t61.5 -129
t97.5 -84.5t129.5 -30.5q109 0 181 65t101 186l45 -12q-35 -137 -118.5 -211t-208.5 -74zM883 -29q-108 0 -208.5 28t-187 79.5t-157.5 123.5t-122 159.5t-78.5 187.5t-27.5 209t27.5 209t78.5 187.5t122 159t157.5 123t186.5 79.5t209 28q108 0 208 -28t187 -79t158 -123
t121.5 -159.5t78 -188t27.5 -208.5t-27.5 -208.5t-78 -188t-121.5 -159.5t-158 -123.5t-187 -79.5t-208 -28zM883 16q102 0 196.5 26.5t176 75t148.5 116t114.5 150t73.5 177t26 197.5q0 102 -26 197t-73.5 177t-114.5 150t-148.5 116t-176 74.5t-196.5 26.5t-196.5 -26.5
t-176.5 -74.5t-149 -116t-114.5 -150t-73.5 -177t-26 -197t26 -197t73.5 -177.5t114.5 -150t149 -116t176 -75t197 -26.5z" />
    <glyph glyph-name="ordfeminine" unicode="&#xaa;" horiz-adv-x="819" 
d="M346 762q-105 0 -161 46.5t-56 133.5q0 54 21.5 100.5t80 86.5t161.5 72.5t265 58.5v57q0 40 -9.5 73.5t-30 57.5t-53 37.5t-77.5 13.5q-54 0 -99.5 -11t-83 -30t-68 -43t-54.5 -49l-32 33q27 27 60 53t74.5 46.5t92 33t110.5 12.5q58 0 99 -16t67.5 -46t39 -72t12.5 -93
v-373q0 -35 0.5 -59.5t3 -43t7.5 -34t13 -31.5h-51q-5 12 -8.5 23.5t-6 25.5t-4 32.5t-2.5 45.5q-28 -27 -63.5 -52.5t-75.5 -45t-83.5 -31.5t-88.5 -12zM346 807q85 0 165.5 40.5t145.5 108.5v261q-145 -23 -238.5 -50.5t-147.5 -61.5t-74.5 -74.5t-20.5 -88.5
q0 -135 170 -135z" />
    <glyph glyph-name="guillemotleft" unicode="&#xab;" horiz-adv-x="985" 
d="M127 539l293 536h51l-295 -536l295 -539h-51zM492 539l292 536h52l-295 -536l295 -539h-52z" />
    <glyph glyph-name="registered" unicode="&#xae;" horiz-adv-x="1169" 
d="M586 592q-100 0 -187 37.5t-151 102t-100.5 151.5t-36.5 186t36.5 186t100.5 151.5t151 102t187 37.5q99 0 185.5 -37.5t150 -102t100.5 -151.5t37 -186t-37 -186t-100.5 -151.5t-150 -102t-185.5 -37.5zM586 631q90 0 169.5 34.5t138 94t92.5 139t34 170.5t-34 170.5
t-92.5 139t-138 94t-169.5 34.5q-91 0 -170.5 -34.5t-138.5 -94t-93 -139t-34 -170.5t34 -170.5t93 -139t138.5 -94t170.5 -34.5zM428 1337h178q91 0 138 -38t47 -107t-41.5 -105.5t-112.5 -44.5l154 -239h-48l-149 237h-125v-237h-41v534zM602 1079q68 0 109 27t41 86
q0 53 -38.5 79.5t-107.5 26.5h-137v-219h133z" />
    <glyph glyph-name="macron" unicode="&#xaf;" horiz-adv-x="1024" 
d="M328 1241h368v-49h-368v49z" />
    <glyph glyph-name="degree" unicode="&#xb0;" horiz-adv-x="819" 
d="M410 991q-59 0 -109 21t-87 57.5t-58 87.5t-21 111t21 110.5t58 87t87 57.5t109 21q58 0 108 -21t87 -57.5t58 -87t21 -110.5t-21 -111t-58 -87.5t-87 -57.5t-108 -21zM410 1036q49 0 90.5 17.5t71.5 48t46.5 73t16.5 93.5t-16.5 93t-46.5 73t-71.5 48t-90.5 17
t-90.5 -17t-71.5 -48t-47 -73t-17 -93t17 -93.5t47 -73t71.5 -48t90.5 -17.5z" />
    <glyph glyph-name="plusminus" unicode="&#xb1;" horiz-adv-x="1294" 
d="M133 195h490v512h-490v45h490v483h51v-483h487v-45h-487v-512h487v-48h-1028v48z" />
    <glyph glyph-name="uni00B2" unicode="&#xb2;" horiz-adv-x="784" 
d="M121 666q0 67 11.5 115.5t45 91.5t94 87.5t158.5 104.5q49 30 84.5 57t58.5 54.5t34 56.5t11 63q0 48 -15.5 83.5t-44 59.5t-67.5 36t-85 12q-42 0 -78 -12.5t-65.5 -33.5t-51.5 -48t-35 -56l-43 19q15 34 41 66t61 56.5t78 39t93 14.5q57 0 105 -15t82.5 -44.5t53.5 -74
t19 -102.5q0 -41 -13 -76t-39 -66.5t-66.5 -62t-94.5 -63.5q-63 -38 -108 -68t-76 -55.5t-50.5 -49t-30.5 -48t-15 -52t-5 -61.5h496v-45h-543v17z" />
    <glyph glyph-name="uni00B3" unicode="&#xb3;" horiz-adv-x="764" 
d="M367 635q-63 0 -110.5 14.5t-82.5 38.5t-59 54.5t-41 62.5l41 20q15 -27 36 -53t51 -46.5t70.5 -33t94.5 -12.5q106 0 167.5 51.5t61.5 147.5q0 49 -12.5 89t-42.5 68t-80 43t-125 15h-55v45h51q57 0 103 8.5t78.5 28.5t49.5 53.5t17 83.5q0 81 -49 127.5t-158 46.5
q-42 0 -75 -9.5t-59.5 -25.5t-46 -37t-34.5 -43l-39 25q17 26 40.5 50.5t54.5 43t70.5 30t88.5 11.5q133 0 193.5 -58t60.5 -161q0 -84 -44 -131.5t-118 -63.5q45 -8 78 -30t55.5 -54t33.5 -72t11 -83q0 -59 -19 -104t-55 -76.5t-87 -47.5t-115 -16z" />
    <glyph glyph-name="acute" unicode="&#xb4;" horiz-adv-x="1024" 
d="M657 1501h88l-272 -309h-33z" />
    <glyph glyph-name="uni00B5" unicode="&#xb5;" horiz-adv-x="1153" 
d="M158 1075h47v-758q0 -148 68 -221t214 -73q63 0 123 18t115.5 48t107 69.5t97.5 83.5v833h47v-1075h-47v188q-29 -26 -73.5 -62t-101.5 -69t-125 -56.5t-143 -23.5q-108 0 -176.5 33t-105.5 96v-516h-47v1485z" />
    <glyph glyph-name="uni00B5" unicode="&#x3bc;" horiz-adv-x="1153" 
d="M158 1075h47v-758q0 -148 68 -221t214 -73q63 0 123 18t115.5 48t107 69.5t97.5 83.5v833h47v-1075h-47v188q-29 -26 -73.5 -62t-101.5 -69t-125 -56.5t-143 -23.5q-108 0 -176.5 33t-105.5 96v-516h-47v1485z" />
    <glyph glyph-name="paragraph" unicode="&#xb6;" horiz-adv-x="1210" 
d="M588 811q-102 -2 -182 20t-135 66.5t-84 111t-29 154.5q0 76 26.5 140.5t78 112t127.5 74t175 26.5h436v-1926h-51v1878h-311v-1878h-51v1221z" />
    <glyph glyph-name="periodcentered" unicode="&#xb7;" horiz-adv-x="522" 
d="M217 696h88v-106h-88v106z" />
    <glyph glyph-name="cedilla" unicode="&#xb8;" horiz-adv-x="1024" 
d="M518 -397q-63 0 -129 19.5t-119 58.5l25 34q49 -35 107.5 -52t115.5 -17q37 0 70 8t58 24t39.5 41t14.5 60q0 32 -27.5 55t-70.5 23q-25 0 -56.5 -11.5t-80.5 -46.5l-33 25l51 176h45l-45 -150q22 22 54.5 36t64.5 14q31 0 58 -9.5t46.5 -26t30.5 -38.5t11 -47
q0 -44 -18 -77t-49.5 -55t-73 -33t-89.5 -11z" />
    <glyph glyph-name="uni00B9" unicode="&#xb9;" horiz-adv-x="621" 
d="M123 694h184v774q-12 -10 -34 -18t-47 -14t-51.5 -9.5t-47.5 -3.5v45q63 0 112.5 12.5t69.5 35.5h45v-822h166v-45h-397v45z" />
    <glyph glyph-name="ordmasculine" unicode="&#xba;" horiz-adv-x="852" 
d="M426 760q-66 0 -126 28.5t-105 80t-72 123.5t-27 159q0 91 27 164t72 124t105 78t126 27t126 -27t105 -78t72 -124t27 -164q0 -87 -27 -159t-72 -123.5t-105 -80t-126 -28.5zM426 805q59 0 110.5 25t90 71t60.5 109.5t22 140.5q0 81 -22 145.5t-60.5 109.5t-90 69
t-110.5 24t-111 -24t-90 -69t-60 -109.5t-22 -145.5q0 -77 22 -140.5t60 -109.5t90 -71t111 -25z" />
    <glyph glyph-name="guillemotright" unicode="&#xbb;" horiz-adv-x="985" 
d="M444 537l-294 538h51l293 -538l-293 -537h-51zM809 537l-295 538h51l293 -538l-293 -537h-51z" />
    <glyph glyph-name="onequarter" unicode="&#xbc;" horiz-adv-x="1520" 
d="M82 694h184v774q-12 -10 -34 -18t-47 -14t-51.5 -9.5t-47.5 -3.5v45q63 0 112.5 12.5t69.5 35.5h45v-822h166v-45h-397v45zM1284 231h-438v43l446 590h37v-590h162v-43h-162v-231h-45v231zM1243 1516h51l-995 -1516h-51zM1284 274v512l-387 -512h387z" />
    <glyph glyph-name="onehalf" unicode="&#xbd;" horiz-adv-x="1579" 
d="M956 16q0 68 11.5 116.5t45 91.5t94.5 87.5t159 104.5q49 30 84.5 57t58.5 54.5t34 56.5t11 63q0 48 -15.5 83.5t-44 59.5t-67.5 36t-86 12q-42 0 -78 -12.5t-65 -33.5t-51 -48t-35 -56l-43 19q15 34 41 66t61 56.5t78 39t92 14.5q58 0 105.5 -15t82 -44.5t53.5 -74
t19 -102.5q0 -41 -13 -76t-39 -66.5t-66 -62t-95 -63.5q-94 -57 -149.5 -97t-85 -75.5t-39 -73t-10.5 -88.5h495v-45h-543v16zM1243 1516h51l-995 -1516h-51zM82 694h184v774q-12 -10 -34 -18t-47 -14t-51.5 -9.5t-47.5 -3.5v45q63 0 112.5 12.5t69.5 35.5h45v-822h166v-45
h-397v45z" />
    <glyph glyph-name="threequarters" unicode="&#xbe;" horiz-adv-x="1595" 
d="M326 635q-63 0 -110.5 14.5t-82.5 38.5t-59 54.5t-41 62.5l41 20q15 -27 36 -53t51 -46.5t70.5 -33t94.5 -12.5q106 0 167.5 51.5t61.5 147.5q0 49 -12.5 89t-42.5 68t-80 43t-125 15h-55v45h51q57 0 103 8.5t78.5 28.5t49.5 53.5t17 83.5q0 81 -49 127.5t-158 46.5
q-42 0 -75 -9.5t-59.5 -25.5t-46 -37t-34.5 -43l-39 25q17 26 40.5 50.5t54.5 43t70.5 30t88.5 11.5q133 0 193.5 -58t60.5 -161q0 -84 -44 -131.5t-118 -63.5q45 -8 78 -30t55.5 -54t33.5 -72t11 -83q0 -59 -19 -104t-55 -76.5t-87 -47.5t-115 -16zM1360 231h-438v43
l446 590h37v-590h162v-43h-162v-231h-45v231zM1319 1516h51l-995 -1516h-51zM1360 274v512l-387 -512h387z" />
    <glyph glyph-name="questiondown" unicode="&#xbf;" horiz-adv-x="1067" 
d="M537 -31q-95 0 -172 25.5t-131 73.5t-83.5 116.5t-29.5 153.5q0 74 19.5 127t55.5 95t86.5 78t112.5 75q47 29 79.5 56t54 56t34 62.5t18.5 76t7.5 96.5t1.5 124h51q0 -77 -2 -135.5t-9 -104.5t-21.5 -81.5t-38.5 -66.5t-60.5 -59.5t-87.5 -60.5q-57 -35 -103 -67.5
t-79 -70.5t-50.5 -86t-17.5 -114q0 -75 26.5 -134.5t74.5 -101t115 -64t149 -22.5q71 0 133 21.5t112 55t87 75t59 80.5l43 -25q-25 -44 -66 -89t-96.5 -82t-124 -60t-147.5 -23zM571 1516h88v-107h-88v107z" />
    <glyph glyph-name="Agrave" unicode="&#xc0;" horiz-adv-x="1325" 
d="M635 1524h55l551 -1524h-55l-197 545h-655l-197 -545h-53zM973 592l-311 862l-312 -862h623zM429 1921h88l217 -309h-33z" />
    <glyph glyph-name="Aacute" unicode="&#xc1;" horiz-adv-x="1325" 
d="M635 1524h55l551 -1524h-55l-197 545h-655l-197 -545h-53zM973 592l-311 862l-312 -862h623zM807 1921h88l-272 -309h-33z" />
    <glyph glyph-name="Acircumflex" unicode="&#xc2;" horiz-adv-x="1325" 
d="M635 1524h55l551 -1524h-55l-197 545h-655l-197 -545h-53zM973 592l-311 862l-312 -862h623zM646 1921h32l281 -319h-43l-256 254l-252 -254h-43z" />
    <glyph glyph-name="Atilde" unicode="&#xc3;" horiz-adv-x="1325" 
d="M635 1524h55l551 -1524h-55l-197 545h-655l-197 -545h-53zM973 592l-311 862l-312 -862h623zM357 1612q0 91 34.5 131.5t108.5 40.5q42 0 84.5 -20t87.5 -46q40 -23 78.5 -42t73.5 -19q52 0 74 30.5t22 96.5h47q0 -91 -34.5 -131.5t-108.5 -40.5q-42 0 -86.5 21.5
t-87.5 46.5q-38 21 -76.5 40t-73.5 19q-52 0 -74 -30.5t-22 -96.5h-47v0z" />
    <glyph glyph-name="Adieresis" unicode="&#xc4;" horiz-adv-x="1325" 
d="M635 1524h55l551 -1524h-55l-197 545h-655l-197 -545h-53zM973 592l-311 862l-312 -862h623zM478 1712h67v-100h-67v100zM779 1712h67v-100h-67v100z" />
    <glyph glyph-name="Aring" unicode="&#xc5;" horiz-adv-x="1325" 
d="M616 1468q-60 16 -97.5 62.5t-37.5 111.5q0 38 14 70.5t38 56t57 37t72 13.5q38 0 71 -13.5t57 -37t38 -56t14 -70.5q0 -32 -10 -60.5t-27.5 -51t-42 -38t-53.5 -22.5l532 -1470h-55l-197 545h-655l-197 -545h-53zM662 1509q29 0 53.5 10t42 27.5t27.5 42t10 53.5
q0 28 -10 52.5t-27.5 42t-42 27.5t-53.5 10t-53.5 -10t-42.5 -27.5t-28 -42t-10 -52.5q0 -29 10 -53.5t28 -42t42.5 -27.5t53.5 -10zM973 592l-311 862l-312 -862h623z" />
    <glyph glyph-name="AE" unicode="&#xc6;" horiz-adv-x="1991" 
d="M987 1516h885v-48h-805v-641h610v-47h-610v-733h819v-47h-870v547h-551l-324 -547h-53zM1016 594v881l-522 -881h522z" />
    <glyph glyph-name="Ccedilla" unicode="&#xc7;" horiz-adv-x="1417" 
d="M754 -31q-138 0 -251.5 60.5t-194.5 168t-126 254t-45 318.5q0 169 45.5 311.5t126.5 245.5t191.5 161t240.5 58q118 0 204.5 -38t148.5 -101.5t103 -146t69 -170.5l-49 -17q-26 81 -62.5 158t-92.5 136.5t-134.5 95.5t-186.5 36q-120 0 -221.5 -55t-175 -152.5
t-115 -231t-41.5 -290.5q0 -160 41 -297.5t115.5 -239t178.5 -159.5t231 -58q78 0 141 19t112.5 52t87 76.5t66 93t48.5 101.5t34 101l49 -13q-11 -42 -30.5 -93.5t-49 -104.5t-71 -103t-98 -89.5t-128 -63t-161.5 -23.5zM715 -397q-63 0 -129 19.5t-119 58.5l25 34
q49 -35 107.5 -52t115.5 -17q37 0 70 8t58 24t39.5 41t14.5 60q0 32 -27.5 55t-70.5 23q-25 0 -56.5 -11.5t-80.5 -46.5l-33 25l51 176h45l-45 -150q22 22 54.5 36t64.5 14q31 0 58 -9.5t46.5 -26t30.5 -38.5t11 -47q0 -44 -18 -77t-49.5 -55t-73 -33t-89.5 -11z" />
    <glyph glyph-name="Egrave" unicode="&#xc8;" horiz-adv-x="1188" 
d="M213 1516h856v-48h-805v-639h610v-47h-610v-735h819v-47h-870v1516zM422 1921h88l217 -309h-33z" />
    <glyph glyph-name="Eacute" unicode="&#xc9;" horiz-adv-x="1188" 
d="M213 1516h856v-48h-805v-639h610v-47h-610v-735h819v-47h-870v1516zM739 1921h88l-272 -309h-33z" />
    <glyph glyph-name="Ecircumflex" unicode="&#xca;" horiz-adv-x="1188" 
d="M213 1516h856v-48h-805v-639h610v-47h-610v-735h819v-47h-870v1516zM639 1921h32l281 -319h-43l-256 254l-252 -254h-43z" />
    <glyph glyph-name="Edieresis" unicode="&#xcb;" horiz-adv-x="1188" 
d="M213 1516h856v-48h-805v-639h610v-47h-610v-735h819v-47h-870v1516zM471 1712h67v-100h-67v100zM772 1712h67v-100h-67v100z" />
    <glyph glyph-name="Igrave" unicode="&#xcc;" horiz-adv-x="502" 
d="M225 1516h51v-1516h-51v1516zM-33 1921h88l217 -309h-33z" />
    <glyph glyph-name="Iacute" unicode="&#xcd;" horiz-adv-x="502" 
d="M225 1516h51v-1516h-51v1516zM447 1921h88l-272 -309h-33z" />
    <glyph glyph-name="Icircumflex" unicode="&#xce;" horiz-adv-x="502" 
d="M225 1516h51v-1516h-51v1516zM235 1921h32l281 -319h-43l-256 254l-252 -254h-43z" />
    <glyph glyph-name="Idieresis" unicode="&#xcf;" horiz-adv-x="502" 
d="M225 1516h51v-1516h-51v1516zM67 1712h67v-100h-67v100zM368 1712h67v-100h-67v100z" />
    <glyph glyph-name="Eth" unicode="&#xd0;" horiz-adv-x="1395" 
d="M213 766h-164v47h164v703h276q388 0 583.5 -188.5t195.5 -569.5t-195.5 -569.5t-583.5 -188.5h-276v766zM494 47q362 0 542.5 176t180.5 535t-180.5 534.5t-542.5 175.5h-230v-655h281v-47h-281v-719h230z" />
    <glyph glyph-name="Ntilde" unicode="&#xd1;" horiz-adv-x="1495" 
d="M213 1516h55l965 -1422v1422h49v-1516h-49l-971 1434v-1434h-49v1516zM443 1612q0 91 34.5 131.5t108.5 40.5q42 0 84.5 -20t87.5 -46q40 -23 78.5 -42t73.5 -19q52 0 74 30.5t22 96.5h47q0 -91 -34.5 -131.5t-108.5 -40.5q-42 0 -86.5 21.5t-87.5 46.5q-38 21 -76.5 40
t-73.5 19q-52 0 -74 -30.5t-22 -96.5h-47v0z" />
    <glyph glyph-name="Ograve" unicode="&#xd2;" horiz-adv-x="1497" 
d="M748 -31q-133 0 -245 58t-193.5 162t-127 249.5t-45.5 319.5t45.5 319t127 249.5t193.5 162t245 57.5q131 0 243 -57.5t194 -162t128.5 -249.5t46.5 -319t-46.5 -319.5t-128.5 -249.5t-194 -162t-243 -58zM748 16q122 0 225 55t177.5 154t116.5 235t42 298t-42 298
t-116.5 234.5t-177.5 153.5t-225 55q-124 0 -227 -55t-177 -153.5t-115 -234.5t-41 -298t41 -298t115 -235t177 -154t227 -55zM515 1921h88l217 -309h-33z" />
    <glyph glyph-name="Oacute" unicode="&#xd3;" horiz-adv-x="1497" 
d="M748 -31q-133 0 -245 58t-193.5 162t-127 249.5t-45.5 319.5t45.5 319t127 249.5t193.5 162t245 57.5q131 0 243 -57.5t194 -162t128.5 -249.5t46.5 -319t-46.5 -319.5t-128.5 -249.5t-194 -162t-243 -58zM748 16q122 0 225 55t177.5 154t116.5 235t42 298t-42 298
t-116.5 234.5t-177.5 153.5t-225 55q-124 0 -227 -55t-177 -153.5t-115 -234.5t-41 -298t41 -298t115 -235t177 -154t227 -55zM893 1921h88l-272 -309h-33z" />
    <glyph glyph-name="Ocircumflex" unicode="&#xd4;" horiz-adv-x="1497" 
d="M748 -31q-133 0 -245 58t-193.5 162t-127 249.5t-45.5 319.5t45.5 319t127 249.5t193.5 162t245 57.5q131 0 243 -57.5t194 -162t128.5 -249.5t46.5 -319t-46.5 -319.5t-128.5 -249.5t-194 -162t-243 -58zM748 16q122 0 225 55t177.5 154t116.5 235t42 298t-42 298
t-116.5 234.5t-177.5 153.5t-225 55q-124 0 -227 -55t-177 -153.5t-115 -234.5t-41 -298t41 -298t115 -235t177 -154t227 -55zM732 1921h32l281 -319h-43l-256 254l-252 -254h-43z" />
    <glyph glyph-name="Otilde" unicode="&#xd5;" horiz-adv-x="1497" 
d="M748 -31q-133 0 -245 58t-193.5 162t-127 249.5t-45.5 319.5t45.5 319t127 249.5t193.5 162t245 57.5q131 0 243 -57.5t194 -162t128.5 -249.5t46.5 -319t-46.5 -319.5t-128.5 -249.5t-194 -162t-243 -58zM748 16q122 0 225 55t177.5 154t116.5 235t42 298t-42 298
t-116.5 234.5t-177.5 153.5t-225 55q-124 0 -227 -55t-177 -153.5t-115 -234.5t-41 -298t41 -298t115 -235t177 -154t227 -55zM443 1612q0 91 34.5 131.5t108.5 40.5q42 0 84.5 -20t87.5 -46q40 -23 78.5 -42t73.5 -19q52 0 74 30.5t22 96.5h47q0 -91 -34.5 -131.5
t-108.5 -40.5q-42 0 -86.5 21.5t-87.5 46.5q-38 21 -76.5 40t-73.5 19q-52 0 -74 -30.5t-22 -96.5h-47v0z" />
    <glyph glyph-name="Odieresis" unicode="&#xd6;" horiz-adv-x="1497" 
d="M748 -31q-133 0 -245 58t-193.5 162t-127 249.5t-45.5 319.5t45.5 319t127 249.5t193.5 162t245 57.5q131 0 243 -57.5t194 -162t128.5 -249.5t46.5 -319t-46.5 -319.5t-128.5 -249.5t-194 -162t-243 -58zM748 16q122 0 225 55t177.5 154t116.5 235t42 298t-42 298
t-116.5 234.5t-177.5 153.5t-225 55q-124 0 -227 -55t-177 -153.5t-115 -234.5t-41 -298t41 -298t115 -235t177 -154t227 -55zM564 1712h67v-100h-67v100zM865 1712h67v-100h-67v100z" />
    <glyph glyph-name="multiply" unicode="&#xd7;" horiz-adv-x="1278" 
d="M262 319l342 345l-342 344l33 32l344 -344l342 344l33 -32l-344 -342l344 -344l-33 -33l-344 342l-344 -342z" />
    <glyph glyph-name="Oslash" unicode="&#xd8;" horiz-adv-x="1497" 
d="M170 -6l141 192q-83 107 -128.5 251t-45.5 321q0 174 45.5 319t127 249.5t193.5 162t245 57.5q121 0 226.5 -49.5t186.5 -140.5l139 190l37 -24l-147 -201q80 -105 125 -247.5t45 -315.5q0 -174 -46.5 -319.5t-128.5 -249.5t-194 -162t-243 -58q-121 0 -224.5 48
t-183.5 135l-133 -183zM1130 1315q-74 88 -170.5 136t-211.5 48q-124 0 -227 -55t-177 -153.5t-115 -234.5t-41 -298q0 -161 40 -295.5t114 -233.5zM748 16q122 0 225 55t177.5 154t116.5 235t42 298q0 158 -39.5 289.5t-110.5 230.5l-788 -1085q72 -84 168 -130.5
t209 -46.5z" />
    <glyph glyph-name="Ugrave" unicode="&#xd9;" horiz-adv-x="1454" 
d="M725 -31q-124 0 -221 40.5t-164 111t-102 164t-35 200.5v1031h51v-1031q0 -96 32 -181.5t92.5 -149t148 -101t198.5 -37.5q109 0 197 36.5t149.5 99t95 144.5t33.5 173v1047h51v-1047q0 -101 -37.5 -192t-106 -159.5t-165.5 -108.5t-217 -40zM494 1921h88l217 -309h-33z
" />
    <glyph glyph-name="Uacute" unicode="&#xda;" horiz-adv-x="1454" 
d="M725 -31q-124 0 -221 40.5t-164 111t-102 164t-35 200.5v1031h51v-1031q0 -96 32 -181.5t92.5 -149t148 -101t198.5 -37.5q109 0 197 36.5t149.5 99t95 144.5t33.5 173v1047h51v-1047q0 -101 -37.5 -192t-106 -159.5t-165.5 -108.5t-217 -40zM872 1921h88l-272 -309h-33z
" />
    <glyph glyph-name="Ucircumflex" unicode="&#xdb;" horiz-adv-x="1454" 
d="M725 -31q-124 0 -221 40.5t-164 111t-102 164t-35 200.5v1031h51v-1031q0 -96 32 -181.5t92.5 -149t148 -101t198.5 -37.5q109 0 197 36.5t149.5 99t95 144.5t33.5 173v1047h51v-1047q0 -101 -37.5 -192t-106 -159.5t-165.5 -108.5t-217 -40zM711 1921h32l281 -319h-43
l-256 254l-252 -254h-43z" />
    <glyph glyph-name="Udieresis" unicode="&#xdc;" horiz-adv-x="1454" 
d="M725 -31q-124 0 -221 40.5t-164 111t-102 164t-35 200.5v1031h51v-1031q0 -96 32 -181.5t92.5 -149t148 -101t198.5 -37.5q109 0 197 36.5t149.5 99t95 144.5t33.5 173v1047h51v-1047q0 -101 -37.5 -192t-106 -159.5t-165.5 -108.5t-217 -40zM543 1712h67v-100h-67v100z
M844 1712h67v-100h-67v100z" />
    <glyph glyph-name="Yacute" unicode="&#xdd;" horiz-adv-x="1223" 
d="M586 690l-516 826h55l487 -779l490 779h53l-518 -826v-690h-51v690zM755 1921h88l-272 -309h-33z" />
    <glyph glyph-name="Thorn" unicode="&#xde;" horiz-adv-x="1249" 
d="M213 1516h51v-275h398q127 0 222 -29.5t158.5 -81.5t95 -124t31.5 -156t-32 -155t-95.5 -122t-158.5 -79.5t-221 -28.5h-398v-465h-51v1516zM664 512q113 0 198 24.5t142 69t85.5 107t28.5 137.5t-28.5 138.5t-85.5 109t-142 71t-198 25.5h-400v-682h400z" />
    <glyph glyph-name="germandbls" unicode="&#xdf;" horiz-adv-x="1188" 
d="M717 -18q-57 0 -102 10.5t-81 27t-63.5 37t-48.5 39.5l29 33q20 -18 45 -36t57 -32.5t72.5 -24t91.5 -9.5q72 0 130 26t99.5 76t63.5 122.5t22 166.5q0 104 -37.5 182t-102 129.5t-151 78t-184.5 28.5v45q92 0 157 25t105.5 65t59 90t18.5 100q0 78 -26.5 135.5t-72 95.5
t-106 57t-127.5 19q-79 0 -142.5 -25.5t-107.5 -75.5t-68 -123.5t-24 -170.5v-1073h-47v1073q0 109 28 191.5t79 137.5t123 83t159 28q77 0 146 -22t120.5 -65.5t82 -110t30.5 -154.5q0 -48 -16 -96.5t-49 -90t-84 -72t-121 -42.5q92 -12 167 -47.5t128 -92.5t81.5 -133.5
t28.5 -168.5q0 -106 -26 -187.5t-73.5 -136.5t-114.5 -83.5t-148 -28.5z" />
    <glyph glyph-name="agrave" unicode="&#xe0;" horiz-adv-x="1081" 
d="M414 -27q-143 0 -221 67.5t-78 195.5q0 94 49.5 166.5t146 127.5t238 94.5t325.5 67.5v88q0 62 -15 112.5t-47 86t-81 55t-117 19.5q-76 0 -141 -17.5t-119 -44t-96 -59t-72 -62.5l-30 31q31 33 76 68t103 63.5t128 47t151 18.5q80 0 138 -22t96 -62.5t56 -99t18 -130.5
v-551q0 -51 1 -85.5t4 -60t7.5 -45.5t11.5 -42h-47q-7 19 -11 37t-7 39.5t-4.5 48.5t-2.5 65q-34 -35 -82.5 -73.5t-108 -70.5t-128 -52.5t-141.5 -20.5zM414 18q73 0 143 22.5t130.5 57t108.5 74t78 74.5v405q-203 -31 -339.5 -73.5t-219 -95t-118 -114.5t-35.5 -132
q0 -107 66.5 -162.5t185.5 -55.5zM308 1501h88l217 -309h-33z" />
    <glyph glyph-name="aacute" unicode="&#xe1;" horiz-adv-x="1081" 
d="M414 -27q-143 0 -221 67.5t-78 195.5q0 94 49.5 166.5t146 127.5t238 94.5t325.5 67.5v88q0 62 -15 112.5t-47 86t-81 55t-117 19.5q-76 0 -141 -17.5t-119 -44t-96 -59t-72 -62.5l-30 31q31 33 76 68t103 63.5t128 47t151 18.5q80 0 138 -22t96 -62.5t56 -99t18 -130.5
v-551q0 -51 1 -85.5t4 -60t7.5 -45.5t11.5 -42h-47q-7 19 -11 37t-7 39.5t-4.5 48.5t-2.5 65q-34 -35 -82.5 -73.5t-108 -70.5t-128 -52.5t-141.5 -20.5zM414 18q73 0 143 22.5t130.5 57t108.5 74t78 74.5v405q-203 -31 -339.5 -73.5t-219 -95t-118 -114.5t-35.5 -132
q0 -107 66.5 -162.5t185.5 -55.5zM686 1501h88l-272 -309h-33z" />
    <glyph glyph-name="acircumflex" unicode="&#xe2;" horiz-adv-x="1081" 
d="M414 -27q-143 0 -221 67.5t-78 195.5q0 94 49.5 166.5t146 127.5t238 94.5t325.5 67.5v88q0 62 -15 112.5t-47 86t-81 55t-117 19.5q-76 0 -141 -17.5t-119 -44t-96 -59t-72 -62.5l-30 31q31 33 76 68t103 63.5t128 47t151 18.5q80 0 138 -22t96 -62.5t56 -99t18 -130.5
v-551q0 -51 1 -85.5t4 -60t7.5 -45.5t11.5 -42h-47q-7 19 -11 37t-7 39.5t-4.5 48.5t-2.5 65q-34 -35 -82.5 -73.5t-108 -70.5t-128 -52.5t-141.5 -20.5zM414 18q73 0 143 22.5t130.5 57t108.5 74t78 74.5v405q-203 -31 -339.5 -73.5t-219 -95t-118 -114.5t-35.5 -132
q0 -107 66.5 -162.5t185.5 -55.5zM525 1501h32l281 -319h-43l-256 254l-252 -254h-43z" />
    <glyph glyph-name="atilde" unicode="&#xe3;" horiz-adv-x="1081" 
d="M414 -27q-143 0 -221 67.5t-78 195.5q0 94 49.5 166.5t146 127.5t238 94.5t325.5 67.5v88q0 62 -15 112.5t-47 86t-81 55t-117 19.5q-76 0 -141 -17.5t-119 -44t-96 -59t-72 -62.5l-30 31q31 33 76 68t103 63.5t128 47t151 18.5q80 0 138 -22t96 -62.5t56 -99t18 -130.5
v-551q0 -51 1 -85.5t4 -60t7.5 -45.5t11.5 -42h-47q-7 19 -11 37t-7 39.5t-4.5 48.5t-2.5 65q-34 -35 -82.5 -73.5t-108 -70.5t-128 -52.5t-141.5 -20.5zM414 18q73 0 143 22.5t130.5 57t108.5 74t78 74.5v405q-203 -31 -339.5 -73.5t-219 -95t-118 -114.5t-35.5 -132
q0 -107 66.5 -162.5t185.5 -55.5zM236 1192q0 91 34.5 131.5t108.5 40.5q42 0 84.5 -20t87.5 -46q40 -23 78.5 -42t73.5 -19q52 0 74 30.5t22 96.5h47q0 -91 -34.5 -131.5t-108.5 -40.5q-42 0 -86.5 21.5t-87.5 46.5q-38 21 -76.5 40t-73.5 19q-52 0 -74 -30.5t-22 -96.5
h-47v0z" />
    <glyph glyph-name="adieresis" unicode="&#xe4;" horiz-adv-x="1081" 
d="M414 -27q-143 0 -221 67.5t-78 195.5q0 94 49.5 166.5t146 127.5t238 94.5t325.5 67.5v88q0 62 -15 112.5t-47 86t-81 55t-117 19.5q-76 0 -141 -17.5t-119 -44t-96 -59t-72 -62.5l-30 31q31 33 76 68t103 63.5t128 47t151 18.5q80 0 138 -22t96 -62.5t56 -99t18 -130.5
v-551q0 -51 1 -85.5t4 -60t7.5 -45.5t11.5 -42h-47q-7 19 -11 37t-7 39.5t-4.5 48.5t-2.5 65q-34 -35 -82.5 -73.5t-108 -70.5t-128 -52.5t-141.5 -20.5zM414 18q73 0 143 22.5t130.5 57t108.5 74t78 74.5v405q-203 -31 -339.5 -73.5t-219 -95t-118 -114.5t-35.5 -132
q0 -107 66.5 -162.5t185.5 -55.5zM357 1292h67v-100h-67v100zM658 1292h67v-100h-67v100z" />
    <glyph glyph-name="aring" unicode="&#xe5;" horiz-adv-x="1081" 
d="M414 -27q-143 0 -221 67.5t-78 195.5q0 94 49.5 166.5t146 127.5t238 94.5t325.5 67.5v88q0 62 -15 112.5t-47 86t-81 55t-117 19.5q-76 0 -141 -17.5t-119 -44t-96 -59t-72 -62.5l-30 31q31 33 76 68t103 63.5t128 47t151 18.5q80 0 138 -22t96 -62.5t56 -99t18 -130.5
v-551q0 -51 1 -85.5t4 -60t7.5 -45.5t11.5 -42h-47q-7 19 -11 37t-7 39.5t-4.5 48.5t-2.5 65q-34 -35 -82.5 -73.5t-108 -70.5t-128 -52.5t-141.5 -20.5zM414 18q73 0 143 22.5t130.5 57t108.5 74t78 74.5v405q-203 -31 -339.5 -73.5t-219 -95t-118 -114.5t-35.5 -132
q0 -107 66.5 -162.5t185.5 -55.5zM541 1196q-38 0 -71 13.5t-57 37.5t-38 56.5t-14 70.5t14 70t38 55.5t57 37t71 13.5t71 -13.5t57 -37t38 -55.5t14 -70t-14 -70.5t-38 -56.5t-57 -37.5t-71 -13.5zM541 1241q59 0 96 37t37 96q0 28 -10 52.5t-27.5 41.5t-42 27t-53.5 10
t-53.5 -10t-42 -27t-27.5 -41.5t-10 -52.5q0 -59 37 -96t96 -37z" />
    <glyph glyph-name="ae" unicode="&#xe6;" horiz-adv-x="1849" 
d="M414 -27q-143 0 -221 67.5t-78 195.5q0 94 49.5 166.5t146 127.5t238 94.5t325.5 67.5v88q0 62 -15 112.5t-47 86t-81 55t-117 19.5q-76 0 -141 -17.5t-119 -44t-96 -59t-72 -62.5l-30 31q31 33 76 68t103 63.5t128 47t151 18.5q78 0 134.5 -21.5t93.5 -61t56 -95.5
t22 -125q28 76 71.5 133.5t96 95.5t112 57t119.5 19q84 0 159 -34.5t131.5 -103t89 -170.5t32.5 -237v-6h-809v-14q0 -96 25 -188t74 -164t122 -116t170 -44q64 0 119 20.5t102 55t86.5 79t73.5 92.5l37 -26q-34 -48 -76.5 -95.5t-94 -85.5t-113 -62t-134.5 -24
q-69 0 -127.5 20t-106 56t-84 85t-61.5 108q-45 -51 -102.5 -100.5t-124 -87.5t-141 -61.5t-152.5 -23.5zM414 18q74 0 144.5 22t134.5 58.5t120 85.5t102 103q-20 57 -30.5 120t-10.5 128v116q-203 -31 -339.5 -73t-219 -94.5t-118 -115t-35.5 -132.5q0 -107 66.5 -162.5
t185.5 -55.5zM1681 592q-5 113 -34 199.5t-77.5 145t-112.5 88.5t-138 30q-70 0 -137.5 -28.5t-122.5 -86.5t-91.5 -144.5t-43.5 -203.5h757z" />
    <glyph glyph-name="ccedilla" unicode="&#xe7;" horiz-adv-x="1077" 
d="M561 -23q-100 0 -181 44.5t-138.5 121t-89 178t-31.5 216.5q0 145 39 251t102.5 175t145 102t165.5 33q76 0 134 -20t103 -58t79.5 -92.5t62.5 -122.5l-41 -21q-26 61 -56 111t-69.5 85t-91.5 54t-121 19q-77 0 -149.5 -31t-129.5 -94.5t-91.5 -160.5t-34.5 -230
q0 -104 27.5 -197t78.5 -163.5t123.5 -112t163.5 -41.5q68 0 121 18.5t95.5 54t77.5 87t67 118.5l41 -20q-36 -73 -75 -129.5t-86.5 -95.5t-106.5 -59t-134 -20zM545 -397q-63 0 -129 19.5t-119 58.5l25 34q49 -35 107.5 -52t115.5 -17q37 0 70 8t58 24t39.5 41t14.5 60
q0 32 -27.5 55t-70.5 23q-25 0 -56.5 -11.5t-80.5 -46.5l-33 25l51 176h45l-45 -150q22 22 54.5 36t64.5 14q31 0 58 -9.5t46.5 -26t30.5 -38.5t11 -47q0 -44 -18 -77t-49.5 -55t-73 -33t-89.5 -11z" />
    <glyph glyph-name="egrave" unicode="&#xe8;" horiz-adv-x="1094" 
d="M557 -23q-108 0 -189.5 47.5t-137 126t-83.5 179t-28 205.5q0 145 39 251.5t102 176t142.5 103.5t160.5 34q84 0 159 -34.5t131.5 -103t89 -170.5t32.5 -237v-6h-809v-14q0 -96 25 -188t74 -164t122 -116t170 -44q64 0 119 20.5t102 55t86.5 79t73.5 92.5l37 -26
q-34 -48 -76 -95.5t-93.5 -85.5t-113.5 -62t-135 -24zM926 592q-5 113 -34.5 199.5t-78 145t-112.5 88.5t-138 30q-70 0 -137.5 -28.5t-122.5 -86.5t-91.5 -144.5t-43.5 -203.5h758zM314 1501h88l217 -309h-33z" />
    <glyph glyph-name="eacute" unicode="&#xe9;" horiz-adv-x="1094" 
d="M557 -23q-108 0 -189.5 47.5t-137 126t-83.5 179t-28 205.5q0 145 39 251.5t102 176t142.5 103.5t160.5 34q84 0 159 -34.5t131.5 -103t89 -170.5t32.5 -237v-6h-809v-14q0 -96 25 -188t74 -164t122 -116t170 -44q64 0 119 20.5t102 55t86.5 79t73.5 92.5l37 -26
q-34 -48 -76 -95.5t-93.5 -85.5t-113.5 -62t-135 -24zM926 592q-5 113 -34.5 199.5t-78 145t-112.5 88.5t-138 30q-70 0 -137.5 -28.5t-122.5 -86.5t-91.5 -144.5t-43.5 -203.5h758zM692 1501h88l-272 -309h-33z" />
    <glyph glyph-name="ecircumflex" unicode="&#xea;" horiz-adv-x="1094" 
d="M557 -23q-108 0 -189.5 47.5t-137 126t-83.5 179t-28 205.5q0 145 39 251.5t102 176t142.5 103.5t160.5 34q84 0 159 -34.5t131.5 -103t89 -170.5t32.5 -237v-6h-809v-14q0 -96 25 -188t74 -164t122 -116t170 -44q64 0 119 20.5t102 55t86.5 79t73.5 92.5l37 -26
q-34 -48 -76 -95.5t-93.5 -85.5t-113.5 -62t-135 -24zM926 592q-5 113 -34.5 199.5t-78 145t-112.5 88.5t-138 30q-70 0 -137.5 -28.5t-122.5 -86.5t-91.5 -144.5t-43.5 -203.5h758zM531 1501h32l281 -319h-43l-256 254l-252 -254h-43z" />
    <glyph glyph-name="edieresis" unicode="&#xeb;" horiz-adv-x="1094" 
d="M557 -23q-108 0 -189.5 47.5t-137 126t-83.5 179t-28 205.5q0 145 39 251.5t102 176t142.5 103.5t160.5 34q84 0 159 -34.5t131.5 -103t89 -170.5t32.5 -237v-6h-809v-14q0 -96 25 -188t74 -164t122 -116t170 -44q64 0 119 20.5t102 55t86.5 79t73.5 92.5l37 -26
q-34 -48 -76 -95.5t-93.5 -85.5t-113.5 -62t-135 -24zM926 592q-5 113 -34.5 199.5t-78 145t-112.5 88.5t-138 30q-70 0 -137.5 -28.5t-122.5 -86.5t-91.5 -144.5t-43.5 -203.5h758zM363 1292h67v-100h-67v100zM664 1292h67v-100h-67v100z" />
    <glyph glyph-name="igrave" unicode="&#xec;" horiz-adv-x="420" 
d="M186 1075h47v-1075h-47v1075zM-74 1501h88l217 -309h-33z" />
    <glyph glyph-name="iacute" unicode="&#xed;" horiz-adv-x="420" 
d="M186 1075h47v-1075h-47v1075zM406 1501h88l-272 -309h-33z" />
    <glyph glyph-name="icircumflex" unicode="&#xee;" horiz-adv-x="420" 
d="M186 1075h47v-1075h-47v1075zM194 1501h32l281 -319h-43l-256 254l-252 -254h-43z" />
    <glyph glyph-name="idieresis" unicode="&#xef;" horiz-adv-x="420" 
d="M186 1075h47v-1075h-47v1075zM26 1292h67v-100h-67v100zM327 1292h67v-100h-67v100z" />
    <glyph glyph-name="eth" unicode="&#xf0;" horiz-adv-x="1161" 
d="M580 -23q-93 0 -176.5 41.5t-146 115.5t-99.5 177t-37 226q0 126 36.5 229.5t99 177t146 114t177.5 40.5q53 0 105 -14.5t100 -42t89 -68.5t72 -94q-37 115 -98.5 222.5t-142.5 203.5l-197 -93l-19 39l185 86q-38 42 -80.5 80.5t-87.5 73.5l24 33q51 -41 96.5 -82
t86.5 -86l227 104l16 -39l-213 -98q147 -171 222 -367.5t75 -418.5q0 -123 -37.5 -226t-101 -177t-147 -115.5t-174.5 -41.5zM580 23q84 0 159.5 38.5t131.5 106.5t89 162.5t33 206.5q0 114 -33 209t-89 163.5t-131.5 106t-159.5 37.5q-86 0 -161 -37.5t-130.5 -106
t-88 -163.5t-32.5 -209q0 -112 32.5 -206.5t88.5 -162.5t131 -106.5t160 -38.5z" />
    <glyph glyph-name="ntilde" unicode="&#xf1;" horiz-adv-x="1153" 
d="M176 1075h47v-188q29 26 73.5 62t101.5 69t125 56.5t143 23.5q88 0 150.5 -23t102 -66.5t58 -106.5t18.5 -144v-758h-47v758q0 148 -68 221.5t-214 73.5q-63 0 -123 -18t-115.5 -48t-107 -70t-97.5 -83v-834h-47v1075zM270 1192q0 91 34.5 131.5t108.5 40.5
q42 0 84.5 -20t87.5 -46q40 -23 78.5 -42t73.5 -19q52 0 74 30.5t22 96.5h47q0 -91 -34.5 -131.5t-108.5 -40.5q-42 0 -86.5 21.5t-87.5 46.5q-38 21 -76.5 40t-73.5 19q-52 0 -74 -30.5t-22 -96.5h-47v0z" />
    <glyph glyph-name="ograve" unicode="&#xf2;" horiz-adv-x="1161" 
d="M580 -23q-93 0 -176.5 41.5t-146 115.5t-99.5 177t-37 226q0 126 36.5 229.5t99 177t146 114t177.5 40.5q91 0 174.5 -40.5t147 -114t101 -177t37.5 -229.5q0 -123 -37.5 -226t-101 -177t-147 -115.5t-174.5 -41.5zM580 23q84 0 159.5 38.5t131.5 106.5t89 162.5
t33 206.5q0 114 -33 209t-89 163.5t-131.5 106t-159.5 37.5q-86 0 -161 -37.5t-130.5 -106t-88 -163.5t-32.5 -209q0 -112 32.5 -206.5t88.5 -162.5t131 -106.5t160 -38.5zM347 1501h88l217 -309h-33z" />
    <glyph glyph-name="oacute" unicode="&#xf3;" horiz-adv-x="1161" 
d="M580 -23q-93 0 -176.5 41.5t-146 115.5t-99.5 177t-37 226q0 126 36.5 229.5t99 177t146 114t177.5 40.5q91 0 174.5 -40.5t147 -114t101 -177t37.5 -229.5q0 -123 -37.5 -226t-101 -177t-147 -115.5t-174.5 -41.5zM580 23q84 0 159.5 38.5t131.5 106.5t89 162.5
t33 206.5q0 114 -33 209t-89 163.5t-131.5 106t-159.5 37.5q-86 0 -161 -37.5t-130.5 -106t-88 -163.5t-32.5 -209q0 -112 32.5 -206.5t88.5 -162.5t131 -106.5t160 -38.5zM725 1501h88l-272 -309h-33z" />
    <glyph glyph-name="ocircumflex" unicode="&#xf4;" horiz-adv-x="1161" 
d="M580 -23q-93 0 -176.5 41.5t-146 115.5t-99.5 177t-37 226q0 126 36.5 229.5t99 177t146 114t177.5 40.5q91 0 174.5 -40.5t147 -114t101 -177t37.5 -229.5q0 -123 -37.5 -226t-101 -177t-147 -115.5t-174.5 -41.5zM580 23q84 0 159.5 38.5t131.5 106.5t89 162.5
t33 206.5q0 114 -33 209t-89 163.5t-131.5 106t-159.5 37.5q-86 0 -161 -37.5t-130.5 -106t-88 -163.5t-32.5 -209q0 -112 32.5 -206.5t88.5 -162.5t131 -106.5t160 -38.5zM564 1501h32l281 -319h-43l-256 254l-252 -254h-43z" />
    <glyph glyph-name="otilde" unicode="&#xf5;" horiz-adv-x="1161" 
d="M580 -23q-93 0 -176.5 41.5t-146 115.5t-99.5 177t-37 226q0 126 36.5 229.5t99 177t146 114t177.5 40.5q91 0 174.5 -40.5t147 -114t101 -177t37.5 -229.5q0 -123 -37.5 -226t-101 -177t-147 -115.5t-174.5 -41.5zM580 23q84 0 159.5 38.5t131.5 106.5t89 162.5
t33 206.5q0 114 -33 209t-89 163.5t-131.5 106t-159.5 37.5q-86 0 -161 -37.5t-130.5 -106t-88 -163.5t-32.5 -209q0 -112 32.5 -206.5t88.5 -162.5t131 -106.5t160 -38.5zM275 1192q0 91 34.5 131.5t108.5 40.5q42 0 84.5 -20t87.5 -46q40 -23 78.5 -42t73.5 -19
q52 0 74 30.5t22 96.5h47q0 -91 -34.5 -131.5t-108.5 -40.5q-42 0 -86.5 21.5t-87.5 46.5q-38 21 -76.5 40t-73.5 19q-52 0 -74 -30.5t-22 -96.5h-47v0z" />
    <glyph glyph-name="odieresis" unicode="&#xf6;" horiz-adv-x="1161" 
d="M580 -23q-93 0 -176.5 41.5t-146 115.5t-99.5 177t-37 226q0 126 36.5 229.5t99 177t146 114t177.5 40.5q91 0 174.5 -40.5t147 -114t101 -177t37.5 -229.5q0 -123 -37.5 -226t-101 -177t-147 -115.5t-174.5 -41.5zM580 23q84 0 159.5 38.5t131.5 106.5t89 162.5
t33 206.5q0 114 -33 209t-89 163.5t-131.5 106t-159.5 37.5q-86 0 -161 -37.5t-130.5 -106t-88 -163.5t-32.5 -209q0 -112 32.5 -206.5t88.5 -162.5t131 -106.5t160 -38.5zM396 1292h67v-100h-67v100zM697 1292h67v-100h-67v100z" />
    <glyph glyph-name="divide" unicode="&#xf7;" horiz-adv-x="1284" 
d="M133 688h1018v-47h-1018v47zM598 1069h86v-117h-86v117zM598 375h86v-117h-86v117z" />
    <glyph glyph-name="oslash" unicode="&#xf8;" horiz-adv-x="1161" 
d="M223 -68l84 152q-41 37 -75.5 85t-59 105.5t-38 123.5t-13.5 139q0 126 36.5 229.5t99 177t146 114t177.5 40.5q66 0 128.5 -21t116.5 -63l74 135l37 -21l-78 -141q82 -72 132 -187t50 -263q0 -123 -37.5 -226t-101 -177t-147 -115.5t-174.5 -41.5q-65 0 -126 21t-114 59
l-80 -145zM803 975q-50 37 -105.5 57.5t-117.5 20.5q-86 0 -161 -37.5t-130.5 -106t-88 -163.5t-32.5 -209q0 -132 43.5 -238t118.5 -174zM580 23q84 0 159.5 38.5t131.5 106.5t89 162.5t33 206.5q0 133 -42.5 237.5t-114.5 173.5l-474 -852q48 -35 103 -54t115 -19z" />
    <glyph glyph-name="ugrave" unicode="&#xf9;" horiz-adv-x="1153" 
d="M487 -23q-88 0 -150.5 23t-102 66.5t-58 106.5t-18.5 144v758h47v-758q0 -148 68 -221t214 -73q63 0 123 18t115.5 48t107 69.5t97.5 83.5v833h47v-1075h-47v188q-29 -26 -73.5 -62t-101.5 -69t-125 -56.5t-143 -23.5zM342 1501h88l217 -309h-33z" />
    <glyph glyph-name="uacute" unicode="&#xfa;" horiz-adv-x="1153" 
d="M487 -23q-88 0 -150.5 23t-102 66.5t-58 106.5t-18.5 144v758h47v-758q0 -148 68 -221t214 -73q63 0 123 18t115.5 48t107 69.5t97.5 83.5v833h47v-1075h-47v188q-29 -26 -73.5 -62t-101.5 -69t-125 -56.5t-143 -23.5zM720 1501h88l-272 -309h-33z" />
    <glyph glyph-name="ucircumflex" unicode="&#xfb;" horiz-adv-x="1153" 
d="M487 -23q-88 0 -150.5 23t-102 66.5t-58 106.5t-18.5 144v758h47v-758q0 -148 68 -221t214 -73q63 0 123 18t115.5 48t107 69.5t97.5 83.5v833h47v-1075h-47v188q-29 -26 -73.5 -62t-101.5 -69t-125 -56.5t-143 -23.5zM559 1501h32l281 -319h-43l-256 254l-252 -254h-43z
" />
    <glyph glyph-name="udieresis" unicode="&#xfc;" horiz-adv-x="1153" 
d="M487 -23q-88 0 -150.5 23t-102 66.5t-58 106.5t-18.5 144v758h47v-758q0 -148 68 -221t214 -73q63 0 123 18t115.5 48t107 69.5t97.5 83.5v833h47v-1075h-47v188q-29 -26 -73.5 -62t-101.5 -69t-125 -56.5t-143 -23.5zM391 1292h67v-100h-67v100zM692 1292h67v-100h-67
v100z" />
    <glyph glyph-name="yacute" unicode="&#xfd;" horiz-adv-x="1022" 
d="M160 -416q-78 0 -174 25l12 45q46 -12 86.5 -18.5t75.5 -6.5q106 0 167.5 48.5t98.5 146.5l63 166l-413 1085h49l389 -1020l385 1020h47l-479 -1268q-21 -57 -49 -98.5t-65 -69.5t-84.5 -41.5t-108.5 -13.5zM656 1501h88l-272 -309h-33z" />
    <glyph glyph-name="thorn" unicode="&#xfe;" horiz-adv-x="1180" 
d="M176 1516h47v-619q26 31 65 66t88 65t108 50t126 20q97 0 179.5 -34.5t141.5 -104t92.5 -174.5t33.5 -246t-33 -246.5t-92.5 -175.5t-141.5 -105t-180 -35q-65 0 -121 17.5t-103.5 46t-88 65.5t-74.5 76v-592h-47v1926zM610 23q85 0 158.5 30.5t127 94t84 161t30.5 230.5
t-31.5 230t-86 160t-128.5 93.5t-158 30.5q-67 0 -126 -21.5t-107.5 -54t-86.5 -69t-63 -66.5v-602q49 -54 94.5 -94.5t91.5 -68t95 -41t106 -13.5z" />
    <glyph glyph-name="ydieresis" unicode="&#xff;" horiz-adv-x="1022" 
d="M160 -416q-78 0 -174 25l12 45q46 -12 86.5 -18.5t75.5 -6.5q106 0 167.5 48.5t98.5 146.5l63 166l-413 1085h49l389 -1020l385 1020h47l-479 -1268q-21 -57 -49 -98.5t-65 -69.5t-84.5 -41.5t-108.5 -13.5zM327 1292h67v-100h-67v100zM628 1292h67v-100h-67v100z" />
    <glyph glyph-name="Amacron" unicode="&#x100;" horiz-adv-x="1325" 
d="M635 1524h55l551 -1524h-55l-197 545h-655l-197 -545h-53zM973 592l-311 862l-312 -862h623zM478 1661h368v-49h-368v49z" />
    <glyph glyph-name="amacron" unicode="&#x101;" horiz-adv-x="1081" 
d="M414 -27q-143 0 -221 67.5t-78 195.5q0 94 49.5 166.5t146 127.5t238 94.5t325.5 67.5v88q0 62 -15 112.5t-47 86t-81 55t-117 19.5q-76 0 -141 -17.5t-119 -44t-96 -59t-72 -62.5l-30 31q31 33 76 68t103 63.5t128 47t151 18.5q80 0 138 -22t96 -62.5t56 -99t18 -130.5
v-551q0 -51 1 -85.5t4 -60t7.5 -45.5t11.5 -42h-47q-7 19 -11 37t-7 39.5t-4.5 48.5t-2.5 65q-34 -35 -82.5 -73.5t-108 -70.5t-128 -52.5t-141.5 -20.5zM414 18q73 0 143 22.5t130.5 57t108.5 74t78 74.5v405q-203 -31 -339.5 -73.5t-219 -95t-118 -114.5t-35.5 -132
q0 -107 66.5 -162.5t185.5 -55.5zM357 1241h368v-49h-368v49z" />
    <glyph glyph-name="Abreve" unicode="&#x102;" horiz-adv-x="1325" 
d="M635 1524h55l551 -1524h-55l-197 545h-655l-197 -545h-53zM973 592l-311 862l-312 -862h623zM666 1610q-56 0 -107 22.5t-90.5 64.5t-64.5 102.5t-29 136.5h39q4 -66 25.5 -118t56 -88t78.5 -55.5t92 -19.5t91 19.5t75.5 55.5t53 88t24.5 118h39q-4 -76 -27.5 -136.5
t-61.5 -102.5t-88 -64.5t-106 -22.5z" />
    <glyph glyph-name="abreve" unicode="&#x103;" horiz-adv-x="1081" 
d="M414 -27q-143 0 -221 67.5t-78 195.5q0 94 49.5 166.5t146 127.5t238 94.5t325.5 67.5v88q0 62 -15 112.5t-47 86t-81 55t-117 19.5q-76 0 -141 -17.5t-119 -44t-96 -59t-72 -62.5l-30 31q31 33 76 68t103 63.5t128 47t151 18.5q80 0 138 -22t96 -62.5t56 -99t18 -130.5
v-551q0 -51 1 -85.5t4 -60t7.5 -45.5t11.5 -42h-47q-7 19 -11 37t-7 39.5t-4.5 48.5t-2.5 65q-34 -35 -82.5 -73.5t-108 -70.5t-128 -52.5t-141.5 -20.5zM414 18q73 0 143 22.5t130.5 57t108.5 74t78 74.5v405q-203 -31 -339.5 -73.5t-219 -95t-118 -114.5t-35.5 -132
q0 -107 66.5 -162.5t185.5 -55.5zM545 1190q-56 0 -107 22.5t-90.5 64.5t-64.5 102.5t-29 136.5h39q4 -66 25.5 -118t56 -88t78.5 -55.5t92 -19.5t91 19.5t75.5 55.5t53 88t24.5 118h39q-4 -76 -27.5 -136.5t-61.5 -102.5t-88 -64.5t-106 -22.5z" />
    <glyph glyph-name="Aogonek" unicode="&#x104;" horiz-adv-x="1325" 
d="M635 1524h55l551 -1524h-6q-27 -17 -59 -39q-34 -24 -62.5 -53t-47.5 -64.5t-19 -76.5q0 -28 10.5 -48t29 -33t43.5 -19.5t54 -6.5q42 0 85 11t87 34l18 -35q-49 -26 -97 -37.5t-93 -11.5q-41 0 -75 9.5t-58.5 28t-38 45.5t-13.5 63q0 37 15.5 72t42 65.5t59.5 56.5
q33 25 68 44l-195 540h-655l-197 -545h-53zM973 592l-311 862l-312 -862h623z" />
    <glyph glyph-name="aogonek" unicode="&#x105;" horiz-adv-x="1081" 
d="M414 -27q-143 0 -221 67.5t-78 195.5q0 94 49.5 166.5t146 127.5t238 94.5t325.5 67.5v88q0 62 -15 112.5t-47 86t-81 55t-117 19.5q-76 0 -141 -17.5t-119 -44t-96 -59t-72 -62.5l-30 31q31 33 76 68t103 63.5t128 47t151 18.5q80 0 138 -22t96 -62.5t56 -99t18 -130.5
v-551q0 -51 1 -85.5t4 -60t7.5 -45.5t11.5 -42h-10q-28 -16 -58 -36q-35 -24 -64.5 -54t-49 -66t-19.5 -77q0 -28 10.5 -48t29 -33t44 -19.5t54.5 -6.5q42 0 85 11t87 34l18 -35q-49 -26 -97 -37.5t-93 -11.5q-41 0 -75 9.5t-58.5 28t-38 45.5t-13.5 63q0 37 16.5 73t45 68
t65.5 60q33 24 70 43q-4 13 -7 26q-4 18 -7 39.5t-4.5 48.5t-2.5 65q-34 -35 -82.5 -73.5t-108 -70.5t-128 -52.5t-141.5 -20.5zM414 18q73 0 143 22.5t130.5 57t108.5 74t78 74.5v405q-203 -31 -339.5 -73.5t-219 -95t-118 -114.5t-35.5 -132q0 -107 66.5 -162.5
t185.5 -55.5z" />
    <glyph glyph-name="Cacute" unicode="&#x106;" horiz-adv-x="1417" 
d="M754 -31q-138 0 -251.5 60.5t-194.5 168t-126 254t-45 318.5q0 169 45.5 311.5t126.5 245.5t191.5 161t240.5 58q118 0 204.5 -38t148.5 -101.5t103 -146t69 -170.5l-49 -17q-26 81 -62.5 158t-92.5 136.5t-134.5 95.5t-186.5 36q-120 0 -221.5 -55t-175 -152.5
t-115 -231t-41.5 -290.5q0 -160 41 -297.5t115.5 -239t178.5 -159.5t231 -58q78 0 141 19t112.5 52t87 76.5t66 93t48.5 101.5t34 101l49 -13q-11 -42 -30.5 -93.5t-49 -104.5t-71 -103t-98 -89.5t-128 -63t-161.5 -23.5zM854 1921h88l-272 -309h-33z" />
    <glyph glyph-name="cacute" unicode="&#x107;" horiz-adv-x="1077" 
d="M561 -23q-100 0 -181 44.5t-138.5 121t-89 178t-31.5 216.5q0 145 39 251t102.5 175t145 102t165.5 33q76 0 134 -20t103 -58t79.5 -92.5t62.5 -122.5l-41 -21q-26 61 -56 111t-69.5 85t-91.5 54t-121 19q-77 0 -149.5 -31t-129.5 -94.5t-91.5 -160.5t-34.5 -230
q0 -104 27.5 -197t78.5 -163.5t123.5 -112t163.5 -41.5q68 0 121 18.5t95.5 54t77.5 87t67 118.5l41 -20q-36 -73 -75 -129.5t-86.5 -95.5t-106.5 -59t-134 -20zM684 1501h88l-272 -309h-33z" />
    <glyph glyph-name="Ccaron" unicode="&#x10c;" horiz-adv-x="1417" 
d="M754 -31q-138 0 -251.5 60.5t-194.5 168t-126 254t-45 318.5q0 169 45.5 311.5t126.5 245.5t191.5 161t240.5 58q118 0 204.5 -38t148.5 -101.5t103 -146t69 -170.5l-49 -17q-26 81 -62.5 158t-92.5 136.5t-134.5 95.5t-186.5 36q-120 0 -221.5 -55t-175 -152.5
t-115 -231t-41.5 -290.5q0 -160 41 -297.5t115.5 -239t178.5 -159.5t231 -58q78 0 141 19t112.5 52t87 76.5t66 93t48.5 101.5t34 101l49 -13q-11 -42 -30.5 -93.5t-49 -104.5t-71 -103t-98 -89.5t-128 -63t-161.5 -23.5zM412 1931h43l256 -254l252 254h43l-281 -319h-32z
" />
    <glyph glyph-name="ccaron" unicode="&#x10d;" horiz-adv-x="1077" 
d="M561 -23q-100 0 -181 44.5t-138.5 121t-89 178t-31.5 216.5q0 145 39 251t102.5 175t145 102t165.5 33q76 0 134 -20t103 -58t79.5 -92.5t62.5 -122.5l-41 -21q-26 61 -56 111t-69.5 85t-91.5 54t-121 19q-77 0 -149.5 -31t-129.5 -94.5t-91.5 -160.5t-34.5 -230
q0 -104 27.5 -197t78.5 -163.5t123.5 -112t163.5 -41.5q68 0 121 18.5t95.5 54t77.5 87t67 118.5l41 -20q-36 -73 -75 -129.5t-86.5 -95.5t-106.5 -59t-134 -20zM242 1511h43l256 -254l252 254h43l-281 -319h-32z" />
    <glyph glyph-name="Dcaron" unicode="&#x10e;" horiz-adv-x="1395" 
d="M213 1516h276q388 0 583.5 -188.5t195.5 -569.5t-195.5 -569.5t-583.5 -188.5h-276v1516zM494 47q362 0 542.5 176t180.5 535t-180.5 534.5t-542.5 175.5h-230v-1421h230zM399 1931h43l256 -254l252 254h43l-281 -319h-32z" />
    <glyph glyph-name="dcaron" unicode="&#x10f;" horiz-adv-x="1180" 
d="M1186 1413h-37v103h76v-91l-35 -172h-33zM571 -23q-98 0 -179.5 34.5t-141 104t-92.5 175t-33 246.5t33 246.5t92.5 175t141 104.5t179.5 35q65 0 121 -17.5t103.5 -46t87.5 -65.5t75 -76v623h48v-1283q0 -51 1 -85.5t4 -60t7.5 -45.5t11.5 -42h-47q-15 43 -20 89t-5 89
q-26 -31 -64.5 -66t-88 -65t-108.5 -50t-126 -20zM575 23q67 0 126 21.5t108 53.5t87 68.5t62 66.5v603q-49 54 -94.5 94.5t-91.5 67.5t-95 41t-106 14q-85 0 -158 -31t-126.5 -94.5t-84 -160.5t-30.5 -230t31.5 -230t86 -160t128 -93.5t157.5 -30.5z" />
    <glyph glyph-name="Dcroat" unicode="&#x110;" horiz-adv-x="1395" 
d="M213 766h-164v47h164v703h276q388 0 583.5 -188.5t195.5 -569.5t-195.5 -569.5t-583.5 -188.5h-276v766zM494 47q362 0 542.5 176t180.5 535t-180.5 534.5t-542.5 175.5h-230v-655h281v-47h-281v-719h230z" />
    <glyph glyph-name="dcroat" unicode="&#x111;" horiz-adv-x="1180" 
d="M700 1274h258v242h48v-242h188v-45h-188v-996q0 -51 1 -85.5t4 -60t7.5 -45.5t11.5 -42h-47q-15 43 -20 89t-5 89q-26 -31 -64.5 -66t-88 -65t-108.5 -50t-126 -20q-98 0 -179.5 34.5t-141 104t-92.5 175t-33 246.5t33 246.5t92.5 175t141 104.5t179.5 35q65 0 121 -17.5
t103.5 -46t87.5 -65.5t75 -76v336h-258v45zM575 23q67 0 126 21.5t108 53.5t87 68.5t62 66.5v603q-49 54 -94.5 94.5t-91.5 67.5t-95 41t-106 14q-85 0 -158 -31t-126.5 -94.5t-84 -160.5t-30.5 -230t31.5 -230t86 -160t128 -93.5t157.5 -30.5z" />
    <glyph glyph-name="Emacron" unicode="&#x112;" horiz-adv-x="1188" 
d="M213 1516h856v-48h-805v-639h610v-47h-610v-735h819v-47h-870v1516zM410 1661h368v-49h-368v49z" />
    <glyph glyph-name="emacron" unicode="&#x113;" horiz-adv-x="1094" 
d="M557 -23q-108 0 -189.5 47.5t-137 126t-83.5 179t-28 205.5q0 145 39 251.5t102 176t142.5 103.5t160.5 34q84 0 159 -34.5t131.5 -103t89 -170.5t32.5 -237v-6h-809v-14q0 -96 25 -188t74 -164t122 -116t170 -44q64 0 119 20.5t102 55t86.5 79t73.5 92.5l37 -26
q-34 -48 -76 -95.5t-93.5 -85.5t-113.5 -62t-135 -24zM926 592q-5 113 -34.5 199.5t-78 145t-112.5 88.5t-138 30q-70 0 -137.5 -28.5t-122.5 -86.5t-91.5 -144.5t-43.5 -203.5h758zM363 1241h368v-49h-368v49z" />
    <glyph glyph-name="Edotaccent" unicode="&#x116;" horiz-adv-x="1188" 
d="M213 1516h856v-48h-805v-639h610v-47h-610v-735h819v-47h-870v1516zM559 1804h70v-90h-70v90z" />
    <glyph glyph-name="edotaccent" unicode="&#x117;" horiz-adv-x="1094" 
d="M557 -23q-108 0 -189.5 47.5t-137 126t-83.5 179t-28 205.5q0 145 39 251.5t102 176t142.5 103.5t160.5 34q84 0 159 -34.5t131.5 -103t89 -170.5t32.5 -237v-6h-809v-14q0 -96 25 -188t74 -164t122 -116t170 -44q64 0 119 20.5t102 55t86.5 79t73.5 92.5l37 -26
q-34 -48 -76 -95.5t-93.5 -85.5t-113.5 -62t-135 -24zM926 592q-5 113 -34.5 199.5t-78 145t-112.5 88.5t-138 30q-70 0 -137.5 -28.5t-122.5 -86.5t-91.5 -144.5t-43.5 -203.5h758zM512 1384h70v-90h-70v90z" />
    <glyph glyph-name="Eogonek" unicode="&#x118;" horiz-adv-x="1188" 
d="M213 1516h856v-48h-805v-639h610v-47h-610v-735h819v-47h-870v1516zM1014 -379q-82 0 -133 37t-51 109q0 37 15.5 71.5t41.5 64.5t59.5 55.5t69.5 45.5h59q-31 -17 -65.5 -40.5t-64 -53.5t-49 -66t-19.5 -77q0 -28 10.5 -48t29 -33t43.5 -19.5t54 -6.5q42 0 85.5 11
t86.5 34l18 -35q-49 -26 -97 -37.5t-93 -11.5z" />
    <glyph glyph-name="eogonek" unicode="&#x119;" horiz-adv-x="1094" 
d="M557 -23q-108 0 -189.5 47.5t-137 126t-83.5 179t-28 205.5q0 145 39 251.5t102 176t142.5 103.5t160.5 34q84 0 159 -34.5t131.5 -103t89 -170.5t32.5 -237v-6h-809v-14q0 -96 25 -188t74 -164t122 -116t170 -44q64 0 119 20.5t102 55t86.5 79t73.5 92.5l37 -26
q-34 -48 -76 -95.5t-93.5 -85.5t-113.5 -62t-135 -24zM926 592q-5 113 -34.5 199.5t-78 145t-112.5 88.5t-138 30q-70 0 -137.5 -28.5t-122.5 -86.5t-91.5 -144.5t-43.5 -203.5h758zM614 -379q-82 0 -133 37t-51 109q0 37 15.5 71.5t41.5 64.5t59.5 55.5t69.5 45.5h59
q-31 -17 -65.5 -40.5t-64 -53.5t-49 -66t-19.5 -77q0 -28 10.5 -48t29 -33t43.5 -19.5t54 -6.5q42 0 85.5 11t86.5 34l18 -35q-49 -26 -97 -37.5t-93 -11.5z" />
    <glyph glyph-name="Ecaron" unicode="&#x11a;" horiz-adv-x="1188" 
d="M213 1516h856v-48h-805v-639h610v-47h-610v-735h819v-47h-870v1516zM297 1931h43l256 -254l252 254h43l-281 -319h-32z" />
    <glyph glyph-name="ecaron" unicode="&#x11b;" horiz-adv-x="1094" 
d="M557 -23q-108 0 -189.5 47.5t-137 126t-83.5 179t-28 205.5q0 145 39 251.5t102 176t142.5 103.5t160.5 34q84 0 159 -34.5t131.5 -103t89 -170.5t32.5 -237v-6h-809v-14q0 -96 25 -188t74 -164t122 -116t170 -44q64 0 119 20.5t102 55t86.5 79t73.5 92.5l37 -26
q-34 -48 -76 -95.5t-93.5 -85.5t-113.5 -62t-135 -24zM926 592q-5 113 -34.5 199.5t-78 145t-112.5 88.5t-138 30q-70 0 -137.5 -28.5t-122.5 -86.5t-91.5 -144.5t-43.5 -203.5h758zM250 1511h43l256 -254l252 254h43l-281 -319h-32z" />
    <glyph glyph-name="Gbreve" unicode="&#x11e;" horiz-adv-x="1448" 
d="M741 -31q-117 0 -226.5 50t-195 150.5t-137 251.5t-51.5 353q0 100 18 196.5t53 182.5t86.5 158t118.5 124t148.5 81.5t177.5 29.5q113 0 198 -36.5t148.5 -99.5t107.5 -147.5t75 -179.5l-50 -16q-32 93 -72 172t-96.5 137t-132.5 90.5t-178 32.5q-88 0 -163.5 -28
t-136.5 -77.5t-108 -117.5t-79 -148.5t-48 -170.5t-16 -183q0 -188 46.5 -330t124 -237t178.5 -143t210 -48q107 0 195.5 44t151.5 123.5t96 191.5t28 248h-403v47h455v-670h-52v334q-18 -67 -58.5 -132.5t-101 -117t-139 -83.5t-172.5 -32zM727 1610q-56 0 -107 22.5
t-90.5 64.5t-64.5 102.5t-29 136.5h39q4 -66 25.5 -118t56 -88t78.5 -55.5t92 -19.5t91 19.5t75.5 55.5t53 88t24.5 118h39q-4 -76 -27.5 -136.5t-61.5 -102.5t-88 -64.5t-106 -22.5z" />
    <glyph glyph-name="gbreve" unicode="&#x11f;" horiz-adv-x="1135" 
d="M532 -410q-109 0 -197 15t-150.5 46.5t-96 79.5t-33.5 115q0 52 23.5 95.5t58.5 78t75 59.5t73 40q-59 15 -87 45t-28 86q0 46 37 88.5t96 73.5q-78 51 -122 131.5t-44 177.5q0 77 28 145.5t79.5 120t124.5 81.5t163 30q78 0 141.5 -22t112.5 -60q29 18 62.5 35t68 32
t68.5 26.5t66 16.5v-49q-30 -5 -62 -14.5t-62 -22t-57 -27t-47 -28.5q53 -51 81 -119t28 -145t-28.5 -144.5t-81 -118t-126 -79.5t-164.5 -29q-54 0 -102 10.5t-88 30.5q-62 -31 -93.5 -67.5t-31.5 -73.5q0 -32 15 -52.5t53.5 -33.5t104.5 -20t169 -13q104 -6 188.5 -20.5
t144 -43t92 -75.5t32.5 -117q0 -57 -31 -108.5t-92 -90.5t-151.5 -62.5t-209.5 -23.5zM532 -365q108 0 189.5 19t136.5 52t83 76.5t28 92.5q0 62 -34 101.5t-91.5 62.5t-132.5 33.5t-156 15.5q-65 3 -118 6.5t-95 11.5q-42 -16 -85 -41t-77.5 -58t-56 -73.5t-21.5 -87.5
q0 -57 32.5 -97.5t90 -65.5t136 -36.5t171.5 -11.5zM532 395q80 0 145 25.5t111.5 70t71.5 103.5t25 127q0 67 -25 127.5t-71.5 106t-111.5 72t-145 26.5t-144.5 -26.5t-109.5 -72t-69.5 -106t-24.5 -127.5q0 -68 24.5 -127t69.5 -103.5t109.5 -70t144.5 -25.5zM541 1190
q-56 0 -107 22.5t-90.5 64.5t-64.5 102.5t-29 136.5h39q4 -66 25.5 -118t56 -88t78.5 -55.5t92 -19.5t91 19.5t75.5 55.5t53 88t24.5 118h39q-4 -76 -27.5 -136.5t-61.5 -102.5t-88 -64.5t-106 -22.5z" />
    <glyph glyph-name="Gcommaaccent" unicode="&#x122;" horiz-adv-x="1448" 
d="M741 -31q-117 0 -226.5 50t-195 150.5t-137 251.5t-51.5 353q0 100 18 196.5t53 182.5t86.5 158t118.5 124t148.5 81.5t177.5 29.5q113 0 198 -36.5t148.5 -99.5t107.5 -147.5t75 -179.5l-50 -16q-32 93 -72 172t-96.5 137t-132.5 90.5t-178 32.5q-88 0 -163.5 -28
t-136.5 -77.5t-108 -117.5t-79 -148.5t-48 -170.5t-16 -183q0 -188 46.5 -330t124 -237t178.5 -143t210 -48q107 0 195.5 44t151.5 123.5t96 191.5t28 248h-403v47h455v-670h-52v334q-18 -67 -58.5 -132.5t-101 -117t-139 -83.5t-172.5 -32zM723 -268h-37v102h76v-90
l-35 -172h-33z" />
    <glyph glyph-name="gcommaaccent" unicode="&#x123;" horiz-adv-x="1135" 
d="M532 -410q-109 0 -197 15t-150.5 46.5t-96 79.5t-33.5 115q0 52 23.5 95.5t58.5 78t75 59.5t73 40q-59 15 -87 45t-28 86q0 46 37 88.5t96 73.5q-78 51 -122 131.5t-44 177.5q0 77 28 145.5t79.5 120t124.5 81.5t163 30q78 0 141.5 -22t112.5 -60q29 18 62.5 35t68 32
t68.5 26.5t66 16.5v-49q-30 -5 -62 -14.5t-62 -22t-57 -27t-47 -28.5q53 -51 81 -119t28 -145t-28.5 -144.5t-81 -118t-126 -79.5t-164.5 -29q-54 0 -102 10.5t-88 30.5q-62 -31 -93.5 -67.5t-31.5 -73.5q0 -32 15 -52.5t53.5 -33.5t104.5 -20t169 -13q104 -6 188.5 -20.5
t144 -43t92 -75.5t32.5 -117q0 -57 -31 -108.5t-92 -90.5t-151.5 -62.5t-209.5 -23.5zM532 -365q108 0 189.5 19t136.5 52t83 76.5t28 92.5q0 62 -34 101.5t-91.5 62.5t-132.5 33.5t-156 15.5q-65 3 -118 6.5t-95 11.5q-42 -16 -85 -41t-77.5 -58t-56 -73.5t-21.5 -87.5
q0 -57 32.5 -97.5t90 -65.5t136 -36.5t171.5 -11.5zM532 395q80 0 145 25.5t111.5 70t71.5 103.5t25 127q0 67 -25 127.5t-71.5 106t-111.5 72t-145 26.5t-144.5 -26.5t-109.5 -72t-69.5 -106t-24.5 -127.5q0 -68 24.5 -127t69.5 -103.5t109.5 -70t144.5 -25.5zM499 1323
l35 172h33l-29 -160h37v-102h-76v90z" />
    <glyph glyph-name="Imacron" unicode="&#x12a;" horiz-adv-x="502" 
d="M225 1516h51v-1516h-51v1516zM67 1661h368v-49h-368v49z" />
    <glyph glyph-name="imacron" unicode="&#x12b;" horiz-adv-x="420" 
d="M186 1075h47v-1075h-47v1075zM26 1241h368v-49h-368v49z" />
    <glyph glyph-name="Iogonek" unicode="&#x12e;" horiz-adv-x="502" 
d="M225 1516h51v-1516q-30 -17 -63.5 -40t-61 -52t-45.5 -64.5t-18 -76.5q0 -28 10.5 -48t29 -33t43.5 -19.5t54 -6.5q42 0 85.5 11t86.5 34l19 -35q-50 -26 -98 -37.5t-93 -11.5q-41 0 -74.5 9.5t-58 28t-38 45.5t-13.5 63q0 37 15.5 72t41.5 65.5t59 56.5q33 25 68 44
v1511z" />
    <glyph glyph-name="iogonek" unicode="&#x12f;" horiz-adv-x="420" 
d="M186 1075h47v-1075h-10q-27 -16 -57 -36q-35 -24 -64.5 -54t-49 -66t-19.5 -77q0 -28 10.5 -48t29 -33t43.5 -19.5t54 -6.5q42 0 85.5 11t86.5 34l18 -35q-49 -26 -97 -37.5t-93 -11.5q-82 0 -133 37t-51 109q0 37 18.5 74t48 70t66.5 61q33 25 67 42v1061zM178 1442h66
v-86h-66v86z" />
    <glyph glyph-name="Idotaccent" unicode="&#x130;" horiz-adv-x="502" 
d="M225 1516h51v-1516h-51v1516zM216 1804h70v-90h-70v90z" />
    <glyph glyph-name="dotlessi" unicode="&#x131;" horiz-adv-x="420" 
d="M186 1075h47v-1075h-47v1075z" />
    <glyph glyph-name="Kcommaaccent" unicode="&#x136;" horiz-adv-x="1311" 
d="M213 1516h51v-922l850 922h62l-529 -574l610 -942h-59l-584 905l-350 -379v-526h-51v1516zM655 -268h-37v102h76v-90l-35 -172h-33z" />
    <glyph glyph-name="kcommaaccent" unicode="&#x137;" horiz-adv-x="1049" 
d="M176 1516h47v-1127l635 686h53l-356 -385l408 -690h-52l-387 655q-63 -67 -120 -129q-24 -26 -50 -53.5t-50 -53.5t-45 -49t-36 -40v-330h-47v1516zM524 -268h-37v102h76v-90l-35 -172h-33z" />
    <glyph glyph-name="Lacute" unicode="&#x139;" horiz-adv-x="1145" 
d="M213 1516h51v-1469h789v-47h-840v1516zM439 1921h88l-272 -309h-33z" />
    <glyph glyph-name="lacute" unicode="&#x13a;" horiz-adv-x="420" 
d="M186 1516h47v-1516h-47v1516zM410 1919h88l-272 -309h-33z" />
    <glyph glyph-name="Lcommaaccent" unicode="&#x13b;" horiz-adv-x="1145" 
d="M213 1516h51v-1469h789v-47h-840v1516zM612 -268h-37v102h76v-90l-35 -172h-33z" />
    <glyph glyph-name="lcommaaccent" unicode="&#x13c;" horiz-adv-x="420" 
d="M186 1516h47v-1516h-47v1516zM210 -268h-37v102h76v-90l-35 -172h-33z" />
    <glyph glyph-name="Lcaron" unicode="&#x13d;" horiz-adv-x="1145" 
d="M213 1516h51v-1469h789v-47h-840v1516zM612 1413h-37v102h76v-90l-35 -172h-33z" />
    <glyph glyph-name="lcaron" unicode="&#x13e;" horiz-adv-x="420" 
d="M414 1413h-37v103h76v-91l-35 -172h-33zM186 1516h47v-1516h-47v1516z" />
    <glyph glyph-name="Ldot" unicode="&#x13f;" horiz-adv-x="1118" 
d="M756 840h69v-90h-69v90zM213 1516h51v-1469h789v-47h-840v1516z" />
    <glyph glyph-name="ldot" unicode="&#x140;" horiz-adv-x="571" 
d="M461 688h69v-90h-69v90zM186 1516h47v-1516h-47v1516z" />
    <glyph glyph-name="Lslash" unicode="&#x141;" horiz-adv-x="1145" 
d="M213 717l-164 -53v47l164 53v752h51v-736l281 94v-47l-281 -92v-688h789v-47h-840v717z" />
    <glyph glyph-name="lslash" unicode="&#x142;" horiz-adv-x="520" 
d="M236 983l-224 -74v47l224 74v486h47v-469l225 73v-47l-225 -74v-999h-47v983z" />
    <glyph glyph-name="Nacute" unicode="&#x143;" horiz-adv-x="1495" 
d="M213 1516h55l965 -1422v1422h49v-1516h-49l-971 1434v-1434h-49v1516zM893 1921h88l-272 -309h-33z" />
    <glyph glyph-name="nacute" unicode="&#x144;" horiz-adv-x="1153" 
d="M176 1075h47v-188q29 26 73.5 62t101.5 69t125 56.5t143 23.5q88 0 150.5 -23t102 -66.5t58 -106.5t18.5 -144v-758h-47v758q0 148 -68 221.5t-214 73.5q-63 0 -123 -18t-115.5 -48t-107 -70t-97.5 -83v-834h-47v1075zM720 1501h88l-272 -309h-33z" />
    <glyph glyph-name="Ncommaaccent" unicode="&#x145;" horiz-adv-x="1495" 
d="M213 1516h55l965 -1422v1422h49v-1516h-49l-971 1434v-1434h-49v1516zM747 -268h-37v102h76v-90l-35 -172h-33z" />
    <glyph glyph-name="ncommaaccent" unicode="&#x146;" horiz-adv-x="1153" 
d="M176 1075h47v-188q29 26 73.5 62t101.5 69t125 56.5t143 23.5q88 0 150.5 -23t102 -66.5t58 -106.5t18.5 -144v-758h-47v758q0 148 -68 221.5t-214 73.5q-63 0 -123 -18t-115.5 -48t-107 -70t-97.5 -83v-834h-47v1075zM575 -268h-37v102h76v-90l-35 -172h-33z" />
    <glyph glyph-name="Ncaron" unicode="&#x147;" horiz-adv-x="1495" 
d="M213 1516h55l965 -1422v1422h49v-1516h-49l-971 1434v-1434h-49v1516zM451 1931h43l256 -254l252 254h43l-281 -319h-32z" />
    <glyph glyph-name="ncaron" unicode="&#x148;" horiz-adv-x="1153" 
d="M176 1075h47v-188q29 26 73.5 62t101.5 69t125 56.5t143 23.5q88 0 150.5 -23t102 -66.5t58 -106.5t18.5 -144v-758h-47v758q0 148 -68 221.5t-214 73.5q-63 0 -123 -18t-115.5 -48t-107 -70t-97.5 -83v-834h-47v1075zM278 1511h43l256 -254l252 254h43l-281 -319h-32z
" />
    <glyph glyph-name="Omacron" unicode="&#x14c;" horiz-adv-x="1497" 
d="M748 -31q-133 0 -245 58t-193.5 162t-127 249.5t-45.5 319.5t45.5 319t127 249.5t193.5 162t245 57.5q131 0 243 -57.5t194 -162t128.5 -249.5t46.5 -319t-46.5 -319.5t-128.5 -249.5t-194 -162t-243 -58zM748 16q122 0 225 55t177.5 154t116.5 235t42 298t-42 298
t-116.5 234.5t-177.5 153.5t-225 55q-124 0 -227 -55t-177 -153.5t-115 -234.5t-41 -298t41 -298t115 -235t177 -154t227 -55zM564 1661h368v-49h-368v49z" />
    <glyph glyph-name="omacron" unicode="&#x14d;" horiz-adv-x="1161" 
d="M580 -23q-93 0 -176.5 41.5t-146 115.5t-99.5 177t-37 226q0 126 36.5 229.5t99 177t146 114t177.5 40.5q91 0 174.5 -40.5t147 -114t101 -177t37.5 -229.5q0 -123 -37.5 -226t-101 -177t-147 -115.5t-174.5 -41.5zM580 23q84 0 159.5 38.5t131.5 106.5t89 162.5
t33 206.5q0 114 -33 209t-89 163.5t-131.5 106t-159.5 37.5q-86 0 -161 -37.5t-130.5 -106t-88 -163.5t-32.5 -209q0 -112 32.5 -206.5t88.5 -162.5t131 -106.5t160 -38.5zM396 1241h368v-49h-368v49z" />
    <glyph glyph-name="Ohungarumlaut" unicode="&#x150;" horiz-adv-x="1497" 
d="M748 -31q-133 0 -245 58t-193.5 162t-127 249.5t-45.5 319.5t45.5 319t127 249.5t193.5 162t245 57.5q131 0 243 -57.5t194 -162t128.5 -249.5t46.5 -319t-46.5 -319.5t-128.5 -249.5t-194 -162t-243 -58zM748 16q122 0 225 55t177.5 154t116.5 235t42 298t-42 298
t-116.5 234.5t-177.5 153.5t-225 55q-124 0 -227 -55t-177 -153.5t-115 -234.5t-41 -298t41 -298t115 -235t177 -154t227 -55zM744 1921h88l-272 -309h-33zM1045 1921h88l-272 -309h-33z" />
    <glyph glyph-name="ohungarumlaut" unicode="&#x151;" horiz-adv-x="1161" 
d="M580 -23q-93 0 -176.5 41.5t-146 115.5t-99.5 177t-37 226q0 126 36.5 229.5t99 177t146 114t177.5 40.5q91 0 174.5 -40.5t147 -114t101 -177t37.5 -229.5q0 -123 -37.5 -226t-101 -177t-147 -115.5t-174.5 -41.5zM580 23q84 0 159.5 38.5t131.5 106.5t89 162.5
t33 206.5q0 114 -33 209t-89 163.5t-131.5 106t-159.5 37.5q-86 0 -161 -37.5t-130.5 -106t-88 -163.5t-32.5 -209q0 -112 32.5 -206.5t88.5 -162.5t131 -106.5t160 -38.5zM576 1501h88l-272 -309h-33zM877 1501h88l-272 -309h-33z" />
    <glyph glyph-name="OE" unicode="&#x152;" horiz-adv-x="2284" 
d="M748 -31q-133 0 -245 58t-193.5 162t-127 249.5t-45.5 319.5t45.5 319t127 249.5t193.5 162t245 57.5q98 0 185.5 -33t159.5 -93.5t127 -147t89 -193.5v437h856v-48h-805v-639h610v-47h-610v-735h819v-47h-870v436q-34 -107 -89 -193t-127 -147t-159.5 -94t-185.5 -33z
M748 16q122 0 225 55t177.5 154t116.5 235t42 298t-42 298t-116.5 234.5t-177.5 153.5t-225 55q-124 0 -227 -55t-177 -153.5t-115 -234.5t-41 -298t41 -298t115 -235t177 -154t227 -55z" />
    <glyph glyph-name="oe" unicode="&#x153;" horiz-adv-x="1968" 
d="M580 -23q-93 0 -176.5 41.5t-146 115.5t-99.5 177t-37 226q0 126 36.5 229.5t99 177t146 114t177.5 40.5q74 0 143 -27t126.5 -77t100.5 -121t66 -160q21 99 65 172t101 120.5t123 71t133 23.5q84 0 159 -34.5t131 -103t88.5 -170.5t32.5 -237v-6h-809v-14q0 -96 25 -188
t74.5 -164t122.5 -116t170 -44q64 0 119 20.5t101.5 55t86 79t73.5 92.5l37 -26q-34 -48 -76 -95.5t-93.5 -85.5t-113 -62t-134.5 -24q-86 0 -155 31t-121 84t-87 124t-53 151q-23 -89 -66 -161t-100.5 -123t-126.5 -78.5t-143 -27.5zM580 23q84 0 159.5 38.5t131.5 106.5
t89 162.5t33 206.5q0 114 -33 209t-89 163.5t-131.5 106t-159.5 37.5q-86 0 -161 -37.5t-130.5 -106t-88 -163.5t-32.5 -209q0 -112 32.5 -206.5t88.5 -162.5t131 -106.5t160 -38.5zM1800 592q-5 113 -34.5 199.5t-77.5 145t-112.5 88.5t-137.5 30q-70 0 -138 -28.5
t-122.5 -86.5t-91 -144.5t-44.5 -203.5h758z" />
    <glyph glyph-name="Racute" unicode="&#x154;" horiz-adv-x="1341" 
d="M213 1516h449q126 0 221 -29.5t158.5 -82t95.5 -124t32 -156.5q0 -77 -27 -142t-80.5 -114.5t-133.5 -81.5t-185 -41l431 -745h-60l-428 741h-422v-741h-51v1516zM664 786q113 0 198 24.5t142 69.5t85.5 107t28.5 137t-28.5 138.5t-85.5 109t-142 71t-198 25.5h-400v-682
h400zM815 1921h88l-272 -309h-33z" />
    <glyph glyph-name="racute" unicode="&#x155;" horiz-adv-x="788" 
d="M176 1075h47v-246q42 64 91.5 116t106.5 87.5t122 52t139 9.5l39 -4l-8 -41l-39 4q-73 7 -137.5 -12.5t-121 -59t-104.5 -97t-88 -124.5v-760h-47v1075zM539 1501h88l-272 -309h-33z" />
    <glyph glyph-name="Rcommaaccent" unicode="&#x156;" horiz-adv-x="1341" 
d="M213 1516h449q126 0 221 -29.5t158.5 -82t95.5 -124t32 -156.5q0 -77 -27 -142t-80.5 -114.5t-133.5 -81.5t-185 -41l431 -745h-60l-428 741h-422v-741h-51v1516zM664 786q113 0 198 24.5t142 69.5t85.5 107t28.5 137t-28.5 138.5t-85.5 109t-142 71t-198 25.5h-400v-682
h400zM670 -268h-37v102h76v-90l-35 -172h-33z" />
    <glyph glyph-name="rcommaaccent" unicode="&#x157;" horiz-adv-x="788" 
d="M176 1075h47v-246q42 64 91.5 116t106.5 87.5t122 52t139 9.5l39 -4l-8 -41l-39 4q-73 7 -137.5 -12.5t-121 -59t-104.5 -97t-88 -124.5v-760h-47v1075zM202 -268h-37v102h76v-90l-35 -172h-33z" />
    <glyph glyph-name="Rcaron" unicode="&#x158;" horiz-adv-x="1341" 
d="M213 1516h449q126 0 221 -29.5t158.5 -82t95.5 -124t32 -156.5q0 -77 -27 -142t-80.5 -114.5t-133.5 -81.5t-185 -41l431 -745h-60l-428 741h-422v-741h-51v1516zM664 786q113 0 198 24.5t142 69.5t85.5 107t28.5 137t-28.5 138.5t-85.5 109t-142 71t-198 25.5h-400v-682
h400zM373 1931h43l256 -254l252 254h43l-281 -319h-32z" />
    <glyph glyph-name="rcaron" unicode="&#x159;" horiz-adv-x="788" 
d="M176 1075h47v-246q42 64 91.5 116t106.5 87.5t122 52t139 9.5l39 -4l-8 -41l-39 4q-73 7 -137.5 -12.5t-121 -59t-104.5 -97t-88 -124.5v-760h-47v1075zM97 1511h43l256 -254l252 254h43l-281 -319h-32z" />
    <glyph glyph-name="Sacute" unicode="&#x15a;" horiz-adv-x="1296" 
d="M670 -31q-131 0 -223 31.5t-156 86.5t-104 129.5t-66 160.5l49 16q26 -84 65 -153.5t97.5 -119t141 -77t196.5 -27.5q100 0 181 24t138 68.5t88 107.5t31 140q0 82 -22 142t-74 107.5t-136.5 86.5t-209.5 80q-130 42 -217.5 81t-140 86.5t-75 109.5t-22.5 151
q0 68 29 130.5t84.5 110.5t136 76.5t182.5 28.5q103 0 182.5 -28.5t138 -76.5t98.5 -111.5t64 -133.5l-49 -16q-25 70 -62.5 128.5t-90.5 101t-122.5 66t-158.5 23.5q-92 0 -162.5 -24.5t-119.5 -66t-74 -95.5t-25 -113q0 -78 21.5 -132.5t71 -97t130.5 -77.5t199 -74
q119 -38 208 -77t148.5 -90.5t89 -122.5t29.5 -173q0 -90 -36.5 -161.5t-101.5 -121.5t-155 -77t-196 -27zM792 1921h88l-272 -309h-33z" />
    <glyph glyph-name="sacute" unicode="&#x15b;" horiz-adv-x="1024" 
d="M506 -23q-68 0 -126 15.5t-107 42.5t-88 62.5t-70 76.5l37 29q29 -37 65 -70t79.5 -57.5t95.5 -38.5t114 -14q78 0 141.5 17t108.5 49.5t69.5 79t24.5 105.5q0 62 -23.5 105.5t-69 75t-111.5 54.5t-150 44q-85 21 -150 44.5t-109.5 56.5t-67 79t-22.5 113q0 52 21.5 98
t64 80t105 54t143.5 20q72 0 129 -14t103 -36.5t81 -51.5t62 -60l-37 -29q-25 29 -57.5 55.5t-74 46.5t-93 32t-113.5 12q-76 0 -130 -17.5t-88.5 -46.5t-51 -66t-16.5 -77q0 -58 21 -97t61.5 -66.5t99 -47.5t133.5 -39q85 -21 156 -45.5t122.5 -60t80 -87.5t28.5 -129
q0 -68 -28.5 -123t-80 -93.5t-123.5 -59.5t-159 -21zM657 1501h88l-272 -309h-33z" />
    <glyph glyph-name="Scedilla" unicode="&#x15e;" horiz-adv-x="1296" 
d="M670 -31q-131 0 -223 31.5t-156 86.5t-104 129.5t-66 160.5l49 16q26 -84 65 -153.5t97.5 -119t141 -77t196.5 -27.5q100 0 181 24t138 68.5t88 107.5t31 140q0 82 -22 142t-74 107.5t-136.5 86.5t-209.5 80q-130 42 -217.5 81t-140 86.5t-75 109.5t-22.5 151
q0 68 29 130.5t84.5 110.5t136 76.5t182.5 28.5q103 0 182.5 -28.5t138 -76.5t98.5 -111.5t64 -133.5l-49 -16q-25 70 -62.5 128.5t-90.5 101t-122.5 66t-158.5 23.5q-92 0 -162.5 -24.5t-119.5 -66t-74 -95.5t-25 -113q0 -78 21.5 -132.5t71 -97t130.5 -77.5t199 -74
q119 -38 208 -77t148.5 -90.5t89 -122.5t29.5 -173q0 -90 -36.5 -161.5t-101.5 -121.5t-155 -77t-196 -27zM653 -397q-63 0 -129 19.5t-119 58.5l25 34q49 -35 107.5 -52t115.5 -17q37 0 70 8t58 24t39.5 41t14.5 60q0 32 -27.5 55t-70.5 23q-25 0 -56.5 -11.5t-80.5 -46.5
l-33 25l51 176h45l-45 -150q22 22 54.5 36t64.5 14q31 0 58 -9.5t46.5 -26t30.5 -38.5t11 -47q0 -44 -18 -77t-49.5 -55t-73 -33t-89.5 -11z" />
    <glyph glyph-name="scedilla" unicode="&#x15f;" horiz-adv-x="1024" 
d="M506 -23q-68 0 -126 15.5t-107 42.5t-88 62.5t-70 76.5l37 29q29 -37 65 -70t79.5 -57.5t95.5 -38.5t114 -14q78 0 141.5 17t108.5 49.5t69.5 79t24.5 105.5q0 62 -23.5 105.5t-69 75t-111.5 54.5t-150 44q-85 21 -150 44.5t-109.5 56.5t-67 79t-22.5 113q0 52 21.5 98
t64 80t105 54t143.5 20q72 0 129 -14t103 -36.5t81 -51.5t62 -60l-37 -29q-25 29 -57.5 55.5t-74 46.5t-93 32t-113.5 12q-76 0 -130 -17.5t-88.5 -46.5t-51 -66t-16.5 -77q0 -58 21 -97t61.5 -66.5t99 -47.5t133.5 -39q85 -21 156 -45.5t122.5 -60t80 -87.5t28.5 -129
q0 -68 -28.5 -123t-80 -93.5t-123.5 -59.5t-159 -21zM518 -397q-63 0 -129 19.5t-119 58.5l25 34q49 -35 107.5 -52t115.5 -17q37 0 70 8t58 24t39.5 41t14.5 60q0 32 -27.5 55t-70.5 23q-25 0 -56.5 -11.5t-80.5 -46.5l-33 25l51 176h45l-45 -150q22 22 54.5 36t64.5 14
q31 0 58 -9.5t46.5 -26t30.5 -38.5t11 -47q0 -44 -18 -77t-49.5 -55t-73 -33t-89.5 -11z" />
    <glyph glyph-name="Scaron" unicode="&#x160;" horiz-adv-x="1296" 
d="M670 -31q-131 0 -223 31.5t-156 86.5t-104 129.5t-66 160.5l49 16q26 -84 65 -153.5t97.5 -119t141 -77t196.5 -27.5q100 0 181 24t138 68.5t88 107.5t31 140q0 82 -22 142t-74 107.5t-136.5 86.5t-209.5 80q-130 42 -217.5 81t-140 86.5t-75 109.5t-22.5 151
q0 68 29 130.5t84.5 110.5t136 76.5t182.5 28.5q103 0 182.5 -28.5t138 -76.5t98.5 -111.5t64 -133.5l-49 -16q-25 70 -62.5 128.5t-90.5 101t-122.5 66t-158.5 23.5q-92 0 -162.5 -24.5t-119.5 -66t-74 -95.5t-25 -113q0 -78 21.5 -132.5t71 -97t130.5 -77.5t199 -74
q119 -38 208 -77t148.5 -90.5t89 -122.5t29.5 -173q0 -90 -36.5 -161.5t-101.5 -121.5t-155 -77t-196 -27zM350 1931h43l256 -254l252 254h43l-281 -319h-32z" />
    <glyph glyph-name="scaron" unicode="&#x161;" horiz-adv-x="1024" 
d="M506 -23q-68 0 -126 15.5t-107 42.5t-88 62.5t-70 76.5l37 29q29 -37 65 -70t79.5 -57.5t95.5 -38.5t114 -14q78 0 141.5 17t108.5 49.5t69.5 79t24.5 105.5q0 62 -23.5 105.5t-69 75t-111.5 54.5t-150 44q-85 21 -150 44.5t-109.5 56.5t-67 79t-22.5 113q0 52 21.5 98
t64 80t105 54t143.5 20q72 0 129 -14t103 -36.5t81 -51.5t62 -60l-37 -29q-25 29 -57.5 55.5t-74 46.5t-93 32t-113.5 12q-76 0 -130 -17.5t-88.5 -46.5t-51 -66t-16.5 -77q0 -58 21 -97t61.5 -66.5t99 -47.5t133.5 -39q85 -21 156 -45.5t122.5 -60t80 -87.5t28.5 -129
q0 -68 -28.5 -123t-80 -93.5t-123.5 -59.5t-159 -21zM215 1511h43l256 -254l252 254h43l-281 -319h-32z" />
    <glyph glyph-name="Tcommaaccent" unicode="&#x162;" horiz-adv-x="1245" 
d="M598 1468h-518v48h1085v-48h-516v-1468h-51v1468zM622 -268h-37v102h76v-90l-35 -172h-33z" />
    <glyph glyph-name="Tcommaaccent" unicode="&#x21a;" horiz-adv-x="1245" 
d="M598 1468h-518v48h1085v-48h-516v-1468h-51v1468zM622 -268h-37v102h76v-90l-35 -172h-33z" />
    <glyph glyph-name="tcommaaccent" unicode="&#x163;" horiz-adv-x="717" 
d="M485 -12q-65 0 -108 16t-68.5 47.5t-36 77t-10.5 104.5v797h-188v45h188v391h47v-391h301v-45h-301v-803q0 -47 8 -83t29 -61t56.5 -37.5t91.5 -12.5q32 0 59 3t61 9v-45q-26 -5 -63.5 -8.5t-65.5 -3.5zM305 -268h-37v102h76v-90l-35 -172h-33z" />
    <glyph glyph-name="tcommaaccent" unicode="&#x21b;" horiz-adv-x="717" 
d="M485 -12q-65 0 -108 16t-68.5 47.5t-36 77t-10.5 104.5v797h-188v45h188v391h47v-391h301v-45h-301v-803q0 -47 8 -83t29 -61t56.5 -37.5t91.5 -12.5q32 0 59 3t61 9v-45q-26 -5 -63.5 -8.5t-65.5 -3.5zM305 -268h-37v102h76v-90l-35 -172h-33z" />
    <glyph glyph-name="Tcaron" unicode="&#x164;" horiz-adv-x="1245" 
d="M598 1468h-518v48h1085v-48h-516v-1468h-51v1468zM326 1931h43l256 -254l252 254h43l-281 -319h-32z" />
    <glyph glyph-name="tcaron" unicode="&#x165;" horiz-adv-x="717" 
d="M549 1413h-37v103h76v-91l-35 -172h-33zM485 -12q-65 0 -108 16t-68.5 47.5t-36 77t-10.5 104.5v797h-188v45h188v391h47v-391h301v-45h-301v-803q0 -47 8 -83t29 -61t56.5 -37.5t91.5 -12.5q32 0 59 3t61 9v-45q-26 -5 -63.5 -8.5t-65.5 -3.5z" />
    <glyph glyph-name="Umacron" unicode="&#x16a;" horiz-adv-x="1454" 
d="M725 -31q-124 0 -221 40.5t-164 111t-102 164t-35 200.5v1031h51v-1031q0 -96 32 -181.5t92.5 -149t148 -101t198.5 -37.5q109 0 197 36.5t149.5 99t95 144.5t33.5 173v1047h51v-1047q0 -101 -37.5 -192t-106 -159.5t-165.5 -108.5t-217 -40zM543 1661h368v-49h-368v49z
" />
    <glyph glyph-name="umacron" unicode="&#x16b;" horiz-adv-x="1153" 
d="M487 -23q-88 0 -150.5 23t-102 66.5t-58 106.5t-18.5 144v758h47v-758q0 -148 68 -221t214 -73q63 0 123 18t115.5 48t107 69.5t97.5 83.5v833h47v-1075h-47v188q-29 -26 -73.5 -62t-101.5 -69t-125 -56.5t-143 -23.5zM391 1241h368v-49h-368v49z" />
    <glyph glyph-name="Uring" unicode="&#x16e;" horiz-adv-x="1454" 
d="M725 -31q-124 0 -221 40.5t-164 111t-102 164t-35 200.5v1031h51v-1031q0 -96 32 -181.5t92.5 -149t148 -101t198.5 -37.5q109 0 197 36.5t149.5 99t95 144.5t33.5 173v1047h51v-1047q0 -101 -37.5 -192t-106 -159.5t-165.5 -108.5t-217 -40zM727 1616q-38 0 -71 13.5
t-57 37.5t-38 56.5t-14 70.5t14 70t38 55.5t57 37t71 13.5t71 -13.5t57 -37t38 -55.5t14 -70t-14 -70.5t-38 -56.5t-57 -37.5t-71 -13.5zM727 1661q59 0 96 37t37 96q0 28 -10 52.5t-27.5 41.5t-42 27t-53.5 10t-53.5 -10t-42 -27t-27.5 -41.5t-10 -52.5q0 -59 37 -96
t96 -37z" />
    <glyph glyph-name="uring" unicode="&#x16f;" horiz-adv-x="1153" 
d="M487 -23q-88 0 -150.5 23t-102 66.5t-58 106.5t-18.5 144v758h47v-758q0 -148 68 -221t214 -73q63 0 123 18t115.5 48t107 69.5t97.5 83.5v833h47v-1075h-47v188q-29 -26 -73.5 -62t-101.5 -69t-125 -56.5t-143 -23.5zM575 1196q-38 0 -71 13.5t-57 37.5t-38 56.5
t-14 70.5t14 70t38 55.5t57 37t71 13.5t71 -13.5t57 -37t38 -55.5t14 -70t-14 -70.5t-38 -56.5t-57 -37.5t-71 -13.5zM575 1241q59 0 96 37t37 96q0 28 -10 52.5t-27.5 41.5t-42 27t-53.5 10t-53.5 -10t-42 -27t-27.5 -41.5t-10 -52.5q0 -59 37 -96t96 -37z" />
    <glyph glyph-name="Uhungarumlaut" unicode="&#x170;" horiz-adv-x="1454" 
d="M725 -31q-124 0 -221 40.5t-164 111t-102 164t-35 200.5v1031h51v-1031q0 -96 32 -181.5t92.5 -149t148 -101t198.5 -37.5q109 0 197 36.5t149.5 99t95 144.5t33.5 173v1047h51v-1047q0 -101 -37.5 -192t-106 -159.5t-165.5 -108.5t-217 -40zM723 1921h88l-272 -309h-33z
M1024 1921h88l-272 -309h-33z" />
    <glyph glyph-name="uhungarumlaut" unicode="&#x171;" horiz-adv-x="1153" 
d="M487 -23q-88 0 -150.5 23t-102 66.5t-58 106.5t-18.5 144v758h47v-758q0 -148 68 -221t214 -73q63 0 123 18t115.5 48t107 69.5t97.5 83.5v833h47v-1075h-47v188q-29 -26 -73.5 -62t-101.5 -69t-125 -56.5t-143 -23.5zM571 1501h88l-272 -309h-33zM872 1501h88l-272 -309
h-33z" />
    <glyph glyph-name="Uogonek" unicode="&#x172;" horiz-adv-x="1454" 
d="M725 -31q-124 0 -221 40.5t-164 111t-102 164t-35 200.5v1031h51v-1031q0 -96 32 -181.5t92.5 -149t148 -101t198.5 -37.5q109 0 197 36.5t149.5 99t95 144.5t33.5 173v1047h51v-1047q0 -101 -37.5 -192t-106 -159.5t-165.5 -108.5t-217 -40zM746 -379q-82 0 -133 37
t-51 109q0 37 15.5 71.5t41.5 64.5t59.5 55.5t69.5 45.5h59q-31 -17 -65.5 -40.5t-64 -53.5t-49 -66t-19.5 -77q0 -28 10.5 -48t29 -33t43.5 -19.5t54 -6.5q42 0 85.5 11t86.5 34l18 -35q-49 -26 -97 -37.5t-93 -11.5z" />
    <glyph glyph-name="uogonek" unicode="&#x173;" horiz-adv-x="1153" 
d="M487 -23q-88 0 -150.5 23t-102 66.5t-58 106.5t-18.5 144v758h47v-758q0 -148 68 -221t214 -73q63 0 123 18t115.5 48t107 69.5t97.5 83.5v833h47v-1075h-14q-28 -16 -58 -36q-35 -24 -64.5 -54t-49 -66t-19.5 -77q0 -28 10.5 -48t29 -33t43.5 -19.5t54 -6.5
q42 0 85.5 11t86.5 34l19 -35q-50 -26 -98 -37.5t-93 -11.5q-41 0 -74.5 9.5t-58 28t-38 45.5t-13.5 63q0 37 16.5 73t44.5 68t66 60q37 27 78 47v173q-29 -26 -73.5 -62t-101.5 -69t-125 -56.5t-143 -23.5z" />
    <glyph glyph-name="Ydieresis" unicode="&#x178;" horiz-adv-x="1223" 
d="M586 690l-516 826h55l487 -779l490 779h53l-518 -826v-690h-51v690zM426 1712h67v-100h-67v100zM727 1712h67v-100h-67v100z" />
    <glyph glyph-name="Zacute" unicode="&#x179;" horiz-adv-x="1255" 
d="M96 47l991 1423h-937v46h995v-48l-987 -1423h981v-45h-1043v47zM772 1921h88l-272 -309h-33z" />
    <glyph glyph-name="zacute" unicode="&#x17a;" horiz-adv-x="1022" 
d="M121 41l706 991h-669v43h725v-41l-707 -991h731v-43h-786v41zM656 1501h88l-272 -309h-33z" />
    <glyph glyph-name="Zdotaccent" unicode="&#x17b;" horiz-adv-x="1255" 
d="M96 47l991 1423h-937v46h995v-48l-987 -1423h981v-45h-1043v47zM592 1804h70v-90h-70v90z" />
    <glyph glyph-name="zdotaccent" unicode="&#x17c;" horiz-adv-x="1022" 
d="M121 41l706 991h-669v43h725v-41l-707 -991h731v-43h-786v41zM476 1384h70v-90h-70v90z" />
    <glyph glyph-name="Zcaron" unicode="&#x17d;" horiz-adv-x="1255" 
d="M96 47l991 1423h-937v46h995v-48l-987 -1423h981v-45h-1043v47zM330 1931h43l256 -254l252 254h43l-281 -319h-32z" />
    <glyph glyph-name="zcaron" unicode="&#x17e;" horiz-adv-x="1022" 
d="M121 41l706 991h-669v43h725v-41l-707 -991h731v-43h-786v41zM214 1511h43l256 -254l252 254h43l-281 -319h-32z" />
    <glyph glyph-name="florin" unicode="&#x192;" horiz-adv-x="723" 
d="M-80 -371q-17 0 -37 2t-33 4l5 43q12 -2 30 -3t35 -1q91 0 144 39t65 127l162 1155h-191l6 45h191l31 217q10 70 36.5 119.5t69 81t99 46t126.5 14.5h54v-45h-54q-64 0 -113.5 -12t-85 -39t-57.5 -69.5t-30 -103.5l-29 -209h287l-6 -45h-287l-164 -1163
q-8 -53 -29.5 -91.5t-55 -63t-76.5 -36.5t-93 -12z" />
    <glyph glyph-name="circumflex" unicode="&#x2c6;" horiz-adv-x="1024" 
d="M496 1501h32l281 -319h-43l-256 254l-252 -254h-43z" />
    <glyph glyph-name="caron" unicode="&#x2c7;" horiz-adv-x="1024" 
d="M215 1511h43l256 -254l252 254h43l-281 -319h-32z" />
    <glyph glyph-name="breve" unicode="&#x2d8;" horiz-adv-x="1024" 
d="M516 1190q-56 0 -107 22.5t-90.5 64.5t-64.5 102.5t-29 136.5h39q4 -66 25.5 -118t56 -88t78.5 -55.5t92 -19.5t91 19.5t75.5 55.5t53 88t24.5 118h39q-4 -76 -27.5 -136.5t-61.5 -102.5t-88 -64.5t-106 -22.5z" />
    <glyph glyph-name="dotaccent" unicode="&#x2d9;" horiz-adv-x="1024" 
d="M477 1384h70v-90h-70v90z" />
    <glyph glyph-name="ring" unicode="&#x2da;" horiz-adv-x="1024" 
d="M512 1196q-38 0 -71 13.5t-57 37.5t-38 56.5t-14 70.5t14 70t38 55.5t57 37t71 13.5t71 -13.5t57 -37t38 -55.5t14 -70t-14 -70.5t-38 -56.5t-57 -37.5t-71 -13.5zM512 1241q59 0 96 37t37 96q0 28 -10 52.5t-27.5 41.5t-42 27t-53.5 10t-53.5 -10t-42 -27t-27.5 -41.5
t-10 -52.5q0 -59 37 -96t96 -37z" />
    <glyph glyph-name="ogonek" unicode="&#x2db;" horiz-adv-x="1024" 
d="M510 -379q-82 0 -133 37t-51 109q0 37 15.5 71.5t41.5 64.5t59.5 55.5t69.5 45.5h59q-31 -17 -65.5 -40.5t-64 -53.5t-49 -66t-19.5 -77q0 -28 10.5 -48t29 -33t43.5 -19.5t54 -6.5q42 0 85.5 11t86.5 34l18 -35q-49 -26 -97 -37.5t-93 -11.5z" />
    <glyph glyph-name="tilde" unicode="&#x2dc;" horiz-adv-x="1024" 
d="M207 1192q0 91 34.5 131.5t108.5 40.5q42 0 84.5 -20t87.5 -46q40 -23 78.5 -42t73.5 -19q52 0 74 30.5t22 96.5h47q0 -91 -34.5 -131.5t-108.5 -40.5q-42 0 -86.5 21.5t-87.5 46.5q-38 21 -76.5 40t-73.5 19q-52 0 -74 -30.5t-22 -96.5h-47v0z" />
    <glyph glyph-name="hungarumlaut" unicode="&#x2dd;" horiz-adv-x="1024" 
d="M508 1501h88l-272 -309h-33zM809 1501h88l-272 -309h-33z" />
    <glyph glyph-name="uni0326" unicode="&#x326;" horiz-adv-x="522" 
d="M260 -268h-37v102h76v-90l-35 -172h-33z" />
    <glyph glyph-name="uni2007" unicode="&#x2007;" horiz-adv-x="666" 
 />
    <glyph glyph-name="figuredash" unicode="&#x2012;" horiz-adv-x="1331" 
d="M223 670h885v-47h-885v47z" />
    <glyph glyph-name="endash" unicode="&#x2013;" horiz-adv-x="1188" 
d="M152 670h884v-47h-884v47z" />
    <glyph glyph-name="emdash" unicode="&#x2014;" horiz-adv-x="1884" 
d="M152 670h1581v-47h-1581v47z" />
    <glyph glyph-name="afii00208" unicode="&#x2015;" horiz-adv-x="2048" 
d="M0 672h2048v-54h-2048v54z" />
    <glyph glyph-name="quoteleft" unicode="&#x2018;" horiz-adv-x="522" 
d="M217 1313l55 203h31l-37 -191h39v-106h-88v94z" />
    <glyph glyph-name="quoteright" unicode="&#x2019;" horiz-adv-x="522" 
d="M256 1409h-39v107h88v-95l-55 -202h-31z" />
    <glyph glyph-name="quotesinglbase" unicode="&#x201a;" horiz-adv-x="522" 
d="M256 0h-39v106h88v-94l-55 -202h-31z" />
    <glyph glyph-name="quotedblleft" unicode="&#x201c;" horiz-adv-x="788" 
d="M217 1313l55 203h31l-37 -191h39v-106h-88v94zM483 1313l56 203h30l-37 -191h39v-106h-88v94z" />
    <glyph glyph-name="quotedblright" unicode="&#x201d;" horiz-adv-x="788" 
d="M256 1409h-39v107h88v-95l-55 -202h-31zM522 1409h-39v107h88v-95l-55 -202h-31z" />
    <glyph glyph-name="quotedblbase" unicode="&#x201e;" horiz-adv-x="788" 
d="M256 0h-39v106h88v-94l-55 -202h-31zM522 0h-39v106h88v-94l-55 -202h-31z" />
    <glyph glyph-name="dagger" unicode="&#x2020;" horiz-adv-x="1112" 
d="M537 909l-422 -4v47l422 -4l-5 568h52l-6 -568l421 4v-47l-421 4l6 -1319h-52z" />
    <glyph glyph-name="daggerdbl" unicode="&#x2021;" horiz-adv-x="1114" 
d="M537 100l-422 -4v47l422 -4l-5 414l5 414l-422 -4v47l422 -4l-5 510h52l-6 -510l421 4v-47l-421 4l6 -414l-6 -414l421 4v-47l-421 4l6 -510h-52z" />
    <glyph glyph-name="bullet" unicode="&#x2022;" horiz-adv-x="944" 
d="M469 518q-44 0 -80.5 14.5t-63 41t-41 63t-14.5 80.5q0 45 14.5 82t41 63.5t63 41t80.5 14.5q45 0 82 -14.5t64 -41t42 -63.5t15 -82q0 -44 -15 -80.5t-42 -63t-64 -41t-82 -14.5z" />
    <glyph glyph-name="ellipsis" unicode="&#x2026;" horiz-adv-x="1274" 
d="M168 106h88v-106h-88v106zM1018 106h88v-106h-88v106zM594 106h88v-106h-88v106z" />
    <glyph glyph-name="perthousand" unicode="&#x2030;" horiz-adv-x="2728" 
d="M465 637q-72 0 -130.5 30.5t-99.5 87.5t-63 139.5t-22 186.5q0 105 22.5 187.5t64.5 140.5t101 88.5t131 30.5t131.5 -30.5t102 -88.5t65.5 -140.5t23 -187.5q0 -104 -24 -186.5t-67 -139.5t-103 -87.5t-132 -30.5zM2253 -12q-72 0 -130.5 30.5t-100 87.5t-63.5 139.5
t-22 186.5q0 105 23 187.5t65 140.5t101 88.5t131 30.5t131 -30.5t101.5 -88.5t65.5 -140.5t23 -187.5q0 -104 -24 -186.5t-66.5 -139.5t-102.5 -87.5t-132 -30.5zM1436 -12q-72 0 -130.5 30.5t-100 87.5t-63.5 139.5t-22 186.5q0 105 23 187.5t65 140.5t101 88.5t131 30.5
t131 -30.5t101.5 -88.5t65.5 -140.5t23 -187.5q0 -104 -24 -186.5t-66.5 -139.5t-102.5 -87.5t-132 -30.5zM1436 35q63 0 113.5 28t86.5 79.5t55 125t19 164.5t-18.5 164.5t-53.5 125.5t-85 80.5t-113 28.5t-113 -28.5t-84.5 -80.5t-53 -125.5t-18.5 -164.5t18 -164.5
t51.5 -125t83 -79.5t112.5 -28zM465 684q63 0 113.5 28t86.5 80t55 125.5t19 163.5q0 91 -18.5 164.5t-53.5 126t-85 81t-113 28.5t-113 -28.5t-84.5 -81t-52.5 -126t-18 -164.5q0 -90 17.5 -163.5t51.5 -125.5t83 -80t112 -28zM2253 35q63 0 113.5 28t86.5 79.5t55 125
t19 164.5t-18.5 164.5t-53.5 125.5t-85 80.5t-113 28.5t-113 -28.5t-84.5 -80.5t-52.5 -125.5t-18 -164.5t17.5 -164.5t51.5 -125t83 -79.5t112 -28zM1376 1516h51l-903 -1516h-51z" />
    <glyph glyph-name="guilsinglleft" unicode="&#x2039;" horiz-adv-x="641" 
d="M127 539l293 536h51l-295 -536l295 -539h-51z" />
    <glyph glyph-name="guilsinglright" unicode="&#x203a;" horiz-adv-x="641" 
d="M465 537l-295 538h51l293 -538l-293 -537h-51z" />
    <glyph glyph-name="fraction" unicode="&#x2044;" horiz-adv-x="954" 
d="M903 1516h51l-903 -1516h-51z" />
    <glyph glyph-name="uni2070" unicode="&#x2070;" horiz-adv-x="872" 
d="M436 635q-74 0 -131 33t-95 92.5t-57.5 142t-19.5 180.5q0 97 19.5 179.5t57.5 142.5t95 93.5t131 33.5t130 -33.5t94 -93.5t57.5 -142.5t19.5 -179.5q0 -98 -19.5 -180.5t-57.5 -142t-94 -92.5t-130 -33zM436 680q62 0 109.5 30t79.5 83.5t48.5 127.5t16.5 162
t-16.5 162t-48.5 128t-79.5 84t-109.5 30q-63 0 -111 -30t-80 -84t-48.5 -128t-16.5 -162t16.5 -162t48.5 -127.5t80 -83.5t111 -30z" />
    <glyph glyph-name="uni2074" unicode="&#x2074;" horiz-adv-x="805" 
d="M528 883h-438v43l447 590h36v-590h162v-43h-162v-232h-45v232zM528 926v512l-387 -512h387z" />
    <glyph glyph-name="uni2075" unicode="&#x2075;" horiz-adv-x="811" 
d="M393 635q-62 0 -108 19.5t-78 47t-51.5 57t-28.5 50.5l43 18q7 -18 23 -43t43 -48t65.5 -39.5t91.5 -16.5q65 0 111.5 21t76.5 57t44 84t14 102q0 60 -18 105t-49 75t-73.5 45t-90.5 15q-39 0 -68.5 -7t-53.5 -20t-43 -32t-36 -44l-43 11l35 424h428v-46h-385l-27 -317
q34 35 85.5 55.5t107.5 20.5q58 0 109 -18t88.5 -53.5t59 -89t21.5 -124.5q0 -64 -16.5 -120t-52 -98t-91 -66.5t-133.5 -24.5z" />
    <glyph glyph-name="uni2076" unicode="&#x2076;" horiz-adv-x="819" 
d="M428 635q-54 0 -106.5 22.5t-94.5 74t-68 134.5t-26 203q0 103 20.5 188t61 146t99.5 95t137 34q58 0 107.5 -17t103.5 -61l-31 -35q-47 38 -89 53t-91 15q-66 0 -117 -30.5t-85 -85.5t-51.5 -132t-17.5 -170q20 20 47 40.5t59.5 37.5t68 28t73.5 11q75 0 127 -22.5
t84.5 -60t47.5 -85t15 -98.5q0 -58 -18.5 -109.5t-54 -90.5t-86.5 -62t-115 -23zM428 680q54 0 96 19.5t71 52.5t44.5 76.5t15.5 91.5q0 42 -12.5 82t-39.5 70.5t-70.5 49.5t-104.5 19q-40 0 -77 -13.5t-69 -33t-57.5 -42.5t-42.5 -42q6 -92 29.5 -155t57.5 -102t75.5 -56
t83.5 -17z" />
    <glyph glyph-name="uni2077" unicode="&#x2077;" horiz-adv-x="760" 
d="M608 1470h-473v46h518v-46l-391 -819h-47z" />
    <glyph glyph-name="uni2078" unicode="&#x2078;" horiz-adv-x="819" 
d="M414 635q-64 0 -119 16t-96 46t-64.5 73.5t-23.5 97.5q0 48 18.5 84.5t50.5 65t75 50.5t91 42q-39 15 -73.5 32t-60.5 40t-41 54t-15 75q0 50 20 90.5t55 69.5t82 45t101 16t101 -16t82 -45t55 -69.5t20 -90.5q0 -45 -15.5 -77t-42.5 -54.5t-63 -39.5t-76 -32
q50 -21 93 -43t75 -49.5t50 -63.5t18 -84q0 -54 -22.5 -97.5t-62.5 -73.5t-94 -46t-118 -16zM414 680q54 0 99.5 13t79 37.5t52.5 59t19 78.5q0 46 -22 79.5t-58 59t-81.5 45t-92.5 38.5q-47 -19 -92 -38.5t-80.5 -45t-57.5 -59t-22 -79.5q0 -44 19.5 -78.5t54 -59
t81.5 -37.5t101 -13zM418 1130q41 16 78.5 32t66 36t45.5 47t17 66q0 40 -16.5 72.5t-45.5 55.5t-67.5 35.5t-81.5 12.5q-44 0 -82.5 -12.5t-67 -35.5t-45 -55.5t-16.5 -72.5q0 -39 18.5 -66t48.5 -47t68.5 -36t79.5 -32z" />
    <glyph glyph-name="uni2079" unicode="&#x2079;" horiz-adv-x="819" 
d="M367 635q-29 0 -56 3.5t-52.5 12.5t-50.5 24t-52 38l30 35q47 -39 89 -53.5t92 -14.5q66 0 116.5 30.5t84.5 85.5t51.5 131.5t17.5 168.5q-21 -20 -48.5 -40.5t-59.5 -37t-67.5 -27t-72.5 -10.5q-75 0 -127 22.5t-84.5 60t-47.5 85t-15 98.5q0 58 18.5 109.5t54 90.5
t86 62t115.5 23q54 0 106.5 -22.5t94.5 -74t68 -134.5t26 -203q0 -103 -20.5 -188.5t-60.5 -146.5t-99.5 -94.5t-136.5 -33.5zM389 1026q39 0 76 13.5t69.5 33t58 42t42.5 40.5q-6 91 -29.5 154.5t-57.5 103t-75.5 57t-83.5 17.5q-54 0 -96 -19.5t-71 -52.5t-44.5 -76.5
t-15.5 -91.5q0 -42 12.5 -82t39.5 -70.5t70 -49.5t105 -19z" />
    <glyph glyph-name="uni2080" unicode="&#x2080;" horiz-adv-x="872" 
d="M436 -423q-74 0 -131 33t-95 92.5t-57.5 142t-19.5 180.5q0 97 19.5 179.5t57.5 142.5t95 93.5t131 33.5t130 -33.5t94 -93.5t57.5 -142.5t19.5 -179.5q0 -98 -19.5 -180.5t-57.5 -142t-94 -92.5t-130 -33zM436 -378q62 0 109.5 30t79.5 83.5t48.5 127.5t16.5 162
t-16.5 162t-48.5 128t-79.5 84t-109.5 30q-63 0 -111 -30t-80 -84t-48.5 -128t-16.5 -162t16.5 -162t48.5 -127.5t80 -83.5t111 -30z" />
    <glyph glyph-name="uni2081" unicode="&#x2081;" horiz-adv-x="621" 
d="M123 -364h184v774q-12 -10 -34 -18t-47 -14t-51.5 -9.5t-47.5 -3.5v45q63 0 112.5 12.5t69.5 35.5h45v-822h166v-45h-397v45z" />
    <glyph glyph-name="uni2082" unicode="&#x2082;" horiz-adv-x="784" 
d="M121 -392q0 67 11.5 115.5t45 91.5t94 87.5t158.5 104.5q49 30 84.5 57t58.5 54.5t34 56.5t11 63q0 48 -15.5 83.5t-44 59.5t-67.5 36t-85 12q-42 0 -78 -12.5t-65.5 -33.5t-51.5 -48t-35 -56l-43 19q15 34 41 66t61 56.5t78 39t93 14.5q57 0 105 -15t82.5 -44.5
t53.5 -74t19 -102.5q0 -41 -13 -76t-39 -66.5t-66.5 -62t-94.5 -63.5q-63 -38 -108 -68t-76 -55.5t-50.5 -49t-30.5 -48t-15 -52t-5 -61.5h496v-45h-543v17z" />
    <glyph glyph-name="uni2083" unicode="&#x2083;" horiz-adv-x="764" 
d="M367 -423q-63 0 -110.5 14.5t-82.5 38.5t-59 54.5t-41 62.5l41 20q15 -27 36 -53t51 -46.5t70.5 -33t94.5 -12.5q106 0 167.5 51.5t61.5 147.5q0 49 -12.5 89t-42.5 68t-80 43t-125 15h-55v45h51q57 0 103 8.5t78.5 28.5t49.5 53.5t17 83.5q0 81 -49 127.5t-158 46.5
q-42 0 -75 -9.5t-59.5 -25.5t-46 -37t-34.5 -43l-39 25q17 26 40.5 50.5t54.5 43t70.5 30t88.5 11.5q133 0 193.5 -58t60.5 -161q0 -84 -44 -131.5t-118 -63.5q45 -8 78 -30t55.5 -54t33.5 -72t11 -83q0 -59 -19 -104t-55 -76.5t-87 -47.5t-115 -16z" />
    <glyph glyph-name="uni2084" unicode="&#x2084;" horiz-adv-x="805" 
d="M528 -175h-438v43l447 590h36v-590h162v-43h-162v-232h-45v232zM528 -132v512l-387 -512h387z" />
    <glyph glyph-name="uni2085" unicode="&#x2085;" horiz-adv-x="811" 
d="M393 -423q-62 0 -108 19.5t-78 47t-51.5 57t-28.5 50.5l43 18q7 -18 23 -43t43 -48t65.5 -39.5t91.5 -16.5q65 0 111.5 21t76.5 57t44 84t14 102q0 60 -18 105t-49 75t-73.5 45t-90.5 15q-39 0 -68.5 -7t-53.5 -20t-43 -32t-36 -44l-43 11l35 424h428v-46h-385l-27 -317
q34 35 85.5 55.5t107.5 20.5q58 0 109 -18t88.5 -53.5t59 -89t21.5 -124.5q0 -64 -16.5 -120t-52 -98t-91 -66.5t-133.5 -24.5z" />
    <glyph glyph-name="uni2086" unicode="&#x2086;" horiz-adv-x="819" 
d="M428 -423q-54 0 -106.5 22.5t-94.5 74t-68 134.5t-26 203q0 103 20.5 188t61 146t99.5 95t137 34q58 0 107.5 -17t103.5 -61l-31 -35q-47 38 -89 53t-91 15q-66 0 -117 -30.5t-85 -85.5t-51.5 -132t-17.5 -170q20 20 47 40.5t59.5 37.5t68 28t73.5 11q75 0 127 -22.5
t84.5 -60t47.5 -85t15 -98.5q0 -58 -18.5 -109.5t-54 -90.5t-86.5 -62t-115 -23zM428 -378q54 0 96 19.5t71 52.5t44.5 76.5t15.5 91.5q0 42 -12.5 82t-39.5 70.5t-70.5 49.5t-104.5 19q-40 0 -77 -13.5t-69 -33t-57.5 -42.5t-42.5 -42q6 -92 29.5 -155t57.5 -102t75.5 -56
t83.5 -17z" />
    <glyph glyph-name="uni2087" unicode="&#x2087;" horiz-adv-x="760" 
d="M608 412h-473v46h518v-46l-391 -819h-47z" />
    <glyph glyph-name="uni2088" unicode="&#x2088;" horiz-adv-x="819" 
d="M414 -423q-64 0 -119 16t-96 46t-64.5 73.5t-23.5 97.5q0 48 18.5 84.5t50.5 65t75 50.5t91 42q-39 15 -73.5 32t-60.5 40t-41 54t-15 75q0 50 20 90.5t55 69.5t82 45t101 16t101 -16t82 -45t55 -69.5t20 -90.5q0 -45 -15.5 -77t-42.5 -54.5t-63 -39.5t-76 -32
q50 -21 93 -43t75 -49.5t50 -63.5t18 -84q0 -54 -22.5 -97.5t-62.5 -73.5t-94 -46t-118 -16zM414 -378q54 0 99.5 13t79 37.5t52.5 59t19 78.5q0 46 -22 79.5t-58 59t-81.5 45t-92.5 38.5q-47 -19 -92 -38.5t-80.5 -45t-57.5 -59t-22 -79.5q0 -44 19.5 -78.5t54 -59
t81.5 -37.5t101 -13zM418 72q41 16 78.5 32t66 36t45.5 47t17 66q0 40 -16.5 72.5t-45.5 55.5t-67.5 35.5t-81.5 12.5q-44 0 -82.5 -12.5t-67 -35.5t-45 -55.5t-16.5 -72.5q0 -39 18.5 -66t48.5 -47t68.5 -36t79.5 -32z" />
    <glyph glyph-name="uni2089" unicode="&#x2089;" horiz-adv-x="819" 
d="M367 -423q-29 0 -56 3.5t-52.5 12.5t-50.5 24t-52 38l30 35q47 -39 89 -53.5t92 -14.5q66 0 116.5 30.5t84.5 85.5t51.5 131.5t17.5 168.5q-21 -20 -48.5 -40.5t-59.5 -37t-67.5 -27t-72.5 -10.5q-75 0 -127 22.5t-84.5 60t-47.5 85t-15 98.5q0 58 18.5 109.5t54 90.5
t86 62t115.5 23q54 0 106.5 -22.5t94.5 -74t68 -134.5t26 -203q0 -103 -20.5 -188.5t-60.5 -146.5t-99.5 -94.5t-136.5 -33.5zM389 -32q39 0 76 13.5t69.5 33t58 42t42.5 40.5q-6 91 -29.5 154.5t-57.5 103t-75.5 57t-83.5 17.5q-54 0 -96 -19.5t-71 -52.5t-44.5 -76.5
t-15.5 -91.5q0 -42 12.5 -82t39.5 -70.5t70 -49.5t105 -19z" />
    <glyph glyph-name="Euro" unicode="&#x20ac;" horiz-adv-x="1479" 
d="M846 -31q-112 0 -208 45.5t-170 127t-124 195t-70 249.5h-233v47h227q-5 34 -6.5 68t-1.5 69q0 64 6 123h-225v47h231q20 135 70 246.5t123.5 191.5t167 124t201.5 44q112 0 192.5 -38t138 -101.5t96 -146t66.5 -170.5l-49 -17q-17 54 -37.5 107t-47 100t-60.5 87.5
t-77.5 69.5t-98.5 45.5t-123 16.5q-99 0 -183.5 -41t-151 -115t-111.5 -176.5t-64 -226.5h522v-47h-529q-6 -59 -6 -123q0 -35 1.5 -69t6.5 -68h527v-47h-520q20 -125 65 -229.5t111.5 -180t153.5 -118t190 -42.5q74 0 133 19t105 52t81 76.5t61 93t45 101.5t34 101l49 -13
q-11 -42 -29.5 -93.5t-46.5 -104.5t-67 -103t-91.5 -89.5t-120.5 -63t-153 -23.5z" />
    <glyph glyph-name="trademark" unicode="&#x2122;" horiz-adv-x="1763" 
d="M860 1516h37l342 -816l348 816h39v-867h-45v756l-324 -756h-43l-315 750v-750h-39v867zM350 1470h-289v46h629v-46h-293v-821h-47v821z" />
    <glyph glyph-name="uniF8FF" unicode="&#xf8ff;" horiz-adv-x="1597" 
d="M778 408l-289 -5l3 -88h-48v88h-88v48l88 -2l5 288l-408 -6v51l408 -4l-5 289l-88 -2v47h88v88h48l-3 -90l289 -2l-4 408h51l-6 -408l289 2l-2 90h47l-2 -90l90 2v-47h-90l-2 -287l407 4v-51l-407 6l2 -288l90 2v-48h-90l2 -88h-47v91l-287 2l6 -408h-51zM778 737h-291
l2 -288l289 -3v291zM778 778v291l-289 -2l-2 -289h291zM1106 449l4 288h-291v-291zM1110 778l-4 287l-287 4v-291h291z" />
    <glyph glyph-name="glyph3" 
 />
    <glyph glyph-name="glyph4" 
 />
    <glyph glyph-name="glyph5" 
 />
    <glyph glyph-name="zero.zero" horiz-adv-x="1313" 
d="M657 -31q-130 0 -229 59t-166 164t-101 250t-34 316t34 315.5t101 249.5t166 164t229 59t229 -59t165.5 -164t100.5 -249.5t34 -315.5t-34 -316t-100.5 -250t-165.5 -164t-229 -59zM178 758q0 -146 24.5 -271.5t74.5 -222.5l741 1021q-60 101 -149.5 157.5t-211.5 56.5
q-120 0 -210 -56t-150 -155.5t-89.5 -235t-29.5 -294.5zM657 18q121 0 210.5 56t149 155t89 234.5t29.5 294.5q0 142 -23 264t-70 219l-741 -1020q60 -96 148.5 -149.5t207.5 -53.5z" />
    <glyph glyph-name="endash.locl" horiz-adv-x="1024" 
d="M0 672h1024v-56h-1024v56z" />
    <glyph glyph-name="glyph136" 
 />
    <glyph glyph-name="glyph137" 
 />
    <glyph glyph-name="glyph141" 
 />
    <glyph glyph-name="glyph150" 
 />
    <glyph glyph-name="glyph152" 
 />
    <glyph glyph-name="glyph153" 
 />
    <glyph glyph-name="glyph154" 
 />
    <glyph glyph-name="glyph155" 
 />
    <glyph glyph-name="glyph157" 
 />
    <glyph glyph-name="glyph164" 
 />
    <glyph glyph-name="glyph165" 
 />
    <glyph glyph-name="glyph175" 
 />
    <glyph glyph-name="glyph177" 
 />
    <glyph glyph-name="glyph190" 
 />
    <glyph glyph-name="glyph191" 
 />
    <glyph glyph-name="glyph192" 
 />
    <glyph glyph-name="glyph196" 
 />
    <glyph glyph-name="glyph204" 
 />
    <glyph glyph-name="glyph205" 
 />
    <glyph glyph-name="glyph206" 
 />
    <glyph glyph-name="glyph207" 
 />
    <glyph glyph-name="glyph208" 
 />
    <glyph glyph-name="glyph210" 
 />
    <glyph glyph-name="glyph212" 
 />
    <glyph glyph-name="glyph235" 
 />
    <glyph glyph-name="glyph236" 
 />
    <glyph glyph-name="glyph240" 
 />
    <glyph glyph-name="glyph249" 
 />
    <glyph glyph-name="glyph251" 
 />
    <glyph glyph-name="glyph252" 
 />
    <glyph glyph-name="glyph253" 
 />
    <glyph glyph-name="glyph256" 
 />
    <glyph glyph-name="glyph260" 
 />
    <glyph glyph-name="glyph263" 
 />
    <glyph glyph-name="glyph264" 
 />
    <glyph glyph-name="glyph266" 
 />
    <glyph glyph-name="glyph275" 
 />
    <glyph glyph-name="glyph277" 
 />
    <glyph glyph-name="glyph290" 
 />
    <glyph glyph-name="glyph291" 
 />
    <glyph glyph-name="glyph292" 
 />
    <glyph glyph-name="glyph296" 
 />
    <glyph glyph-name="glyph304" 
 />
    <glyph glyph-name="glyph305" 
 />
    <glyph glyph-name="glyph306" 
 />
    <glyph glyph-name="glyph307" 
 />
    <glyph glyph-name="glyph308" 
 />
    <glyph glyph-name="glyph310" 
 />
    <glyph glyph-name="glyph312" 
 />
    <glyph glyph-name="glyph316" 
 />
    <glyph glyph-name="registered.aalt" horiz-adv-x="1765" 
d="M883 -29q-108 0 -208.5 28t-187 79.5t-157.5 123.5t-122 159.5t-78.5 187.5t-27.5 209t27.5 209t78.5 187.5t122 159t157.5 123t186.5 79.5t209 28q108 0 208 -28t187 -79t158 -123t121.5 -159.5t78 -188t27.5 -208.5t-27.5 -208.5t-78 -188t-121.5 -159.5t-158 -123.5
t-187 -79.5t-208 -28zM883 16q102 0 196.5 26.5t176 75t148.5 116t114.5 150t73.5 177t26 197.5q0 102 -26 197t-73.5 177t-114.5 150t-148.5 116t-176 74.5t-196.5 26.5t-196.5 -26.5t-176.5 -74.5t-149 -116t-114.5 -150t-73.5 -177t-26 -197t26 -197t73.5 -177.5
t114.5 -150t149 -116t176 -75t197 -26.5zM633 1194h287q145 0 221 -60t76 -171q0 -58 -18.5 -101t-53.5 -73t-84.5 -46t-110.5 -20l244 -385h-49l-242 383h-225v-397h-45v870zM911 764q59 0 107 11.5t82 36t52.5 62t18.5 89.5q0 92 -65.5 140t-185.5 48h-242v-387h233z" />
    <glyph glyph-name="glyph321" 
 />
    <glyph glyph-name="A.aalt" horiz-adv-x="1147" 
d="M547 1219h55l473 -1219h-53l-168 430h-563l-166 -430h-51zM838 473l-265 684l-264 -684h529z" />
    <glyph glyph-name="B.aalt" horiz-adv-x="1178" 
d="M182 1212h367q114 0 201 -16t145.5 -52t88.5 -95t30 -144q0 -69 -26.5 -119t-66.5 -83.5t-88 -52t-90 -25.5q32 -4 68.5 -13t73.5 -24.5t71 -38.5t60 -56.5t41.5 -78t15.5 -101.5q0 -73 -28 -131t-82.5 -98.5t-136 -62t-189.5 -21.5h-455v1212zM639 45q190 0 287.5 71
t97.5 197q0 72 -29 126t-84.5 90t-135.5 53.5t-183 17.5h-361v-555h408zM590 645q81 0 150 15.5t119 47.5t78 80.5t28 114.5q0 75 -26.5 126t-78.5 81.5t-129 43.5t-178 13h-322v-522h359z" />
    <glyph glyph-name="C.aalt" horiz-adv-x="1223" 
d="M649 -25q-119 0 -217 48.5t-168 134t-108.5 203t-38.5 255.5q0 135 39.5 248.5t109 196.5t165.5 129.5t210 46.5q101 0 175.5 -30t128 -80t89.5 -116.5t60 -138.5l-50 -16q-21 67 -53 127.5t-79.5 107t-113.5 74t-157 27.5q-104 0 -190.5 -43.5t-149.5 -120t-98 -182.5
t-35 -230q0 -128 34.5 -237.5t97.5 -189t152 -124.5t197 -45q99 0 170 31.5t120 81.5t80 112t50 124l47 -13q-10 -37 -27.5 -79.5t-44 -84.5t-63 -81.5t-85 -69.5t-110 -48t-137.5 -18z" />
    <glyph glyph-name="D.aalt" horiz-adv-x="1206" 
d="M182 1212h246q333 0 501.5 -150t168.5 -456q0 -304 -168.5 -455t-501.5 -151h-246v1212zM434 45q307 0 460 137.5t153 423.5t-153 423.5t-460 137.5h-203v-1122h203z" />
    <glyph glyph-name="E.aalt" horiz-adv-x="1028" 
d="M182 1212h742v-45h-693v-499h525v-45h-525v-578h707v-45h-756v1212z" />
    <glyph glyph-name="F.aalt" horiz-adv-x="987" 
d="M182 1212h725v-45h-676v-501h508v-45h-508v-621h-49v1212z" />
    <glyph glyph-name="G.aalt" horiz-adv-x="1251" 
d="M639 -25q-103 0 -198 41t-168 122t-116.5 201t-43.5 277q0 124 35 237t102 198t163.5 135.5t219.5 50.5q97 0 171 -29t129 -79t93 -117.5t64 -145.5l-46 -14q-27 75 -62.5 137.5t-84 107.5t-113 70t-151.5 25q-112 0 -199.5 -46.5t-148 -125.5t-92 -183t-31.5 -219
q0 -147 39 -259t105 -187.5t153 -113.5t182 -38q93 0 167.5 33t127 95t80.5 150t28 198h-348v45h398v-541h-50v266q-18 -57 -52 -110t-84.5 -93t-117.5 -64t-151 -24z" />
    <glyph glyph-name="H.aalt" horiz-adv-x="1276" 
d="M182 1212h49v-546h811v546h52v-1212h-52v623h-811v-623h-49v1212z" />
    <glyph glyph-name="I.aalt" horiz-adv-x="438" 
d="M195 1212h49v-1212h-49v1212z" />
    <glyph glyph-name="J.aalt" horiz-adv-x="860" 
d="M369 -25q-60 0 -108.5 16t-86 42t-65 58.5t-46.5 66.5l43 24q15 -29 38.5 -57.5t56 -52t74 -38t94.5 -14.5q140 0 205 70.5t65 212.5v909h49v-909q0 -167 -77.5 -247.5t-241.5 -80.5z" />
    <glyph glyph-name="K.aalt" horiz-adv-x="1135" 
d="M182 1212h49v-729l727 729h60l-455 -458l524 -754h-57l-500 719l-299 -297v-422h-49v1212z" />
    <glyph glyph-name="L.aalt" horiz-adv-x="987" 
d="M182 1212h49v-1167h678v-45h-727v1212z" />
    <glyph glyph-name="M.aalt" horiz-adv-x="1513" 
d="M182 1212h49l525 -1151l528 1151h47v-1212h-49v1100l-502 -1100h-47l-504 1100v-1100h-47v1212z" />
    <glyph glyph-name="N.aalt" horiz-adv-x="1286" 
d="M182 1212h49l826 -1122v1122h47v-1212h-41l-834 1137v-1137h-47v1212z" />
    <glyph glyph-name="O.aalt" horiz-adv-x="1292" 
d="M645 -25q-115 0 -212 46t-167 129.5t-109.5 199.5t-39.5 256t39.5 256t109.5 199.5t167 129.5t212 46q114 0 210.5 -46t167.5 -129.5t111 -199.5t40 -256t-40 -256t-111 -199.5t-167.5 -129.5t-210.5 -46zM645 20q105 0 192.5 43t151.5 120.5t99.5 185t35.5 237.5
t-35.5 237.5t-99.5 185t-151.5 120.5t-192.5 43t-193 -43t-151.5 -120.5t-99 -185t-35.5 -237.5t35.5 -237.5t99 -185t151.5 -120.5t193 -43z" />
    <glyph glyph-name="P.aalt" horiz-adv-x="1092" 
d="M182 1212h391q109 0 191.5 -23t138 -64t83.5 -99.5t28 -128.5q0 -71 -28.5 -128t-84 -98t-138.5 -63t-192 -22h-340v-586h-49v1212zM575 631q192 0 290 71.5t98 194.5q0 62 -24.5 112t-73.5 85t-121.5 54t-168.5 19h-344v-536h344z" />
    <glyph glyph-name="Q.aalt" horiz-adv-x="1292" 
d="M971 -285q-167 0 -259 63.5t-96 198.5q-109 6 -200.5 54t-158 131t-103.5 196t-37 248q0 140 39.5 256t109.5 199.5t167 129.5t212 46q114 0 210.5 -46t167.5 -129.5t111 -199.5t40 -256q0 -136 -37.5 -249.5t-105 -196t-160 -130.5t-203.5 -53q1 -116 79.5 -166.5
t223.5 -50.5h82v-45h-82zM645 20q105 0 192.5 43t151.5 120.5t99.5 185t35.5 237.5t-35.5 238t-99.5 186t-151.5 121t-192.5 43t-193 -43t-151.5 -121t-99 -186t-35.5 -238t35.5 -237.5t99 -185t151.5 -120.5t193 -43z" />
    <glyph glyph-name="R.aalt" horiz-adv-x="1159" 
d="M182 1212h391q109 0 191.5 -23t138 -64.5t83.5 -99t28 -126.5q0 -64 -23.5 -117t-69.5 -93t-114.5 -65t-157.5 -32l369 -592h-57l-367 590h-363v-590h-49v1212zM575 633q192 0 290 70.5t98 193.5q0 62 -24.5 112t-73.5 85t-121.5 54t-168.5 19h-344v-534h344z" />
    <glyph glyph-name="S.aalt" horiz-adv-x="1118" 
d="M578 -25q-111 0 -190.5 25t-135 69t-91 103.5t-57.5 128.5l48 16q23 -68 56.5 -122.5t84 -93.5t121 -60t166.5 -21q84 0 153 18.5t117.5 53.5t75 84t26.5 111q0 67 -20 114t-64.5 83.5t-116.5 66t-176 61.5q-108 32 -183.5 62t-123 67.5t-69 88.5t-21.5 126q0 57 25 108
t72.5 89.5t117.5 61t160 22.5q89 0 157.5 -22.5t119.5 -60.5t86 -89t57 -109l-47 -16q-23 57 -55.5 103.5t-77.5 79.5t-104.5 51t-135.5 18q-81 0 -142.5 -19t-102 -51.5t-61 -75t-20.5 -90.5q0 -63 20 -107t64 -77t112.5 -60t166.5 -55q100 -30 177 -59.5t129 -70.5
t78.5 -98.5t26.5 -141.5q0 -73 -30.5 -131t-86 -98t-133.5 -61.5t-173 -21.5z" />
    <glyph glyph-name="T.aalt" horiz-adv-x="1073" 
d="M514 1167h-446v45h938v-45h-443v-1167h-49v1167z" />
    <glyph glyph-name="U.aalt" horiz-adv-x="1253" 
d="M627 -25q-108 0 -193 33t-143 89.5t-88.5 132t-30.5 161.5v821h49v-819q0 -77 27 -145t79 -118.5t127.5 -80t172.5 -29.5q94 0 169.5 29t128.5 78.5t81 115t28 138.5v831h47v-833q0 -81 -32 -154.5t-91 -129t-143 -88t-188 -32.5z" />
    <glyph glyph-name="V.aalt" horiz-adv-x="1153" 
d="M76 1212h49l455 -1159l448 1159h51l-475 -1218h-53z" />
    <glyph glyph-name="W.aalt" horiz-adv-x="1606" 
d="M84 1212h49l338 -1128l307 1128h49l336 -1128l312 1128h47l-334 -1212h-49l-334 1135l-309 -1135h-50z" />
    <glyph glyph-name="X.aalt" horiz-adv-x="1130" 
d="M535 651l-408 561h55l381 -522l381 522h53l-407 -557l477 -655h-55l-449 614l-450 -614h-54z" />
    <glyph glyph-name="Y.aalt" horiz-adv-x="1057" 
d="M504 551l-447 661h56l415 -618l416 618h53l-444 -661v-551h-49v551z" />
    <glyph glyph-name="Z.aalt" horiz-adv-x="1083" 
d="M84 43l848 1124h-803v45h860v-43l-846 -1124h842v-45h-901v43z" />
    <glyph glyph-name="ampersand.aalt" horiz-adv-x="1260" 
d="M487 -18q-84 0 -156 19t-125 58t-83.5 97.5t-30.5 136.5q0 72 26.5 127.5t70 99.5t100.5 78.5t119 65.5q-48 80 -75.5 156.5t-27.5 148.5q0 60 23.5 109.5t62.5 85t90 54.5t107 19t102 -14.5t79 -43.5t51 -71.5t18 -99.5q0 -69 -32.5 -121t-84.5 -93t-118.5 -75
t-133.5 -68q53 -83 117 -160.5t129 -140.5q51 -51 98 -90t82 -63q56 62 98.5 163t59.5 238h49q-19 -145 -61.5 -250.5t-104.5 -177.5q66 -48 132.5 -79.5t137.5 -45.5v-49q-77 15 -153 49.5t-150 87.5q-44 -41 -93.5 -70t-103 -47t-109 -26t-110.5 -8zM487 27q52 0 103.5 7
t100 23t93 42t82.5 63q-45 32 -90.5 72t-91.5 85q-71 70 -137 149t-119 161q-57 -29 -109 -61.5t-91.5 -72.5t-63 -89.5t-23.5 -112.5q0 -68 27 -118t74 -83t110 -49t135 -16zM446 684q64 31 125.5 62.5t109.5 69t77.5 84t29.5 108.5q0 91 -53.5 138.5t-146.5 47.5
q-47 0 -89.5 -16t-74.5 -45.5t-51 -71t-19 -92.5q0 -68 25 -140.5t67 -144.5z" />
    <glyph glyph-name="AE.aalt" horiz-adv-x="1720" 
d="M846 1212h768v-45h-690v-501h524v-45h-524v-576h708v-45h-755v434h-471l-281 -434h-53zM877 477v697l-449 -697h449z" />
    <glyph glyph-name="OE.aalt" horiz-adv-x="1970" 
d="M645 -25q-115 0 -212 46t-167 129.5t-109.5 199.5t-39.5 256t39.5 256t109.5 199.5t167 129.5t212 46q84 0 159 -25t136.5 -72t108.5 -113.5t77 -149.5v335h742v-45h-694v-499h526v-45h-526v-578h706v-45h-754v336q-30 -83 -77 -149.5t-108.5 -113.5t-136.5 -72.5
t-159 -25.5zM645 20q105 0 192.5 43t151.5 120.5t99.5 185t35.5 237.5t-35.5 237.5t-99.5 185t-151.5 120.5t-192.5 43t-193 -43t-151.5 -120.5t-99 -185t-35.5 -237.5t35.5 -237.5t99 -185t151.5 -120.5t193 -43z" />
    <glyph glyph-name="Eth.aalt" horiz-adv-x="1206" 
d="M182 602h-141v45h141v565h246q333 0 501.5 -150t168.5 -456q0 -304 -168.5 -455t-501.5 -151h-246v602zM434 45q307 0 460 137.5t153 423.5t-153 423.5t-460 137.5h-203v-520h248v-45h-248v-557h203z" />
    <glyph glyph-name="Thorn.aalt" horiz-adv-x="1085" 
d="M182 1212h49v-221h344q109 0 191.5 -23.5t138 -65t83.5 -99.5t28 -127q0 -70 -28.5 -127.5t-84.5 -98t-139 -63t-191 -22.5h-342v-365h-49v1212zM575 410q96 0 169 19t122 53.5t74 83.5t25 110t-25 110.5t-74 85t-122 55t-169 19.5h-344v-536h344z" />
    <glyph glyph-name="Lslash.aalt" horiz-adv-x="987" 
d="M182 573l-141 -43v45l141 43v594h49v-579l248 76v-45l-248 -76v-543h678v-45h-727v573z" />
    <glyph glyph-name="Oslash.aalt" horiz-adv-x="1292" 
d="M217 -35l90 144q-88 83 -139 209.5t-51 287.5q0 140 39.5 256t109.5 199.5t167 129.5t212 46q87 0 162.5 -26.5t140.5 -77.5l86 139l41 -25l-92 -145q88 -84 139.5 -210.5t51.5 -285.5q0 -140 -40 -256t-111 -199.5t-167.5 -129.5t-210.5 -46q-88 0 -164.5 27.5
t-136.5 75.5l-86 -137zM645 20q105 0 192.5 43t151.5 120.5t99.5 185t35.5 237.5q0 146 -44 263t-122 194l-589 -946q58 -47 127 -72t149 -25zM924 1094q-59 48 -128.5 73t-150.5 25q-105 0 -193 -43t-151.5 -120.5t-99 -185t-35.5 -237.5q0 -146 43.5 -262.5t122.5 -193.5z
" />
    <glyph glyph-name="Aacute.aalt" horiz-adv-x="1147" 
d="M547 1219h55l473 -1219h-53l-168 430h-563l-166 -430h-51zM838 473l-265 684l-264 -684h529zM718 1628h88l-272 -309h-33z" />
    <glyph glyph-name="Abreve.aalt" horiz-adv-x="1147" 
d="M547 1219h55l473 -1219h-53l-168 430h-563l-166 -430h-51zM838 473l-265 684l-264 -684h529zM577 1317q-56 0 -107 22.5t-90.5 64.5t-64.5 102.5t-29 136.5h39q4 -66 25.5 -118t56 -88t78.5 -55.5t92 -19.5t91 19.5t75.5 55.5t53 88t24.5 118h39q-4 -76 -27.5 -136.5
t-61.5 -102.5t-88 -64.5t-106 -22.5z" />
    <glyph glyph-name="Acircumflex.aalt" horiz-adv-x="1147" 
d="M547 1219h55l473 -1219h-53l-168 430h-563l-166 -430h-51zM838 473l-265 684l-264 -684h529zM557 1628h32l281 -319h-43l-256 254l-252 -254h-43z" />
    <glyph glyph-name="Adieresis.aalt" horiz-adv-x="1147" 
d="M547 1219h55l473 -1219h-53l-168 430h-563l-166 -430h-51zM838 473l-265 684l-264 -684h529zM389 1419h67v-100h-67v100zM690 1419h67v-100h-67v100z" />
    <glyph glyph-name="Agrave.aalt" horiz-adv-x="1147" 
d="M547 1219h55l473 -1219h-53l-168 430h-563l-166 -430h-51zM838 473l-265 684l-264 -684h529zM340 1628h88l217 -309h-33z" />
    <glyph glyph-name="Amacron.aalt" horiz-adv-x="1147" 
d="M547 1219h55l473 -1219h-53l-168 430h-563l-166 -430h-51zM838 473l-265 684l-264 -684h529zM389 1368h368v-49h-368v49z" />
    <glyph glyph-name="Aogonek.aalt" horiz-adv-x="1147" 
d="M547 1219h55l473 -1219h-24q-28 -16 -58 -36q-35 -24 -64.5 -54t-49 -66t-19.5 -77q0 -28 10.5 -48t29 -33t43.5 -19.5t54 -6.5q42 0 85.5 11t86.5 34l19 -35q-50 -26 -98 -37.5t-93 -11.5q-41 0 -74.5 9.5t-58 28t-38 45.5t-13.5 63q0 37 16.5 73t44.5 68t66 60
q36 26 76 46l-162 416h-563l-166 -430h-51zM838 473l-265 684l-264 -684h529z" />
    <glyph glyph-name="Aring.aalt" horiz-adv-x="1147" 
d="M529 1172q-30 7 -55 22.5t-43 38t-28 51.5t-10 62q0 37 14 69.5t38 56t57 37t71 13.5q39 0 72 -13.5t57 -37t38 -56t14 -69.5q0 -66 -37.5 -113t-97.5 -61l456 -1172h-53l-168 430h-563l-166 -430h-51zM838 473l-265 684l-264 -684h529zM573 1212q59 0 96.5 37.5
t37.5 96.5q0 28 -10 52t-28 41.5t-42.5 27.5t-53.5 10t-53.5 -10t-42 -27.5t-27.5 -41.5t-10 -52q0 -29 10 -53.5t27.5 -42.5t42 -28t53.5 -10z" />
    <glyph glyph-name="Atilde.aalt" horiz-adv-x="1147" 
d="M547 1219h55l473 -1219h-53l-168 430h-563l-166 -430h-51zM838 473l-265 684l-264 -684h529zM268 1319q0 91 34.5 131.5t108.5 40.5q42 0 84.5 -20t87.5 -46q40 -23 78.5 -42t73.5 -19q52 0 74 30.5t22 96.5h47q0 -91 -34.5 -131.5t-108.5 -40.5q-42 0 -86.5 21.5
t-87.5 46.5q-38 21 -76.5 40t-73.5 19q-52 0 -74 -30.5t-22 -96.5h-47v0z" />
    <glyph glyph-name="Cacute.aalt" horiz-adv-x="1223" 
d="M649 -25q-119 0 -217 48.5t-168 134t-108.5 203t-38.5 255.5q0 135 39.5 248.5t109 196.5t165.5 129.5t210 46.5q101 0 175.5 -30t128 -80t89.5 -116.5t60 -138.5l-50 -16q-21 67 -53 127.5t-79.5 107t-113.5 74t-157 27.5q-104 0 -190.5 -43.5t-149.5 -120t-98 -182.5
t-35 -230q0 -128 34.5 -237.5t97.5 -189t152 -124.5t197 -45q99 0 170 31.5t120 81.5t80 112t50 124l47 -13q-10 -37 -27.5 -79.5t-44 -84.5t-63 -81.5t-85 -69.5t-110 -48t-137.5 -18zM755 1628h88l-272 -309h-33z" />
    <glyph glyph-name="Ccaron.aalt" horiz-adv-x="1223" 
d="M649 -25q-119 0 -217 48.5t-168 134t-108.5 203t-38.5 255.5q0 135 39.5 248.5t109 196.5t165.5 129.5t210 46.5q101 0 175.5 -30t128 -80t89.5 -116.5t60 -138.5l-50 -16q-21 67 -53 127.5t-79.5 107t-113.5 74t-157 27.5q-104 0 -190.5 -43.5t-149.5 -120t-98 -182.5
t-35 -230q0 -128 34.5 -237.5t97.5 -189t152 -124.5t197 -45q99 0 170 31.5t120 81.5t80 112t50 124l47 -13q-10 -37 -27.5 -79.5t-44 -84.5t-63 -81.5t-85 -69.5t-110 -48t-137.5 -18zM313 1638h43l256 -254l252 254h43l-281 -319h-32z" />
    <glyph glyph-name="Ccedilla.aalt" horiz-adv-x="1223" 
d="M649 -25q-119 0 -217 48.5t-168 134t-108.5 203t-38.5 255.5q0 135 39.5 248.5t109 196.5t165.5 129.5t210 46.5q101 0 175.5 -30t128 -80t89.5 -116.5t60 -138.5l-50 -16q-21 67 -53 127.5t-79.5 107t-113.5 74t-157 27.5q-104 0 -190.5 -43.5t-149.5 -120t-98 -182.5
t-35 -230q0 -128 34.5 -237.5t97.5 -189t152 -124.5t197 -45q99 0 170 31.5t120 81.5t80 112t50 124l47 -13q-10 -37 -27.5 -79.5t-44 -84.5t-63 -81.5t-85 -69.5t-110 -48t-137.5 -18zM616 -397q-63 0 -129 19.5t-119 58.5l25 34q49 -35 107.5 -52t115.5 -17q37 0 70 8
t58 24t39.5 41t14.5 60q0 32 -27.5 55t-70.5 23q-25 0 -56.5 -11.5t-80.5 -46.5l-33 25l51 176h45l-45 -150q22 22 54.5 36t64.5 14q31 0 58 -9.5t46.5 -26t30.5 -38.5t11 -47q0 -44 -18 -77t-49.5 -55t-73 -33t-89.5 -11z" />
    <glyph glyph-name="glyph368" 
 />
    <glyph glyph-name="glyph369" 
 />
    <glyph glyph-name="Dcaron.aalt" horiz-adv-x="1206" 
d="M182 1212h246q333 0 501.5 -150t168.5 -456q0 -304 -168.5 -455t-501.5 -151h-246v1212zM434 45q307 0 460 137.5t153 423.5t-153 423.5t-460 137.5h-203v-1122h203zM305 1638h43l256 -254l252 254h43l-281 -319h-32z" />
    <glyph glyph-name="Dcroat.aalt" horiz-adv-x="1206" 
d="M182 602h-141v45h141v565h246q333 0 501.5 -150t168.5 -456q0 -304 -168.5 -455t-501.5 -151h-246v602zM434 45q307 0 460 137.5t153 423.5t-153 423.5t-460 137.5h-203v-520h248v-45h-248v-557h203z" />
    <glyph glyph-name="Eacute.aalt" horiz-adv-x="1028" 
d="M182 1212h742v-45h-693v-499h525v-45h-525v-578h707v-45h-756v1212zM659 1628h88l-272 -309h-33z" />
    <glyph glyph-name="glyph373" 
 />
    <glyph glyph-name="Ecaron.aalt" horiz-adv-x="1028" 
d="M182 1212h742v-45h-693v-499h525v-45h-525v-578h707v-45h-756v1212zM258 1638h43l256 -254l252 254h43l-281 -319h-32z" />
    <glyph glyph-name="Ecircumflex.aalt" horiz-adv-x="1028" 
d="M182 1212h742v-45h-693v-499h525v-45h-525v-578h707v-45h-756v1212zM539 1628h32l281 -319h-43l-256 254l-252 -254h-43z" />
    <glyph glyph-name="Edieresis.aalt" horiz-adv-x="1028" 
d="M182 1212h742v-45h-693v-499h525v-45h-525v-578h707v-45h-756v1212zM371 1419h67v-100h-67v100zM672 1419h67v-100h-67v100z" />
    <glyph glyph-name="Edotaccent.aalt" horiz-adv-x="1028" 
d="M182 1212h742v-45h-693v-499h525v-45h-525v-578h707v-45h-756v1212zM520 1511h70v-90h-70v90z" />
    <glyph glyph-name="Egrave.aalt" horiz-adv-x="1028" 
d="M182 1212h742v-45h-693v-499h525v-45h-525v-578h707v-45h-756v1212zM281 1628h88l217 -309h-33z" />
    <glyph glyph-name="Emacron.aalt" horiz-adv-x="1028" 
d="M182 1212h742v-45h-693v-499h525v-45h-525v-578h707v-45h-756v1212zM371 1368h368v-49h-368v49z" />
    <glyph glyph-name="Eogonek.aalt" horiz-adv-x="1028" 
d="M182 1212h742v-45h-693v-499h525v-45h-525v-578h707v-45h-756v1212zM850 -379q-82 0 -133 37t-51 109q0 37 15.5 71.5t41.5 64.5t59.5 55.5t69.5 45.5h59q-31 -17 -65.5 -40.5t-64 -53.5t-49 -66t-19.5 -77q0 -28 10.5 -48t29 -33t43.5 -19.5t54 -6.5q42 0 85.5 11
t86.5 34l18 -35q-49 -26 -97 -37.5t-93 -11.5z" />
    <glyph glyph-name="Gbreve.aalt" horiz-adv-x="1251" 
d="M639 -25q-103 0 -198 41t-168 122t-116.5 201t-43.5 277q0 124 35 237t102 198t163.5 135.5t219.5 50.5q97 0 171 -29t129 -79t93 -117.5t64 -145.5l-46 -14q-27 75 -62.5 137.5t-84 107.5t-113 70t-151.5 25q-112 0 -199.5 -46.5t-148 -125.5t-92 -183t-31.5 -219
q0 -147 39 -259t105 -187.5t153 -113.5t182 -38q93 0 167.5 33t127 95t80.5 150t28 198h-348v45h398v-541h-50v266q-18 -57 -52 -110t-84.5 -93t-117.5 -64t-151 -24zM629 1317q-56 0 -107 22.5t-90.5 64.5t-64.5 102.5t-29 136.5h39q4 -66 25.5 -118t56 -88t78.5 -55.5
t92 -19.5t91 19.5t75.5 55.5t53 88t24.5 118h39q-4 -76 -27.5 -136.5t-61.5 -102.5t-88 -64.5t-106 -22.5z" />
    <glyph glyph-name="glyph382" 
 />
    <glyph glyph-name="Gcommaaccent.aalt" horiz-adv-x="1251" 
d="M639 -25q-103 0 -198 41t-168 122t-116.5 201t-43.5 277q0 124 35 237t102 198t163.5 135.5t219.5 50.5q97 0 171 -29t129 -79t93 -117.5t64 -145.5l-46 -14q-27 75 -62.5 137.5t-84 107.5t-113 70t-151.5 25q-112 0 -199.5 -46.5t-148 -125.5t-92 -183t-31.5 -219
q0 -147 39 -259t105 -187.5t153 -113.5t182 -38q93 0 167.5 33t127 95t80.5 150t28 198h-348v45h398v-541h-50v266q-18 -57 -52 -110t-84.5 -93t-117.5 -64t-151 -24zM637 -268h-37v102h76v-90l-35 -172h-33z" />
    <glyph glyph-name="glyph384" 
 />
    <glyph glyph-name="glyph385" 
 />
    <glyph glyph-name="glyph386" 
 />
    <glyph glyph-name="Iacute.aalt" horiz-adv-x="438" 
d="M195 1212h49v-1212h-49v1212zM414 1628h88l-272 -309h-33z" />
    <glyph glyph-name="glyph388" 
 />
    <glyph glyph-name="Icircumflex.aalt" horiz-adv-x="438" 
d="M195 1212h49v-1212h-49v1212zM204 1628h32l281 -319h-43l-256 254l-252 -254h-43z" />
    <glyph glyph-name="Idieresis.aalt" horiz-adv-x="438" 
d="M195 1212h49v-1212h-49v1212zM36 1419h67v-100h-67v100zM337 1419h67v-100h-67v100z" />
    <glyph glyph-name="Idotaccent.aalt" horiz-adv-x="438" 
d="M195 1212h49v-1212h-49v1212zM185 1511h70v-90h-70v90z" />
    <glyph glyph-name="Igrave.aalt" horiz-adv-x="438" 
d="M195 1212h49v-1212h-49v1212zM-66 1628h88l217 -309h-33z" />
    <glyph glyph-name="glyph393" 
 />
    <glyph glyph-name="Imacron.aalt" horiz-adv-x="438" 
d="M195 1212h49v-1212h-49v1212zM36 1368h368v-49h-368v49z" />
    <glyph glyph-name="Iogonek.aalt" horiz-adv-x="438" 
d="M195 1212h49v-1212h-12q-28 -16 -58 -36q-35 -24 -64.5 -54t-49 -66t-19.5 -77q0 -28 10.5 -48t29 -33t43.5 -19.5t54 -6.5q42 0 85.5 11t86.5 34l19 -35q-50 -26 -98 -37.5t-93 -11.5q-41 0 -74.5 9.5t-58 28t-38 45.5t-13.5 63q0 37 16.5 73t44.5 68t66 60q35 25 74 45
v1199z" />
    <glyph glyph-name="glyph396" 
 />
    <glyph glyph-name="glyph397" 
 />
    <glyph glyph-name="Kcommaaccent.aalt" horiz-adv-x="1135" 
d="M182 1212h49v-729l727 729h60l-455 -458l524 -754h-57l-500 719l-299 -297v-422h-49v1212zM567 -268h-37v102h76v-90l-35 -172h-33z" />
    <glyph glyph-name="Lacute.aalt" horiz-adv-x="987" 
d="M182 1212h49v-1167h678v-45h-727v1212zM408 1628h88l-272 -309h-33z" />
    <glyph glyph-name="Lcaron.aalt" horiz-adv-x="987" 
d="M594 1110h-37v102h76v-90l-35 -172h-33zM182 1212h49v-1167h678v-45h-727v1212z" />
    <glyph glyph-name="Lcommaaccent.aalt" horiz-adv-x="987" 
d="M182 1212h49v-1167h678v-45h-727v1212zM514 -268h-37v102h76v-90l-35 -172h-33z" />
    <glyph glyph-name="Ldot.aalt" horiz-adv-x="993" 
d="M664 688h69v-90h-69v90zM182 1212h49v-1167h678v-45h-727v1212z" />
    <glyph glyph-name="Nacute.aalt" horiz-adv-x="1286" 
d="M182 1212h49l826 -1122v1122h47v-1212h-41l-834 1137v-1137h-47v1212zM788 1628h88l-272 -309h-33z" />
    <glyph glyph-name="Ncaron.aalt" horiz-adv-x="1286" 
d="M182 1212h49l826 -1122v1122h47v-1212h-41l-834 1137v-1137h-47v1212zM346 1638h43l256 -254l252 254h43l-281 -319h-32z" />
    <glyph glyph-name="Ncommaaccent.aalt" horiz-adv-x="1286" 
d="M182 1212h49l826 -1122v1122h47v-1212h-41l-834 1137v-1137h-47v1212zM643 -268h-37v102h76v-90l-35 -172h-33z" />
    <glyph glyph-name="Ntilde.aalt" horiz-adv-x="1286" 
d="M182 1212h49l826 -1122v1122h47v-1212h-41l-834 1137v-1137h-47v1212zM338 1319q0 91 34.5 131.5t108.5 40.5q42 0 84.5 -20t87.5 -46q40 -23 78.5 -42t73.5 -19q52 0 74 30.5t22 96.5h47q0 -91 -34.5 -131.5t-108.5 -40.5q-42 0 -86.5 21.5t-87.5 46.5q-38 21 -76.5 40
t-73.5 19q-52 0 -74 -30.5t-22 -96.5h-47v0z" />
    <glyph glyph-name="glyph407" 
 />
    <glyph glyph-name="Oacute.aalt" horiz-adv-x="1292" 
d="M645 -25q-115 0 -212 46t-167 129.5t-109.5 199.5t-39.5 256t39.5 256t109.5 199.5t167 129.5t212 46q114 0 210.5 -46t167.5 -129.5t111 -199.5t40 -256t-40 -256t-111 -199.5t-167.5 -129.5t-210.5 -46zM645 20q105 0 192.5 43t151.5 120.5t99.5 185t35.5 237.5
t-35.5 237.5t-99.5 185t-151.5 120.5t-192.5 43t-193 -43t-151.5 -120.5t-99 -185t-35.5 -237.5t35.5 -237.5t99 -185t151.5 -120.5t193 -43zM790 1628h88l-272 -309h-33z" />
    <glyph glyph-name="glyph409" 
 />
    <glyph glyph-name="Ocircumflex.aalt" horiz-adv-x="1292" 
d="M645 -25q-115 0 -212 46t-167 129.5t-109.5 199.5t-39.5 256t39.5 256t109.5 199.5t167 129.5t212 46q114 0 210.5 -46t167.5 -129.5t111 -199.5t40 -256t-40 -256t-111 -199.5t-167.5 -129.5t-210.5 -46zM645 20q105 0 192.5 43t151.5 120.5t99.5 185t35.5 237.5
t-35.5 237.5t-99.5 185t-151.5 120.5t-192.5 43t-193 -43t-151.5 -120.5t-99 -185t-35.5 -237.5t35.5 -237.5t99 -185t151.5 -120.5t193 -43zM629 1628h32l281 -319h-43l-256 254l-252 -254h-43z" />
    <glyph glyph-name="Odieresis.aalt" horiz-adv-x="1292" 
d="M645 -25q-115 0 -212 46t-167 129.5t-109.5 199.5t-39.5 256t39.5 256t109.5 199.5t167 129.5t212 46q114 0 210.5 -46t167.5 -129.5t111 -199.5t40 -256t-40 -256t-111 -199.5t-167.5 -129.5t-210.5 -46zM645 20q105 0 192.5 43t151.5 120.5t99.5 185t35.5 237.5
t-35.5 237.5t-99.5 185t-151.5 120.5t-192.5 43t-193 -43t-151.5 -120.5t-99 -185t-35.5 -237.5t35.5 -237.5t99 -185t151.5 -120.5t193 -43zM461 1419h67v-100h-67v100zM762 1419h67v-100h-67v100z" />
    <glyph glyph-name="Ograve.aalt" horiz-adv-x="1292" 
d="M645 -25q-115 0 -212 46t-167 129.5t-109.5 199.5t-39.5 256t39.5 256t109.5 199.5t167 129.5t212 46q114 0 210.5 -46t167.5 -129.5t111 -199.5t40 -256t-40 -256t-111 -199.5t-167.5 -129.5t-210.5 -46zM645 20q105 0 192.5 43t151.5 120.5t99.5 185t35.5 237.5
t-35.5 237.5t-99.5 185t-151.5 120.5t-192.5 43t-193 -43t-151.5 -120.5t-99 -185t-35.5 -237.5t35.5 -237.5t99 -185t151.5 -120.5t193 -43zM412 1628h88l217 -309h-33z" />
    <glyph glyph-name="Ohungarumlaut.aalt" horiz-adv-x="1292" 
d="M645 -25q-115 0 -212 46t-167 129.5t-109.5 199.5t-39.5 256t39.5 256t109.5 199.5t167 129.5t212 46q114 0 210.5 -46t167.5 -129.5t111 -199.5t40 -256t-40 -256t-111 -199.5t-167.5 -129.5t-210.5 -46zM645 20q105 0 192.5 43t151.5 120.5t99.5 185t35.5 237.5
t-35.5 237.5t-99.5 185t-151.5 120.5t-192.5 43t-193 -43t-151.5 -120.5t-99 -185t-35.5 -237.5t35.5 -237.5t99 -185t151.5 -120.5t193 -43zM641 1628h88l-272 -309h-33zM942 1628h88l-272 -309h-33z" />
    <glyph glyph-name="Omacron.aalt" horiz-adv-x="1292" 
d="M645 -25q-115 0 -212 46t-167 129.5t-109.5 199.5t-39.5 256t39.5 256t109.5 199.5t167 129.5t212 46q114 0 210.5 -46t167.5 -129.5t111 -199.5t40 -256t-40 -256t-111 -199.5t-167.5 -129.5t-210.5 -46zM645 20q105 0 192.5 43t151.5 120.5t99.5 185t35.5 237.5
t-35.5 237.5t-99.5 185t-151.5 120.5t-192.5 43t-193 -43t-151.5 -120.5t-99 -185t-35.5 -237.5t35.5 -237.5t99 -185t151.5 -120.5t193 -43zM461 1368h368v-49h-368v49z" />
    <glyph glyph-name="Otilde.aalt" horiz-adv-x="1292" 
d="M645 -25q-115 0 -212 46t-167 129.5t-109.5 199.5t-39.5 256t39.5 256t109.5 199.5t167 129.5t212 46q114 0 210.5 -46t167.5 -129.5t111 -199.5t40 -256t-40 -256t-111 -199.5t-167.5 -129.5t-210.5 -46zM645 20q105 0 192.5 43t151.5 120.5t99.5 185t35.5 237.5
t-35.5 237.5t-99.5 185t-151.5 120.5t-192.5 43t-193 -43t-151.5 -120.5t-99 -185t-35.5 -237.5t35.5 -237.5t99 -185t151.5 -120.5t193 -43zM340 1319q0 91 34.5 131.5t108.5 40.5q42 0 84.5 -20t87.5 -46q40 -23 78.5 -42t73.5 -19q52 0 74 30.5t22 96.5h47
q0 -91 -34.5 -131.5t-108.5 -40.5q-42 0 -86.5 21.5t-87.5 46.5q-38 21 -76.5 40t-73.5 19q-52 0 -74 -30.5t-22 -96.5h-47v0z" />
    <glyph glyph-name="Racute.aalt" horiz-adv-x="1159" 
d="M182 1212h391q109 0 191.5 -23t138 -64.5t83.5 -99t28 -126.5q0 -64 -23.5 -117t-69.5 -93t-114.5 -65t-157.5 -32l369 -592h-57l-367 590h-363v-590h-49v1212zM575 633q192 0 290 70.5t98 193.5q0 62 -24.5 112t-73.5 85t-121.5 54t-168.5 19h-344v-534h344zM725 1628
h88l-272 -309h-33z" />
    <glyph glyph-name="Rcaron.aalt" horiz-adv-x="1159" 
d="M182 1212h391q109 0 191.5 -23t138 -64.5t83.5 -99t28 -126.5q0 -64 -23.5 -117t-69.5 -93t-114.5 -65t-157.5 -32l369 -592h-57l-367 590h-363v-590h-49v1212zM575 633q192 0 290 70.5t98 193.5q0 62 -24.5 112t-73.5 85t-121.5 54t-168.5 19h-344v-534h344zM283 1638
h43l256 -254l252 254h43l-281 -319h-32z" />
    <glyph glyph-name="Rcommaaccent.aalt" horiz-adv-x="1159" 
d="M182 1212h391q109 0 191.5 -23t138 -64.5t83.5 -99t28 -126.5q0 -64 -23.5 -117t-69.5 -93t-114.5 -65t-157.5 -32l369 -592h-57l-367 590h-363v-590h-49v1212zM575 633q192 0 290 70.5t98 193.5q0 62 -24.5 112t-73.5 85t-121.5 54t-168.5 19h-344v-534h344zM579 -268
h-37v102h76v-90l-35 -172h-33z" />
    <glyph glyph-name="Sacute.aalt" horiz-adv-x="1118" 
d="M578 -25q-111 0 -190.5 25t-135 69t-91 103.5t-57.5 128.5l48 16q23 -68 56.5 -122.5t84 -93.5t121 -60t166.5 -21q84 0 153 18.5t117.5 53.5t75 84t26.5 111q0 67 -20 114t-64.5 83.5t-116.5 66t-176 61.5q-108 32 -183.5 62t-123 67.5t-69 88.5t-21.5 126q0 57 25 108
t72.5 89.5t117.5 61t160 22.5q89 0 157.5 -22.5t119.5 -60.5t86 -89t57 -109l-47 -16q-23 57 -55.5 103.5t-77.5 79.5t-104.5 51t-135.5 18q-81 0 -142.5 -19t-102 -51.5t-61 -75t-20.5 -90.5q0 -63 20 -107t64 -77t112.5 -60t166.5 -55q100 -30 177 -59.5t129 -70.5
t78.5 -98.5t26.5 -141.5q0 -73 -30.5 -131t-86 -98t-133.5 -61.5t-173 -21.5zM704 1628h88l-272 -309h-33z" />
    <glyph glyph-name="Scaron.aalt" horiz-adv-x="1118" 
d="M578 -25q-111 0 -190.5 25t-135 69t-91 103.5t-57.5 128.5l48 16q23 -68 56.5 -122.5t84 -93.5t121 -60t166.5 -21q84 0 153 18.5t117.5 53.5t75 84t26.5 111q0 67 -20 114t-64.5 83.5t-116.5 66t-176 61.5q-108 32 -183.5 62t-123 67.5t-69 88.5t-21.5 126q0 57 25 108
t72.5 89.5t117.5 61t160 22.5q89 0 157.5 -22.5t119.5 -60.5t86 -89t57 -109l-47 -16q-23 57 -55.5 103.5t-77.5 79.5t-104.5 51t-135.5 18q-81 0 -142.5 -19t-102 -51.5t-61 -75t-20.5 -90.5q0 -63 20 -107t64 -77t112.5 -60t166.5 -55q100 -30 177 -59.5t129 -70.5
t78.5 -98.5t26.5 -141.5q0 -73 -30.5 -131t-86 -98t-133.5 -61.5t-173 -21.5zM262 1638h43l256 -254l252 254h43l-281 -319h-32z" />
    <glyph glyph-name="Scedilla.aalt" horiz-adv-x="1118" 
d="M578 -25q-111 0 -190.5 25t-135 69t-91 103.5t-57.5 128.5l48 16q23 -68 56.5 -122.5t84 -93.5t121 -60t166.5 -21q84 0 153 18.5t117.5 53.5t75 84t26.5 111q0 67 -20 114t-64.5 83.5t-116.5 66t-176 61.5q-108 32 -183.5 62t-123 67.5t-69 88.5t-21.5 126q0 57 25 108
t72.5 89.5t117.5 61t160 22.5q89 0 157.5 -22.5t119.5 -60.5t86 -89t57 -109l-47 -16q-23 57 -55.5 103.5t-77.5 79.5t-104.5 51t-135.5 18q-81 0 -142.5 -19t-102 -51.5t-61 -75t-20.5 -90.5q0 -63 20 -107t64 -77t112.5 -60t166.5 -55q100 -30 177 -59.5t129 -70.5
t78.5 -98.5t26.5 -141.5q0 -73 -30.5 -131t-86 -98t-133.5 -61.5t-173 -21.5zM565 -397q-63 0 -129 19.5t-119 58.5l25 34q49 -35 107.5 -52t115.5 -17q37 0 70 8t58 24t39.5 41t14.5 60q0 32 -27.5 55t-70.5 23q-25 0 -56.5 -11.5t-80.5 -46.5l-33 25l51 176h45l-45 -150
q22 22 54.5 36t64.5 14q31 0 58 -9.5t46.5 -26t30.5 -38.5t11 -47q0 -44 -18 -77t-49.5 -55t-73 -33t-89.5 -11z" />
    <glyph glyph-name="glyph422" 
 />
    <glyph glyph-name="glyph423" 
 />
    <glyph glyph-name="glyph424" 
 />
    <glyph glyph-name="Tcaron.aalt" horiz-adv-x="1073" 
d="M514 1167h-446v45h938v-45h-443v-1167h-49v1167zM240 1638h43l256 -254l252 254h43l-281 -319h-32z" />
    <glyph glyph-name="Tcommaaccent.aalt" horiz-adv-x="1073" 
d="M514 1167h-446v45h938v-45h-443v-1167h-49v1167zM536 -268h-37v102h76v-90l-35 -172h-33z" />
    <glyph glyph-name="Uacute.aalt" horiz-adv-x="1253" 
d="M627 -25q-108 0 -193 33t-143 89.5t-88.5 132t-30.5 161.5v821h49v-819q0 -77 27 -145t79 -118.5t127.5 -80t172.5 -29.5q94 0 169.5 29t128.5 78.5t81 115t28 138.5v831h47v-833q0 -81 -32 -154.5t-91 -129t-143 -88t-188 -32.5zM772 1628h88l-272 -309h-33z" />
    <glyph glyph-name="glyph428" 
 />
    <glyph glyph-name="Ucircumflex.aalt" horiz-adv-x="1253" 
d="M627 -25q-108 0 -193 33t-143 89.5t-88.5 132t-30.5 161.5v821h49v-819q0 -77 27 -145t79 -118.5t127.5 -80t172.5 -29.5q94 0 169.5 29t128.5 78.5t81 115t28 138.5v831h47v-833q0 -81 -32 -154.5t-91 -129t-143 -88t-188 -32.5zM611 1628h32l281 -319h-43l-256 254
l-252 -254h-43z" />
    <glyph glyph-name="Udieresis.aalt" horiz-adv-x="1253" 
d="M627 -25q-108 0 -193 33t-143 89.5t-88.5 132t-30.5 161.5v821h49v-819q0 -77 27 -145t79 -118.5t127.5 -80t172.5 -29.5q94 0 169.5 29t128.5 78.5t81 115t28 138.5v831h47v-833q0 -81 -32 -154.5t-91 -129t-143 -88t-188 -32.5zM443 1419h67v-100h-67v100zM744 1419h67
v-100h-67v100z" />
    <glyph glyph-name="Ugrave.aalt" horiz-adv-x="1253" 
d="M627 -25q-108 0 -193 33t-143 89.5t-88.5 132t-30.5 161.5v821h49v-819q0 -77 27 -145t79 -118.5t127.5 -80t172.5 -29.5q94 0 169.5 29t128.5 78.5t81 115t28 138.5v831h47v-833q0 -81 -32 -154.5t-91 -129t-143 -88t-188 -32.5zM394 1628h88l217 -309h-33z" />
    <glyph glyph-name="Uhungarumlaut.aalt" horiz-adv-x="1253" 
d="M627 -25q-108 0 -193 33t-143 89.5t-88.5 132t-30.5 161.5v821h49v-819q0 -77 27 -145t79 -118.5t127.5 -80t172.5 -29.5q94 0 169.5 29t128.5 78.5t81 115t28 138.5v831h47v-833q0 -81 -32 -154.5t-91 -129t-143 -88t-188 -32.5zM623 1628h88l-272 -309h-33zM924 1628
h88l-272 -309h-33z" />
    <glyph glyph-name="Umacron.aalt" horiz-adv-x="1253" 
d="M627 -25q-108 0 -193 33t-143 89.5t-88.5 132t-30.5 161.5v821h49v-819q0 -77 27 -145t79 -118.5t127.5 -80t172.5 -29.5q94 0 169.5 29t128.5 78.5t81 115t28 138.5v831h47v-833q0 -81 -32 -154.5t-91 -129t-143 -88t-188 -32.5zM443 1368h368v-49h-368v49z" />
    <glyph glyph-name="Uogonek.aalt" horiz-adv-x="1253" 
d="M627 -25q-108 0 -193 33t-143 89.5t-88.5 132t-30.5 161.5v821h49v-819q0 -77 27 -145t79 -118.5t127.5 -80t172.5 -29.5q94 0 169.5 29t128.5 78.5t81 115t28 138.5v831h47v-833q0 -81 -32 -154.5t-91 -129t-143 -88t-188 -32.5zM645 -379q-82 0 -133 37t-51 109
q0 37 15.5 71.5t41.5 64.5t59.5 55.5t69.5 45.5h59q-31 -17 -65.5 -40.5t-64 -53.5t-49 -66t-19.5 -77q0 -28 10.5 -48t29 -33t43.5 -19.5t54 -6.5q42 0 85.5 11t86.5 34l18 -35q-49 -26 -97 -37.5t-93 -11.5z" />
    <glyph glyph-name="Uring.aalt" horiz-adv-x="1253" 
d="M627 -25q-108 0 -193 33t-143 89.5t-88.5 132t-30.5 161.5v821h49v-819q0 -77 27 -145t79 -118.5t127.5 -80t172.5 -29.5q94 0 169.5 29t128.5 78.5t81 115t28 138.5v831h47v-833q0 -81 -32 -154.5t-91 -129t-143 -88t-188 -32.5zM627 1323q-38 0 -71 13.5t-57 37.5
t-38 56.5t-14 70.5t14 70t38 55.5t57 37t71 13.5t71 -13.5t57 -37t38 -55.5t14 -70t-14 -70.5t-38 -56.5t-57 -37.5t-71 -13.5zM627 1368q59 0 96 37t37 96q0 28 -10 52.5t-27.5 41.5t-42 27t-53.5 10t-53.5 -10t-42 -27t-27.5 -41.5t-10 -52.5q0 -59 37 -96t96 -37z" />
    <glyph glyph-name="glyph436" 
 />
    <glyph glyph-name="glyph437" 
 />
    <glyph glyph-name="glyph438" 
 />
    <glyph glyph-name="glyph439" 
 />
    <glyph glyph-name="glyph440" 
 />
    <glyph glyph-name="Yacute.aalt" horiz-adv-x="1057" 
d="M504 551l-447 661h56l415 -618l416 618h53l-444 -661v-551h-49v551zM673 1628h88l-272 -309h-33z" />
    <glyph glyph-name="glyph442" 
 />
    <glyph glyph-name="Ydieresis.aalt" horiz-adv-x="1057" 
d="M504 551l-447 661h56l415 -618l416 618h53l-444 -661v-551h-49v551zM344 1419h67v-100h-67v100zM645 1419h67v-100h-67v100z" />
    <glyph glyph-name="glyph444" 
 />
    <glyph glyph-name="Zacute.aalt" horiz-adv-x="1083" 
d="M84 43l848 1124h-803v45h860v-43l-846 -1124h842v-45h-901v43zM686 1628h88l-272 -309h-33z" />
    <glyph glyph-name="Zcaron.aalt" horiz-adv-x="1083" 
d="M84 43l848 1124h-803v45h860v-43l-846 -1124h842v-45h-901v43zM244 1638h43l256 -254l252 254h43l-281 -319h-32z" />
    <glyph glyph-name="Zdotaccent.aalt" horiz-adv-x="1083" 
d="M84 43l848 1124h-803v45h860v-43l-846 -1124h842v-45h-901v43zM506 1511h70v-90h-70v90z" />
    <glyph glyph-name="exclamdown.aalt" horiz-adv-x="524" 
d="M246 952h33l10 -952h-53zM221 1212h82v-94h-82v94z" />
    <glyph glyph-name="exclam.aalt" horiz-adv-x="524" 
d="M221 94h82v-94h-82v94zM236 1212h53l-10 -952h-33z" />
    <glyph glyph-name="questiondown.aalt" horiz-adv-x="924" 
d="M465 -25q-82 0 -148.5 21t-114 59t-73 92.5t-25.5 122.5q0 59 17.5 102t49 76.5t75 62t96.5 58.5q60 36 93.5 67.5t50 72t20.5 94.5t4 135h47q1 -89 -3.5 -148.5t-23.5 -102.5t-56.5 -77t-102.5 -71q-50 -29 -90 -55t-68.5 -56t-43.5 -68t-15 -90q0 -58 22.5 -104.5
t63.5 -78.5t98.5 -49.5t128.5 -17.5q61 0 113.5 16.5t95.5 42.5t75.5 59t53.5 65l39 -25q-23 -35 -59 -71.5t-84 -65.5t-107.5 -47.5t-128.5 -18.5zM489 1212h84v-94h-84v94z" />
    <glyph glyph-name="question.aalt" horiz-adv-x="924" 
d="M369 274q-1 89 3.5 148.5t23.5 103t56.5 77t102.5 71.5q50 29 90 55t68.5 56t43.5 67.5t15 89.5q0 58 -22.5 104.5t-63.5 79t-99 49.5t-128 17q-61 0 -113.5 -16.5t-95.5 -42.5t-75.5 -58.5t-53.5 -64.5l-39 24q22 35 58 71t84 65.5t108 48t129 18.5q82 0 148.5 -21
t113.5 -59t72.5 -93t25.5 -122q0 -59 -17 -102t-48.5 -77t-75 -62t-96.5 -58q-60 -35 -94 -67t-50.5 -72t-20 -94.5t-3.5 -135.5h-47zM352 94h84v-94h-84v94z" />
    <glyph glyph-name="slash.c2sc" horiz-adv-x="850" 
d="M752 1212h51l-705 -1212h-51z" />
    <glyph glyph-name="backslash.aalt" horiz-adv-x="850" 
d="M47 1212h51l705 -1212h-51z" />
    <glyph glyph-name="glyph455" 
 />
    <glyph glyph-name="glyph473" 
 />
    <glyph glyph-name="glyph474" 
 />
    <glyph glyph-name="zero.tnum.zero" horiz-adv-x="1331" 
d="M666 -31q-130 0 -229.5 59t-166.5 164t-101 250t-34 316t34 315.5t101 249.5t166.5 164t229.5 59t228.5 -59t165 -164t100.5 -249.5t34 -315.5t-34 -316t-100.5 -250t-165 -164t-228.5 -59zM186 758q0 -146 24.5 -271.5t74.5 -222.5l741 1021q-60 101 -149.5 157.5
t-210.5 56.5t-211 -56t-150 -155.5t-89.5 -235t-29.5 -294.5zM666 18q120 0 210 56t149 155t88.5 234.5t29.5 294.5q0 142 -23 264t-70 219l-740 -1019q60 -97 148.5 -150.5t207.5 -53.5z" />
    <glyph glyph-name="zero.tnum" horiz-adv-x="1331" 
d="M666 -31q-130 0 -229.5 59t-166.5 164t-101 250t-34 316t34 315.5t101 249.5t166.5 164t229.5 59t228.5 -59t165 -164t100.5 -249.5t34 -315.5t-34 -316t-100.5 -250t-165 -164t-228.5 -59zM666 18q120 0 210 56t149 155t88.5 234.5t29.5 294.5t-29.5 294.5t-88.5 235
t-149 155.5t-210 56q-121 0 -211 -56t-150 -155.5t-89.5 -235t-29.5 -294.5t29.5 -294.5t89.5 -234.5t150 -155t211 -56z" />
    <glyph glyph-name="one.tnum" horiz-adv-x="1331" 
d="M346 49h334v1403q-29 -22 -69 -38t-84.5 -26t-90 -15t-86.5 -5v49q110 0 197.5 25.5t138.5 73.5h45v-1467h307v-49h-692v49z" />
    <glyph glyph-name="two.tnum" horiz-adv-x="1331" 
d="M190 0v12.5t1 17.5q1 11 2 23q2 65 11.5 119t31 102.5t58.5 94t96 95t142 105.5t197 125q91 55 156.5 107t107 104.5t61 108.5t19.5 121q0 84 -26 151.5t-75.5 114t-121 71.5t-162.5 25q-82 0 -149.5 -23.5t-121 -62.5t-93 -89.5t-64.5 -104.5l-45 20q27 60 71 116
t104 98.5t135 68.5t163 26q100 0 181 -28t137.5 -81.5t87 -129.5t30.5 -172q0 -73 -22 -136t-68 -120.5t-116.5 -112.5t-167.5 -113q-110 -67 -190 -120.5t-135.5 -100t-90 -89.5t-54 -88t-27 -95t-9.5 -111h876v-49h-930v0z" />
    <glyph glyph-name="three.tnum" horiz-adv-x="1331" 
d="M641 -31q-103 0 -184 25t-142.5 66t-105.5 92.5t-72 105.5l41 27q25 -48 64 -96t95.5 -86.5t131.5 -62.5t172 -24q93 0 171 28t135 78.5t88.5 120.5t31.5 154q0 88 -28 160t-87.5 123.5t-150.5 79.5t-217 28h-99v48h95q92 0 174.5 17.5t145 56.5t99.5 100.5t37 148.5
q0 78 -24 140.5t-72.5 107t-120.5 68.5t-168 24q-74 0 -134.5 -19t-109 -49.5t-85 -69.5t-62.5 -79l-41 27q26 43 67 85t95.5 76t122 55t147.5 21q111 0 193 -27.5t136 -78t80.5 -122t26.5 -159.5q0 -71 -26.5 -131t-74.5 -105t-115 -73.5t-148 -36.5q97 -10 170.5 -43
t123.5 -86t75.5 -125.5t25.5 -161.5q0 -95 -35 -173.5t-98 -135t-151 -88t-193 -31.5z" />
    <glyph glyph-name="four.tnum" horiz-adv-x="1331" 
d="M885 416h-740v47l740 1053h51v-1053h272v-47h-272v-416h-51v416zM885 463v973l-682 -973h682z" />
    <glyph glyph-name="five.tnum" horiz-adv-x="1331" 
d="M637 -31q-105 0 -186.5 31.5t-141 76.5t-96 94.5t-51.5 84.5l47 23q13 -32 46.5 -76.5t87 -85.5t127 -70t167.5 -29q115 0 201 39t143 105t85 153t28 183q0 105 -32 186t-87.5 136.5t-130.5 84.5t-160 29q-68 0 -128 -18t-109.5 -47.5t-88 -68.5t-63.5 -81l-47 14l63 783
h742v-50h-695l-57 -671q19 30 54.5 62.5t85 60t111 45.5t132.5 18q96 0 180 -31.5t146.5 -92.5t98.5 -151.5t36 -207.5q0 -107 -31.5 -203t-94.5 -168.5t-158.5 -115t-223.5 -42.5z" />
    <glyph glyph-name="six.tnum" horiz-adv-x="1331" 
d="M694 -31q-63 0 -126 17t-121 55t-108.5 97.5t-87.5 144t-58 196t-21 252.5q0 180 36.5 329.5t108 257.5t176 168t240.5 60q53 0 100.5 -7.5t92.5 -24t89.5 -43.5t92.5 -66l-33 -39q-45 37 -86 62.5t-82 41.5t-83.5 22.5t-90.5 6.5q-123 0 -218 -55t-160.5 -155.5
t-99.5 -242t-34 -315.5v-37q31 37 81 79.5t112 78.5t134 60t148 24q132 0 224 -39.5t150.5 -105t85 -149.5t26.5 -173q0 -101 -33.5 -191.5t-96.5 -159t-153.5 -109t-204.5 -40.5zM694 16q103 0 184 37t137 99.5t85.5 144.5t29.5 172q0 80 -23.5 155.5t-75.5 134.5
t-134.5 94.5t-200.5 35.5q-82 0 -155.5 -26t-134.5 -65t-108 -84t-75 -83q8 -112 31.5 -201t58.5 -157t79.5 -117t94.5 -80t102.5 -45.5t104.5 -14.5z" />
    <glyph glyph-name="seven.tnum" horiz-adv-x="1331" 
d="M1079 1468h-862v48h913v-48l-700 -1468h-53z" />
    <glyph glyph-name="eight.tnum" horiz-adv-x="1331" 
d="M672 -31q-114 0 -212 27.5t-170 78.5t-112.5 125t-40.5 167q0 90 40.5 158t106.5 119.5t150.5 90.5t171.5 72q-75 28 -144 60t-121.5 74.5t-84 99.5t-31.5 135q0 84 35 152t95.5 116.5t142 75t174.5 26.5t174.5 -26.5t142.5 -75t96 -116.5t35 -152q0 -76 -32 -132
t-85.5 -98.5t-124 -75t-147.5 -61.5q87 -33 170 -72.5t148.5 -91.5t105 -120t39.5 -158q0 -93 -38.5 -167t-108 -125t-165.5 -78.5t-210 -27.5zM672 18q102 0 188.5 23.5t149 68.5t98 109.5t35.5 147.5q0 86 -42 149.5t-109.5 112t-153 85.5t-172.5 70q-89 -33 -174.5 -70.5
t-153 -86t-109 -112t-41.5 -148.5q0 -83 37 -147.5t102.5 -109.5t154 -68.5t190.5 -23.5zM674 831q78 29 149 59.5t126 69.5t87.5 91t32.5 125t-31 132.5t-85 102t-126.5 65.5t-154.5 23t-154 -23t-126 -65.5t-85 -102t-31 -132.5q0 -72 33 -124t88.5 -91t127 -69.5
t149.5 -60.5z" />
    <glyph glyph-name="nine.tnum" horiz-adv-x="1331" 
d="M598 -31q-53 0 -100.5 7.5t-92.5 24t-89.5 44t-92.5 66.5l33 39q45 -38 86 -63.5t82 -41.5t83.5 -22.5t90.5 -6.5q123 0 218.5 55t160.5 155.5t99 242.5t34 315v37q-32 -37 -81.5 -79t-111.5 -78t-134 -60t-148 -24q-131 0 -223.5 39.5t-150.5 104.5t-84.5 149.5
t-26.5 173.5q0 100 33 191t96 159t153.5 108.5t204.5 40.5q63 0 126 -17t121 -54.5t108.5 -97t87.5 -144.5t58 -196.5t21 -252.5q0 -180 -36.5 -329.5t-108 -257.5t-176 -168t-240.5 -60zM635 627q82 0 155.5 26t134.5 64.5t107.5 83.5t75.5 84q-8 111 -31.5 200
t-58.5 157.5t-79.5 117t-94.5 79.5t-102.5 45.5t-104.5 14.5q-103 0 -184 -37t-137 -99.5t-85.5 -144t-29.5 -171.5q0 -80 24 -155.5t76 -134.5t134.5 -94.5t199.5 -35.5z" />
    <glyph glyph-name="plus.tnum" horiz-adv-x="1331" 
d="M641 641h-489v47h489v483h51v-483h488v-47h-488v-485h-51v485z" />
    <glyph glyph-name="glyph489" 
 />
    <glyph glyph-name="multiply.tnum" horiz-adv-x="1331" 
d="M256 287l375 377l-355 356l33 33l357 -357l354 357l33 -33l-357 -354l379 -379l-33 -33l-378 377l-377 -375z" />
    <glyph glyph-name="divide.tnum" horiz-adv-x="1331" 
d="M152 688h1028v-47h-1028v47zM621 1069h86v-117h-86v117zM621 375h86v-117h-86v117z" />
    <glyph glyph-name="equal.tnum" horiz-adv-x="1331" 
d="M147 922h1035v-48h-1035v48zM147 461h1035v-47h-1035v47z" />
    <glyph glyph-name="less.tnum" horiz-adv-x="1331" 
d="M115 643v47l1054 449v-49l-1001 -424l1001 -428v-50z" />
    <glyph glyph-name="greater.tnum" horiz-adv-x="1331" 
d="M162 238l1001 424l-1001 428v49l1055 -455v-47l-1055 -449v50z" />
    <glyph glyph-name="dollar.tnum" horiz-adv-x="1331" 
d="M639 -29q-101 4 -176 28t-131 64t-95 93.5t-67 117.5l47 21q28 -62 63.5 -111.5t85 -85t116.5 -56.5t157 -26v770q-122 39 -202.5 77.5t-128.5 85.5t-67.5 107t-19.5 144q0 66 28 127t82 109t131.5 77.5t176.5 32.5v131h51v-131q75 -4 137 -23t112 -50.5t88 -73.5t67 -90
l-43 -27q-28 45 -63.5 83t-80 66.5t-99 46t-118.5 21.5v-678q129 -41 221.5 -81.5t151.5 -92t87 -121.5t28 -170q0 -88 -36.5 -159.5t-101.5 -121.5t-154.5 -77.5t-195.5 -28.5v-159h-51v161zM639 1499q-87 -3 -155.5 -28.5t-115.5 -66.5t-71.5 -93.5t-24.5 -110.5
q0 -75 19 -127.5t62 -93t113 -73t173 -66.5v659zM690 16q99 1 179.5 25.5t137.5 69t88 106.5t31 139q0 81 -22 141t-73 107.5t-134.5 86t-206.5 77.5v-752z" />
    <glyph glyph-name="cent.aalt" horiz-adv-x="1331" 
d="M487 31q-57 33 -103 85t-78 118t-49 143t-17 160q0 145 39.5 251t104.5 175t147.5 102t168.5 33q20 0 40 -1t32 -3l57 213h43l-59 -222q51 -14 91 -39t73 -60.5t59.5 -81t50.5 -99.5l-40 -21q-22 49 -46 91t-53.5 75t-65.5 56.5t-81 35.5l-262 -987q34 -15 71.5 -23.5
t77.5 -8.5q70 0 124 18.5t97.5 54t79 87t68.5 118.5l41 -20q-36 -73 -76 -129.5t-88.5 -95.5t-108.5 -59t-137 -20q-43 0 -84 9t-78 24l-71 -272h-43zM760 1049q-13 2 -28 3t-32 1q-78 0 -152.5 -31t-132 -94.5t-93 -160.5t-35.5 -230q0 -74 14.5 -143t42 -129t67 -108.5
t89.5 -80.5z" />
    <glyph glyph-name="Euro.tnum" horiz-adv-x="1331" 
d="M731 -31q-112 0 -208 45.5t-170 127t-123.5 195t-69.5 249.5h-234v47h228q-8 62 -8.5 130t6.5 130h-226v47h232q20 135 69.5 246.5t123 191.5t167 124t201.5 44q112 0 193 -38t138.5 -101.5t96 -146t65.5 -170.5l-49 -17q-25 81 -59 158t-85.5 136.5t-124 95.5t-175.5 36
q-98 0 -183 -41t-151 -115t-111.5 -176.5t-64.5 -226.5h522v-47h-528q-6 -62 -6 -130t8 -130h526v-47h-520q20 -125 65 -229.5t112 -180t153.5 -118t189.5 -42.5q111 0 189 41.5t130.5 106t85.5 143t54 152.5l49 -13q-11 -42 -29.5 -93.5t-46.5 -104.5t-67 -103t-91.5 -89.5
t-120.5 -63t-153 -23.5z" />
    <glyph glyph-name="sterling.tnum" horiz-adv-x="1331" 
d="M367 -31q-48 0 -88.5 14t-70 40t-45.5 62t-16 81q0 52 16 92t44.5 67t67 40.5t83.5 13.5q39 0 73 -10.5t63.5 -28.5t56 -42.5t51.5 -51.5q8 29 11 62t3 67q0 96 -28.5 197.5t-91.5 209.5h-256v47h229q-65 115 -93 209t-28 172q0 86 30.5 149.5t81 105t116 61.5t135.5 20
q65 0 117.5 -16t93 -43.5t70 -64.5t49 -79t29 -86.5t11.5 -87.5h-49q-2 55 -20.5 113.5t-57 106.5t-98.5 79t-145 31q-61 0 -117 -17t-99.5 -52.5t-69.5 -90t-26 -129.5q0 -78 30.5 -170.5t96.5 -210.5h365v-47h-338q62 -108 88.5 -211t26.5 -196q0 -97 -27 -176
q28 -34 58.5 -66.5t66 -58t78 -41t94.5 -15.5q58 0 98 24.5t65.5 69.5t37.5 108.5t14 141.5h51q-2 -92 -18.5 -164.5t-49.5 -123t-82 -77t-116 -26.5q-54 0 -99 15t-83 39.5t-70.5 57t-62.5 67.5q-42 -85 -107.5 -133t-148.5 -48zM367 16q75 0 131 47t88 127
q-25 26 -48.5 51.5t-50 45.5t-58 32.5t-71.5 12.5q-69 0 -113 -43t-44 -123q0 -68 45 -109t121 -41z" />
    <glyph glyph-name="yen.tnum" horiz-adv-x="1331" 
d="M639 285h-416v47h416v260h-416v47h416v51l-516 826h55l488 -779l489 779h53l-518 -826v-51h420v-47h-420v-260h420v-47h-420v-285h-51v285z" />
    <glyph glyph-name="florin.tnum" horiz-adv-x="1331" 
d="M272 -371q-17 0 -39 1.5t-34 4.5l4 46q12 -4 32 -5.5t37 -1.5q94 0 147.5 39t65.5 127l166 1155h-200l6 45h200l31 217q10 70 37.5 119.5t71 81t102 46t129.5 14.5h57v-45h-57q-65 0 -115.5 -12t-87 -39t-59.5 -69.5t-33 -103.5l-28 -209h301l-7 -45h-301l-168 -1163
q-8 -53 -29.5 -91.5t-55 -63t-77.5 -36.5t-96 -12z" />
    <glyph glyph-name="numbersign.tnum" horiz-adv-x="1331" 
d="M309 479h-256v47h266l99 469h-273v47h283l98 474h47l-98 -474h496l98 474h47l-98 -474h260v-47h-270l-99 -469h277v-47h-287l-100 -479h-47l100 479h-496l-100 -479h-47zM862 526l99 469h-496l-98 -469h495z" />
    <glyph glyph-name="percent.tnum" horiz-adv-x="2007" 
d="M512 637q-72 0 -130.5 30.5t-99.5 87.5t-63 139.5t-22 186.5q0 105 23 187.5t64.5 140.5t100.5 88.5t131 30.5t131.5 -30.5t102 -88.5t65.5 -140.5t23 -187.5q0 -104 -24 -186.5t-67 -139.5t-103 -87.5t-132 -30.5zM1483 -12q-72 0 -130.5 30.5t-100 87.5t-63.5 139.5
t-22 186.5q0 105 23 187.5t65 140.5t101 88.5t131 30.5t131 -30.5t101.5 -88.5t65.5 -140.5t23 -187.5q0 -104 -24 -186.5t-66.5 -139.5t-102.5 -87.5t-132 -30.5zM512 684q63 0 113.5 28t86.5 80t55 125.5t19 163.5q0 91 -18.5 164.5t-53.5 126t-85 81t-113 28.5
t-113 -28.5t-84.5 -81t-52.5 -126t-18 -164.5q0 -90 17.5 -163.5t51.5 -125.5t83 -80t112 -28zM1483 35q63 0 113.5 28t86.5 79.5t55 125t19 164.5t-18.5 164.5t-53.5 125.5t-85 80.5t-113 28.5t-113 -28.5t-84.5 -80.5t-52.5 -125.5t-18 -164.5t17.5 -164.5t51.5 -125
t83 -79.5t112 -28zM1423 1516h52l-904 -1516h-51z" />
    <glyph glyph-name="glyph503" 
 />
    <glyph glyph-name="glyph504" 
 />
    <glyph glyph-name="period.aalt" horiz-adv-x="666" 
d="M289 106h88v-106h-88v106z" />
    <glyph glyph-name="comma.aalt" horiz-adv-x="666" 
d="M328 0h-39v106h88v-94l-49 -182h-33z" />
    <glyph glyph-name="colon.aalt" horiz-adv-x="666" 
d="M289 106h88v-106h-88v106zM289 1075h88v-106h-88v106z" />
    <glyph glyph-name="semicolon.aalt" horiz-adv-x="666" 
d="M328 0h-39v106h88v-94l-49 -182h-33zM289 1075h88v-106h-88v106z" />
    <glyph glyph-name="parenleft.aalt" horiz-adv-x="666" 
d="M580 -420q-251 211 -377.5 447.5t-126.5 519.5q0 281 126.5 517.5t377.5 446.5l18 -26q-105 -90 -190.5 -195.5t-145.5 -224t-92.5 -248.5t-32.5 -270t32.5 -270.5t92.5 -249t144.5 -223.5t189.5 -195l-16 -29v0z" />
    <glyph glyph-name="parenright.aalt" horiz-adv-x="666" 
d="M68 -391q104 90 188.5 195t144.5 223.5t92.5 249t32.5 270.5t-32.5 270t-92.5 248.5t-145 224t-190 195.5l18 26q250 -210 377 -446.5t127 -517.5q0 -141 -32 -270.5t-95 -249t-157.5 -231t-219.5 -216.5z" />
    <glyph glyph-name="asterisk.aalt" horiz-adv-x="1331" 
d="M428 813l225 324l-395 -27v72l395 -27l-225 324l68 39l170 -357l170 357l67 -39l-225 -324l395 27v-72l-395 27l225 -324l-67 -39l-170 356l-170 -356z" />
    <glyph glyph-name="periodcentered.aalt" horiz-adv-x="666" 
d="M289 698h86v-131h-86v131z" />
    <glyph glyph-name="glyph515" 
 />
    <glyph glyph-name="glyph516" 
 />
    <glyph glyph-name="glyph517" 
 />
    <glyph glyph-name="zero.c2sc.zero" horiz-adv-x="1016" 
d="M508 -25q-99 0 -176 45t-129.5 127.5t-79.5 198.5t-27 258t27 258.5t79.5 200t129.5 129t176 45.5t175.5 -45.5t129 -129t80 -200t27.5 -258.5t-27.5 -258t-80 -198.5t-129 -127.5t-175.5 -45zM145 604q0 -125 21 -226t61 -176l534 851q-47 67 -110.5 103t-142.5 36
q-84 0 -151.5 -41t-114.5 -117t-72 -185t-25 -245zM508 20q84 0 151.5 40.5t114 116t71.5 183.5t25 244q0 125 -21 227t-61 177l-532 -853q47 -66 110.5 -100.5t141.5 -34.5z" />
    <glyph glyph-name="zero.c2sc" horiz-adv-x="1016" 
d="M508 -25q-99 0 -176 45t-129.5 127.5t-79.5 198.5t-27 258t27 258.5t79.5 200t129.5 129t176 45.5t175.5 -45.5t129 -129t80 -200t27.5 -258.5t-27.5 -258t-80 -198.5t-129 -127.5t-175.5 -45zM508 20q84 0 151.5 40.5t114 116t71.5 183.5t25 244t-25 245t-71.5 185
t-114 117t-151.5 41t-151.5 -41t-114.5 -117t-72 -185t-25 -245t25 -244t72 -183.5t114.5 -116t151.5 -40.5z" />
    <glyph glyph-name="one.c2sc" horiz-adv-x="723" 
d="M63 45h308v1098q-53 -35 -132 -57.5t-165 -22.5v47q91 0 171.5 26.5t133.5 75.5h41v-1167h274v-45h-631v45z" />
    <glyph glyph-name="two.c2sc" horiz-adv-x="932" 
d="M82 43q5 85 27 146.5t70.5 116.5t129 113.5t203.5 137.5q67 43 118 83.5t84.5 83t50.5 89t17 102.5q0 64 -21.5 115t-61 87t-96 55.5t-126.5 19.5q-67 0 -120.5 -19.5t-95.5 -51.5t-72.5 -72.5t-51.5 -83.5l-43 20q23 48 57.5 93.5t81.5 81t107.5 56.5t136.5 21
q81 0 146.5 -23t111.5 -65t71 -101.5t25 -132.5q0 -61 -18.5 -113t-55.5 -99t-92.5 -92t-129.5 -93q-77 -50 -137 -90t-104.5 -75t-74.5 -68.5t-49.5 -69.5t-28.5 -77t-10 -93h688v-45h-737v43z" />
    <glyph glyph-name="three.c2sc" horiz-adv-x="930" 
d="M451 -25q-83 0 -147 21t-112 54t-83.5 74t-61.5 81l41 28q26 -41 60 -79t78 -68t99.5 -48t125.5 -18q74 0 135.5 22.5t106 63t69 97t24.5 123.5q0 152 -97 225.5t-279 73.5h-82v45h86q67 0 129.5 13t111 42.5t78 78t29.5 120.5q0 133 -73.5 203.5t-219.5 70.5
q-60 0 -110.5 -15t-91 -39t-71 -55.5t-51.5 -64.5l-36 25q24 36 58.5 71t80 62t101 44t120.5 17q84 0 148 -23t107 -64.5t65 -100.5t22 -131q0 -64 -22 -112t-58 -82t-81 -54.5t-91 -28.5q131 -20 204 -100.5t73 -220.5q0 -78 -28 -142.5t-79 -111t-122 -72t-156 -25.5z" />
    <glyph glyph-name="four.c2sc" horiz-adv-x="932" 
d="M641 322h-578v38l560 852h65v-845h199v-45h-199v-322h-47v322zM641 367v790l-522 -790h522z" />
    <glyph glyph-name="five.c2sc" horiz-adv-x="934" 
d="M459 -25q-117 0 -215.5 52t-167.5 172l41 26q55 -99 140.5 -152t201.5 -53q81 0 144.5 28.5t108 78.5t68 118t23.5 146q0 88 -24.5 153t-67.5 108t-102 64t-128 21q-100 0 -173.5 -44t-127.5 -122l-41 13l45 628h594v-47h-553l-39 -522q21 27 50.5 52t67 44.5t82 31
t95.5 11.5q78 0 146 -24.5t118 -73t78.5 -122t28.5 -171.5q0 -87 -28 -163t-79 -132.5t-123.5 -88.5t-162.5 -32z" />
    <glyph glyph-name="six.c2sc" horiz-adv-x="942" 
d="M506 -25q-78 0 -152.5 34t-132 108t-92.5 189.5t-35 279.5q0 138 29 257t85 206.5t137.5 137.5t186.5 50q89 0 153 -27t112 -67l-31 -39q-43 37 -98.5 62.5t-135.5 25.5q-94 0 -167.5 -47t-123.5 -131t-75 -199.5t-23 -251.5q25 31 63 64t85.5 61t103.5 46t117 18
q93 0 160.5 -32t111.5 -84.5t65 -120t21 -138.5q0 -81 -25.5 -153.5t-73 -128t-114.5 -88t-151 -32.5zM506 20q72 0 130 28t99.5 76.5t63.5 113.5t22 139q0 62 -17 121.5t-54 106t-95.5 74.5t-142.5 28q-64 0 -121.5 -21.5t-105.5 -52.5t-84 -66t-56 -63q9 -130 42 -221.5
t82.5 -150t110.5 -85.5t126 -27z" />
    <glyph glyph-name="seven.c2sc" horiz-adv-x="889" 
d="M213 0l535 1167h-644v45h693v-45l-535 -1167h-49z" />
    <glyph glyph-name="eight.c2sc" horiz-adv-x="950" 
d="M475 -29q-97 0 -171.5 26.5t-125 70t-76.5 100t-26 117.5q0 68 23.5 121.5t67 96.5t105 78.5t138.5 67.5q-69 30 -121 61t-87 66t-53 77t-18 93q0 55 23 107t67.5 93t108.5 66t145 25q83 0 146.5 -25t107 -66.5t66 -93.5t22.5 -106q0 -57 -20.5 -100t-58.5 -77.5
t-91.5 -63t-118.5 -56.5q84 -36 148.5 -72.5t108.5 -79.5t66.5 -95t22.5 -119q0 -58 -26 -114t-76 -100t-125 -71t-172 -27zM475 16q75 0 139.5 20.5t111 56t73 84.5t26.5 106q0 62 -23.5 110.5t-69 88.5t-111.5 74.5t-150 70.5q-91 -36 -156.5 -71.5t-107.5 -76t-62 -88
t-20 -106.5q0 -58 26 -107t72.5 -85t111 -56.5t140.5 -20.5zM469 672q77 32 133.5 61t93 60.5t54.5 68t18 84.5q0 41 -16.5 84.5t-51.5 79.5t-91 59t-134 23q-75 0 -130 -22.5t-92 -58t-55 -78.5t-18 -85q0 -45 17 -81t52 -68t90 -62.5t130 -64.5z" />
    <glyph glyph-name="nine.c2sc" horiz-adv-x="940" 
d="M408 -25q-89 0 -153 27t-112 68l31 39q43 -38 98.5 -63.5t135.5 -25.5q94 0 167.5 47.5t123.5 131.5t75 199t23 251q-25 -31 -63 -64t-85.5 -60.5t-103.5 -45.5t-117 -18q-93 0 -160.5 31.5t-111.5 84t-65 120t-21 139.5q0 81 25.5 153.5t73 127.5t114.5 87.5t151 32.5
q78 0 152.5 -34t132 -107.5t92.5 -189.5t35 -279q0 -138 -29 -257.5t-85 -207t-137.5 -137.5t-186.5 -50zM428 506q64 0 121.5 21.5t105.5 52.5t84 66t56 63q-9 130 -42 221.5t-82.5 149.5t-111 85t-125.5 27q-72 0 -130 -28t-99.5 -76.5t-63.5 -113.5t-22 -138
q0 -62 17 -121.5t54 -106t95.5 -74.5t142.5 -28z" />
    <glyph glyph-name="plus.c2sc" horiz-adv-x="1278" 
d="M614 596h-481v47h481v483h52v-483h479v-47h-479v-485h-52v485z" />
    <glyph glyph-name="glyph530" 
 />
    <glyph glyph-name="multiply.c2sc" horiz-adv-x="1278" 
d="M262 272l342 344l-342 345l33 32l344 -344l342 344l33 -32l-344 -343l344 -344l-33 -32l-344 342l-344 -342z" />
    <glyph glyph-name="divide.c2sc" horiz-adv-x="1284" 
d="M133 643h1018v-47h-1018v47zM598 1024h86v-117h-86v117zM598 330h86v-117h-86v117z" />
    <glyph glyph-name="equal.c2sc" horiz-adv-x="1370" 
d="M199 412h972v-47h-972v47zM199 872h972v-47h-972v47z" />
    <glyph glyph-name="less.c2sc" horiz-adv-x="1366" 
d="M141 598v47l1043 449v-50l-991 -423l991 -428v-50z" />
    <glyph glyph-name="greater.c2sc" horiz-adv-x="1366" 
d="M182 193l992 423l-992 428v50l1043 -455v-47l-1043 -449v50z" />
    <glyph glyph-name="dollar.c2sc" horiz-adv-x="1083" 
d="M524 -10q-57 2 -109 15t-98 39.5t-86 69.5t-73 105l41 23q30 -55 65.5 -93t76.5 -63t87.5 -37t97.5 -14v588q-87 31 -147 61t-97.5 66.5t-54 84.5t-16.5 115q0 55 22 103.5t62.5 85t98.5 58t130 22.5v120h47v-122q104 -7 178 -49t134 -126l-37 -26q-53 74 -117.5 111.5
t-157.5 43.5v-516q94 -32 160.5 -65.5t109 -75.5t62 -98t19.5 -133q0 -69 -26.5 -122.5t-73.5 -90.5t-111.5 -57t-139.5 -23v-146h-47v146zM571 35q69 2 124.5 19.5t95.5 49t61.5 76.5t21.5 103q0 70 -17 118.5t-54 84.5t-94 63.5t-138 56.5v-571zM526 1174
q-62 -1 -111.5 -18.5t-84 -47.5t-53.5 -70.5t-19 -87.5q0 -55 14.5 -95.5t46.5 -72t83 -57.5t124 -53v502z" />
    <glyph glyph-name="Euro.c2sc" horiz-adv-x="1137" 
d="M643 -25q-79 0 -148 31t-122.5 93.5t-89.5 155.5t-50 218h-206v43h204q-2 23 -3 48.5t-1 51.5q0 28 0.5 54t3.5 51h-204v43h209q14 119 51 207.5t91 147.5t121 88.5t142 29.5t135.5 -29.5t106 -79.5t76.5 -116t49 -138l-43 -12q-17 68 -46 128t-69.5 105t-92.5 71
t-116 26q-67 0 -125.5 -27.5t-105 -81.5t-79 -134t-46.5 -185h368v-43h-372q-2 -25 -3.5 -51t-1.5 -54q0 -26 0.5 -51.5t2.5 -48.5h374v-43h-368q12 -111 43.5 -196t78 -142t106.5 -86t130 -29q77 0 134.5 34t98.5 85.5t66.5 112.5t38.5 115l45 -15q-10 -38 -26 -81
t-39.5 -85t-54.5 -80t-70.5 -67t-87.5 -46.5t-105 -17.5z" />
    <glyph glyph-name="sterling.c2sc" horiz-adv-x="961" 
d="M223 -33q-34 0 -66.5 9.5t-58 30t-41.5 53t-16 79.5q0 37 11 70.5t32 58.5t52.5 39.5t72.5 14.5q65 0 111.5 -28.5t87.5 -70.5q5 26 7.5 52.5t2.5 54.5q0 86 -25 154t-57 128h-213v43h190q-18 31 -34.5 63t-29 66t-20.5 70.5t-8 77.5q0 65 21.5 119.5t62 94t98 61.5
t129.5 22q75 0 131 -24.5t93.5 -66.5t56.5 -97.5t21 -116.5h-50q-2 54 -18 101.5t-47.5 83t-78 55.5t-108.5 20q-60 0 -108 -18t-82.5 -51t-53 -79.5t-18.5 -103.5q0 -40 8 -76t21.5 -69.5t31 -66t36.5 -65.5h301v-43h-279q31 -60 54.5 -128.5t23.5 -153.5q0 -38 -4.5 -76
t-13.5 -72q27 -31 54.5 -60.5t58 -53t65.5 -38t78 -14.5q46 0 79.5 20.5t56 57.5t34 87.5t14.5 109.5l49 -2q-4 -70 -18.5 -128.5t-42.5 -100.5t-70.5 -65.5t-101.5 -23.5q-47 0 -85.5 14t-71 37t-61 52t-55.5 59q-28 -72 -80 -119t-129 -47zM223 12q32 0 59 12t48.5 33.5
t37.5 51.5t27 65q-20 21 -41 39.5t-43.5 32.5t-48 22t-53.5 8q-29 0 -51.5 -11.5t-37.5 -30.5t-22.5 -44t-7.5 -53q0 -33 11.5 -56.5t30.5 -39t43 -22.5t48 -7z" />
    <glyph glyph-name="yen.c2sc" horiz-adv-x="1018" 
d="M485 236h-319v43h319v196h-319v43h319v33l-446 661h55l416 -618l416 618h53l-444 -661v-33h319v-43h-319v-196h319v-43h-319v-236h-50v236z" />
    <glyph glyph-name="florin.c2sc" horiz-adv-x="629" 
d="M-119 -301h66q62 0 104 27.5t53 89.5q35 208 67.5 419.5t66.5 434.5h-146l6 45h146q9 66 18.5 132t20.5 134q8 59 32 96t56.5 57.5t70 27.5t72.5 7h59v-45h-67q-71 0 -116.5 -33t-57.5 -110l-41 -266h211l-6 -45h-213q-11 -68 -22 -140t-22 -143t-21.5 -139.5
t-19.5 -129.5q-22 -143 -42 -282q-9 -58 -29.5 -94t-51 -55.5t-68.5 -26t-81 -6.5h-45v45z" />
    <glyph glyph-name="numbersign.c2sc" horiz-adv-x="1192" 
d="M324 377h-191v43h201l78 375h-211v43h221l78 374h47l-80 -374h362l78 374h47l-77 -374h182v-43h-193l-78 -375h203v-43h-211l-80 -377h-47l80 377h-362l-78 -377h-47zM743 418l80 379h-366l-80 -379h366z" />
    <glyph glyph-name="percent.c2sc" horiz-adv-x="1458" 
d="M326 545q-55 0 -100.5 24.5t-78.5 69.5t-51 109.5t-18 144.5t18 144.5t51 109.5t78.5 69.5t100.5 24.5q54 0 99.5 -24.5t78.5 -69.5t51 -109.5t18 -144.5t-18 -144.5t-51 -109.5t-78.5 -69.5t-99.5 -24.5zM326 588q44 0 81 21.5t63.5 61t41 96t14.5 126.5t-14.5 126
t-41 96t-63.5 61.5t-81 21.5q-45 0 -82 -21.5t-63.5 -61.5t-41 -96t-14.5 -126t14.5 -126.5t41 -96t63.5 -61t82 -21.5zM1133 -27q-55 0 -100.5 24.5t-78.5 70t-51 110t-18 144.5t18 144.5t51 109.5t78.5 69.5t100.5 24.5q54 0 99.5 -24.5t78.5 -69.5t51 -109.5t18 -144.5
t-18 -144.5t-51 -110t-78.5 -70t-99.5 -24.5zM1133 627q-45 0 -82 -21.5t-63.5 -61.5t-41 -96t-14.5 -126t14.5 -126.5t41 -96.5t63.5 -61.5t82 -21.5q44 0 81 21.5t63.5 61.5t41 96.5t14.5 126.5t-14.5 126t-41 96t-63.5 61.5t-81 21.5zM1063 1212h51q-68 -112 -129 -214
t-119 -199t-114.5 -191.5t-114.5 -191.5t-119.5 -200t-128.5 -216h-51z" />
    <glyph glyph-name="perthousand.aalt" horiz-adv-x="2107" 
d="M322 545q-55 0 -100.5 24.5t-78.5 69.5t-51 109.5t-18 144.5t18 144.5t51 109.5t78.5 69.5t100.5 24.5q54 0 99.5 -24.5t78.5 -69.5t51 -109.5t18 -144.5t-18 -144.5t-51 -109.5t-78.5 -69.5t-99.5 -24.5zM322 588q44 0 81 21.5t63.5 61t41 96t14.5 126.5t-14.5 126
t-41 96t-63.5 61.5t-81 21.5q-45 0 -82 -21.5t-63.5 -61.5t-41 -96t-14.5 -126t14.5 -126.5t41 -96t63.5 -61t82 -21.5zM1128 -27q-54 0 -99.5 24.5t-78.5 70t-51 110t-18 144.5t18 144.5t51 109.5t78.5 69.5t99.5 24.5q55 0 100.5 -24.5t78.5 -69.5t51 -109.5t18 -144.5
t-18 -144.5t-51 -110t-78.5 -70t-100.5 -24.5zM1128 16q45 0 82 21.5t63.5 61.5t41 96.5t14.5 126.5t-14.5 126t-41 96t-63.5 61.5t-82 21.5q-44 0 -81 -21.5t-63.5 -61.5t-41 -96t-14.5 -126t14.5 -126.5t41 -96.5t63.5 -61.5t81 -21.5zM1786 -27q-55 0 -100.5 24.5
t-78.5 70t-51 110t-18 144.5t18 144.5t51 109.5t78.5 69.5t100.5 24.5q54 0 99.5 -24.5t78.5 -69.5t51.5 -109.5t18.5 -144.5t-18.5 -144.5t-51.5 -110t-78.5 -70t-99.5 -24.5zM1786 16q45 0 82 21.5t63.5 61.5t41 96.5t14.5 126.5t-14.5 126t-41 96t-63.5 61.5t-82 21.5
t-82 -21.5t-63.5 -61.5t-41 -96t-14.5 -126t14.5 -126.5t41 -96.5t63.5 -61.5t82 -21.5zM1059 1212h51q-68 -112 -129 -214t-119 -199t-114.5 -191.5t-114.5 -191.5t-119.5 -200t-128.5 -216h-51z" />
    <glyph glyph-name="ordfeminine.aalt" horiz-adv-x="752" 
d="M350 1210h49l271 -721h-45l-88 236h-328l-88 -236h-43zM522 762l-149 401l-152 -401h301z" />
    <glyph glyph-name="ordmasculine.aalt" horiz-adv-x="842" 
d="M420 455q-71 0 -130.5 28.5t-103 80.5t-68 124t-24.5 158q0 87 24 159t67 123.5t103 80t132 28.5q71 0 131.5 -28.5t104 -80t68 -123.5t24.5 -159q0 -86 -24.5 -158t-68 -124t-104 -80.5t-131.5 -28.5zM420 500q64 0 115.5 26.5t87.5 73t55.5 109.5t19.5 137
q0 67 -18 129.5t-53.5 110.5t-87.5 77t-119 29q-64 0 -115 -27t-87 -73.5t-55.5 -109.5t-19.5 -136q0 -69 18 -131.5t53 -110.5t86.5 -76t119.5 -28z" />
    <glyph glyph-name="zero.numr" horiz-adv-x="791" 
d="M396 622q-74 0 -131 33t-95 92.5t-57.5 142t-19.5 180.5q0 97 19.5 179.5t57.5 142.5t95 93.5t131 33.5t130 -33.5t94 -93.5t57.5 -142.5t19.5 -179.5q0 -98 -19.5 -180.5t-57.5 -142t-94 -92.5t-130 -33zM396 667q62 0 109.5 30t79.5 83.5t48.5 127.5t16.5 162
t-16.5 162t-48.5 128t-79.5 84t-109.5 30q-63 0 -111 -30t-80 -84t-48.5 -128t-16.5 -162t16.5 -162t48.5 -127.5t80 -83.5t111 -30z" />
    <glyph glyph-name="one.numr" horiz-adv-x="539" 
d="M83 681h184v774q-12 -10 -34 -18t-47 -14t-51.5 -9.5t-47.5 -3.5v45q63 0 112.5 12.5t69.5 35.5h45v-822h166v-45h-397v45z" />
    <glyph glyph-name="two.numr" horiz-adv-x="702" 
d="M81 653q0 67 11.5 115.5t45 91.5t94 87.5t158.5 104.5q49 30 84.5 57t58.5 54.5t34 56.5t11 63q0 48 -15.5 83.5t-44 59.5t-67.5 36t-85 12q-42 0 -78 -12.5t-65.5 -33.5t-51.5 -48t-35 -56l-43 19q15 34 41 66t61 56.5t78 39t93 14.5q57 0 105 -15t82.5 -44.5t53.5 -74
t19 -102.5q0 -41 -13 -76t-39 -66.5t-66.5 -62t-94.5 -63.5q-63 -38 -108 -68t-76 -55.5t-50.5 -49t-30.5 -48t-15 -52t-5 -61.5h496v-45h-543v17z" />
    <glyph glyph-name="three.numr" horiz-adv-x="682" 
d="M327 622q-63 0 -110.5 14.5t-82.5 38.5t-59 54.5t-41 62.5l41 20q15 -27 36 -53t51 -46.5t70.5 -33t94.5 -12.5q106 0 167.5 51.5t61.5 147.5q0 49 -12.5 89t-42.5 68t-80 43t-125 15h-55v45h51q57 0 103 8.5t78.5 28.5t49.5 53.5t17 83.5q0 81 -49 127.5t-158 46.5
q-42 0 -75 -9.5t-59.5 -25.5t-46 -37t-34.5 -43l-39 25q17 26 40.5 50.5t54.5 43t70.5 30t88.5 11.5q133 0 193.5 -58t60.5 -161q0 -84 -44 -131.5t-118 -63.5q45 -8 78 -30t55.5 -54t33.5 -72t11 -83q0 -59 -19 -104t-55 -76.5t-87 -47.5t-115 -16z" />
    <glyph glyph-name="four.numr" horiz-adv-x="723" 
d="M488 870h-438v43l447 590h36v-590h162v-43h-162v-232h-45v232zM488 913v512l-387 -512h387z" />
    <glyph glyph-name="five.numr" horiz-adv-x="729" 
d="M353 622q-62 0 -108 19.5t-78 47t-51.5 57t-28.5 50.5l43 18q7 -18 23 -43t43 -48t65.5 -39.5t91.5 -16.5q65 0 111.5 21t76.5 57t44 84t14 102q0 60 -18 105t-49 75t-73.5 45t-90.5 15q-39 0 -68.5 -7t-53.5 -20t-43 -32t-36 -44l-43 11l35 424h428v-46h-385l-27 -317
q34 35 85.5 55.5t107.5 20.5q58 0 109 -18t88.5 -53.5t59 -89t21.5 -124.5q0 -64 -16.5 -120t-52 -98t-91 -66.5t-133.5 -24.5z" />
    <glyph glyph-name="six.numr" horiz-adv-x="737" 
d="M388 622q-54 0 -106.5 22.5t-94.5 74t-68 134.5t-26 203q0 103 20.5 188t61 146t99.5 95t137 34q58 0 107.5 -17t103.5 -61l-31 -35q-47 38 -89 53t-91 15q-66 0 -117 -30.5t-85 -85.5t-51.5 -132t-17.5 -170q20 20 47 40.5t59.5 37.5t68 28t73.5 11q75 0 127 -22.5
t84.5 -60t47.5 -85t15 -98.5q0 -58 -18.5 -109.5t-54 -90.5t-86.5 -62t-115 -23zM388 667q54 0 96 19.5t71 52.5t44.5 76.5t15.5 91.5q0 42 -12.5 82t-39.5 70.5t-70.5 49.5t-104.5 19q-40 0 -77 -13.5t-69 -33t-57.5 -42.5t-42.5 -42q6 -92 29.5 -155t57.5 -102t75.5 -56
t83.5 -17z" />
    <glyph glyph-name="seven.numr" horiz-adv-x="678" 
d="M568 1457h-473v46h518v-46l-391 -819h-47z" />
    <glyph glyph-name="eight.numr" horiz-adv-x="737" 
d="M374 622q-64 0 -119 16t-96 46t-64.5 73.5t-23.5 97.5q0 48 18.5 84.5t50.5 65t75 50.5t91 42q-39 15 -73.5 32t-60.5 40t-41 54t-15 75q0 50 20 90.5t55 69.5t82 45t101 16t101 -16t82 -45t55 -69.5t20 -90.5q0 -45 -15.5 -77t-42.5 -54.5t-63 -39.5t-76 -32
q50 -21 93 -43t75 -49.5t50 -63.5t18 -84q0 -54 -22.5 -97.5t-62.5 -73.5t-94 -46t-118 -16zM374 667q54 0 99.5 13t79 37.5t52.5 59t19 78.5q0 46 -22 79.5t-58 59t-81.5 45t-92.5 38.5q-47 -19 -92 -38.5t-80.5 -45t-57.5 -59t-22 -79.5q0 -44 19.5 -78.5t54 -59
t81.5 -37.5t101 -13zM378 1117q41 16 78.5 32t66 36t45.5 47t17 66q0 40 -16.5 72.5t-45.5 55.5t-67.5 35.5t-81.5 12.5q-44 0 -82.5 -12.5t-67 -35.5t-45 -55.5t-16.5 -72.5q0 -39 18.5 -66t48.5 -47t68.5 -36t79.5 -32z" />
    <glyph glyph-name="nine.numr" horiz-adv-x="737" 
d="M327 622q-29 0 -56 3.5t-52.5 12.5t-50.5 24t-52 38l30 35q47 -39 89 -53.5t92 -14.5q66 0 116.5 30.5t84.5 85.5t51.5 131.5t17.5 168.5q-21 -20 -48.5 -40.5t-59.5 -37t-67.5 -27t-72.5 -10.5q-75 0 -127 22.5t-84.5 60t-47.5 85t-15 98.5q0 58 18.5 109.5t54 90.5
t86 62t115.5 23q54 0 106.5 -22.5t94.5 -74t68 -134.5t26 -203q0 -103 -20.5 -188.5t-60.5 -146.5t-99.5 -94.5t-136.5 -33.5zM349 1013q39 0 76 13.5t69.5 33t58 42t42.5 40.5q-6 91 -29.5 154.5t-57.5 103t-75.5 57t-83.5 17.5q-54 0 -96 -19.5t-71 -52.5t-44.5 -76.5
t-15.5 -91.5q0 -42 12.5 -82t39.5 -70.5t70 -49.5t105 -19z" />
    <glyph glyph-name="zero.dnom" horiz-adv-x="791" 
d="M396 -13q-74 0 -131 33t-95 92.5t-57.5 142t-19.5 180.5q0 97 19.5 179.5t57.5 142.5t95 93.5t131 33.5t130 -33.5t94 -93.5t57.5 -142.5t19.5 -179.5q0 -98 -19.5 -180.5t-57.5 -142t-94 -92.5t-130 -33zM396 32q62 0 109.5 30t79.5 83.5t48.5 127.5t16.5 162t-16.5 162
t-48.5 128t-79.5 84t-109.5 30q-63 0 -111 -30t-80 -84t-48.5 -128t-16.5 -162t16.5 -162t48.5 -127.5t80 -83.5t111 -30z" />
    <glyph glyph-name="one.dnom" horiz-adv-x="539" 
d="M83 46h184v774q-12 -10 -34 -18t-47 -14t-51.5 -9.5t-47.5 -3.5v45q63 0 112.5 12.5t69.5 35.5h45v-822h166v-45h-397v45z" />
    <glyph glyph-name="two.dnom" horiz-adv-x="702" 
d="M81 18q0 67 11.5 115.5t45 91.5t94 87.5t158.5 104.5q49 30 84.5 57t58.5 54.5t34 56.5t11 63q0 48 -15.5 83.5t-44 59.5t-67.5 36t-85 12q-42 0 -78 -12.5t-65.5 -33.5t-51.5 -48t-35 -56l-43 19q15 34 41 66t61 56.5t78 39t93 14.5q57 0 105 -15t82.5 -44.5t53.5 -74
t19 -102.5q0 -41 -13 -76t-39 -66.5t-66.5 -62t-94.5 -63.5q-63 -38 -108 -68t-76 -55.5t-50.5 -49t-30.5 -48t-15 -52t-5 -61.5h496v-45h-543v17z" />
    <glyph glyph-name="three.dnom" horiz-adv-x="682" 
d="M327 -13q-63 0 -110.5 14.5t-82.5 38.5t-59 54.5t-41 62.5l41 20q15 -27 36 -53t51 -46.5t70.5 -33t94.5 -12.5q106 0 167.5 51.5t61.5 147.5q0 49 -12.5 89t-42.5 68t-80 43t-125 15h-55v45h51q57 0 103 8.5t78.5 28.5t49.5 53.5t17 83.5q0 81 -49 127.5t-158 46.5
q-42 0 -75 -9.5t-59.5 -25.5t-46 -37t-34.5 -43l-39 25q17 26 40.5 50.5t54.5 43t70.5 30t88.5 11.5q133 0 193.5 -58t60.5 -161q0 -84 -44 -131.5t-118 -63.5q45 -8 78 -30t55.5 -54t33.5 -72t11 -83q0 -59 -19 -104t-55 -76.5t-87 -47.5t-115 -16z" />
    <glyph glyph-name="four.dnom" horiz-adv-x="723" 
d="M488 235h-438v43l447 590h36v-590h162v-43h-162v-232h-45v232zM488 278v512l-387 -512h387z" />
    <glyph glyph-name="five.dnom" horiz-adv-x="729" 
d="M353 -13q-62 0 -108 19.5t-78 47t-51.5 57t-28.5 50.5l43 18q7 -18 23 -43t43 -48t65.5 -39.5t91.5 -16.5q65 0 111.5 21t76.5 57t44 84t14 102q0 60 -18 105t-49 75t-73.5 45t-90.5 15q-39 0 -68.5 -7t-53.5 -20t-43 -32t-36 -44l-43 11l35 424h428v-46h-385l-27 -317
q34 35 85.5 55.5t107.5 20.5q58 0 109 -18t88.5 -53.5t59 -89t21.5 -124.5q0 -64 -16.5 -120t-52 -98t-91 -66.5t-133.5 -24.5z" />
    <glyph glyph-name="six.dnom" horiz-adv-x="737" 
d="M388 -13q-54 0 -106.5 22.5t-94.5 74t-68 134.5t-26 203q0 103 20.5 188t61 146t99.5 95t137 34q58 0 107.5 -17t103.5 -61l-31 -35q-47 38 -89 53t-91 15q-66 0 -117 -30.5t-85 -85.5t-51.5 -132t-17.5 -170q20 20 47 40.5t59.5 37.5t68 28t73.5 11q75 0 127 -22.5
t84.5 -60t47.5 -85t15 -98.5q0 -58 -18.5 -109.5t-54 -90.5t-86.5 -62t-115 -23zM388 32q54 0 96 19.5t71 52.5t44.5 76.5t15.5 91.5q0 42 -12.5 82t-39.5 70.5t-70.5 49.5t-104.5 19q-40 0 -77 -13.5t-69 -33t-57.5 -42.5t-42.5 -42q6 -92 29.5 -155t57.5 -102t75.5 -56
t83.5 -17z" />
    <glyph glyph-name="seven.dnom" horiz-adv-x="678" 
d="M568 822h-473v46h518v-46l-391 -819h-47z" />
    <glyph glyph-name="eight.dnom" horiz-adv-x="737" 
d="M374 -13q-64 0 -119 16t-96 46t-64.5 73.5t-23.5 97.5q0 48 18.5 84.5t50.5 65t75 50.5t91 42q-39 15 -73.5 32t-60.5 40t-41 54t-15 75q0 50 20 90.5t55 69.5t82 45t101 16t101 -16t82 -45t55 -69.5t20 -90.5q0 -45 -15.5 -77t-42.5 -54.5t-63 -39.5t-76 -32
q50 -21 93 -43t75 -49.5t50 -63.5t18 -84q0 -54 -22.5 -97.5t-62.5 -73.5t-94 -46t-118 -16zM374 32q54 0 99.5 13t79 37.5t52.5 59t19 78.5q0 46 -22 79.5t-58 59t-81.5 45t-92.5 38.5q-47 -19 -92 -38.5t-80.5 -45t-57.5 -59t-22 -79.5q0 -44 19.5 -78.5t54 -59
t81.5 -37.5t101 -13zM378 482q41 16 78.5 32t66 36t45.5 47t17 66q0 40 -16.5 72.5t-45.5 55.5t-67.5 35.5t-81.5 12.5q-44 0 -82.5 -12.5t-67 -35.5t-45 -55.5t-16.5 -72.5q0 -39 18.5 -66t48.5 -47t68.5 -36t79.5 -32z" />
    <glyph glyph-name="nine.dnom" horiz-adv-x="737" 
d="M327 -13q-29 0 -56 3.5t-52.5 12.5t-50.5 24t-52 38l30 35q47 -39 89 -53.5t92 -14.5q66 0 116.5 30.5t84.5 85.5t51.5 131.5t17.5 168.5q-21 -20 -48.5 -40.5t-59.5 -37t-67.5 -27t-72.5 -10.5q-75 0 -127 22.5t-84.5 60t-47.5 85t-15 98.5q0 58 18.5 109.5t54 90.5
t86 62t115.5 23q54 0 106.5 -22.5t94.5 -74t68 -134.5t26 -203q0 -103 -20.5 -188.5t-60.5 -146.5t-99.5 -94.5t-136.5 -33.5zM349 378q39 0 76 13.5t69.5 33t58 42t42.5 40.5q-6 91 -29.5 154.5t-57.5 103t-75.5 57t-83.5 17.5q-54 0 -96 -19.5t-71 -52.5t-44.5 -76.5
t-15.5 -91.5q0 -42 12.5 -82t39.5 -70.5t70 -49.5t105 -19z" />
    <glyph glyph-name="glyph589" horiz-adv-x="307" 
 />
    <glyph glyph-name="glyph591" 
 />
    <glyph glyph-name="glyph592" 
 />
    <glyph glyph-name="glyph593" 
 />
    <glyph glyph-name="glyph597" 
 />
    <glyph glyph-name="glyph599" 
 />
    <glyph glyph-name="glyph600" 
 />
    <glyph glyph-name="glyph601" 
 />
    <glyph glyph-name="glyph608" horiz-adv-x="522" 
d="M223 1323l35 172h33l-29 -160h37v-102h-76v90z" />
    <glyph glyph-name="glyph618" 
 />
    <glyph glyph-name="glyph619" 
 />
    <glyph glyph-name="i.locl" horiz-adv-x="420" 
d="M186 1075h47v-1075h-47v1075zM178 1442h66v-86h-66v86z" />
    <glyph glyph-name="glyph621" horiz-adv-x="246" 
 />
    <glyph glyph-name="glyph622" 
 />
    <glyph glyph-name="glyph623" 
 />
    <glyph glyph-name="glyph624" 
 />
    <glyph glyph-name="glyph625" 
 />
    <glyph glyph-name="germandbls.aalt" horiz-adv-x="2236" 
d="M578 -25q-111 0 -190.5 25t-135 69t-91 103.5t-57.5 128.5l48 16q23 -68 56.5 -122.5t84 -93.5t121 -60t166.5 -21q84 0 153 18.5t117.5 53.5t75 84t26.5 111q0 67 -20 114t-64.5 83.5t-116.5 66t-176 61.5q-108 32 -183.5 62t-123 67.5t-69 88.5t-21.5 126q0 57 25 108
t72.5 89.5t117.5 61t160 22.5q89 0 157.5 -22.5t119.5 -60.5t86 -89t57 -109l-47 -16q-23 57 -55.5 103.5t-77.5 79.5t-104.5 51t-135.5 18q-81 0 -142.5 -19t-102 -51.5t-61 -75t-20.5 -90.5q0 -63 20 -107t64 -77t112.5 -60t166.5 -55q100 -30 177 -59.5t129 -70.5
t78.5 -98.5t26.5 -141.5q0 -73 -30.5 -131t-86 -98t-133.5 -61.5t-173 -21.5zM1696 -25q-111 0 -190.5 25t-135 69t-91 103.5t-57.5 128.5l48 16q23 -68 56.5 -122.5t84 -93.5t121 -60t166.5 -21q84 0 153 18.5t117.5 53.5t75 84t26.5 111q0 67 -20 114t-64.5 83.5
t-116.5 66t-176 61.5q-108 32 -183.5 62t-123 67.5t-69 88.5t-21.5 126q0 57 25 108t72.5 89.5t117.5 61t160 22.5q89 0 157.5 -22.5t119.5 -60.5t86 -89t57 -109l-47 -16q-23 57 -55.5 103.5t-77.5 79.5t-104.5 51t-135.5 18q-81 0 -142.5 -19t-102 -51.5t-61 -75
t-20.5 -90.5q0 -63 20 -107t64 -77t112.5 -60t166.5 -55q100 -30 177 -59.5t129 -70.5t78.5 -98.5t26.5 -141.5q0 -73 -30.5 -131t-86 -98t-133.5 -61.5t-173 -21.5z" />
    <glyph glyph-name="glyph627" 
 />
    <glyph glyph-name="glyph628" 
 />
    <glyph glyph-name="glyph629" 
 />
    <glyph glyph-name="slash.ss19" horiz-adv-x="1331" 
d="M1065 1516h51l-852 -1516h-51z" />
    <glyph glyph-name="glyph631" 
 />
    </font>
</defs>
</svg>
